<?xml version="1.0" standalone="no"?>
<!DOCTYPE svg PUBLIC "-//W3C//DTD SVG 1.1//EN" "http://www.w3.org/Graphics/SVG/1.1/DTD/svg11.dtd" >
<svg xmlns="http://www.w3.org/2000/svg" xmlns:xlink="http://www.w3.org/1999/xlink" version="1.1">
<metadata>
Created by FontForge 20170731 at Thu Jan 11 02:21:34 2018
 By Aleksey,,,
(c) Jean-Baptiste Morizot. OFL licence
</metadata>
<defs>
<font id="Trickster-Regular" horiz-adv-x="500" >
  <font-face 
    font-family="Trickster"
    font-weight="400"
    font-stretch="normal"
    units-per-em="1000"
    panose-1="1 0 0 0 0 0 0 0 0 0"
    ascent="810"
    descent="-190"
    x-height="593"
    cap-height="758"
    bbox="-517 -459 1151 1039"
    underline-thickness="70"
    underline-position="-185"
    unicode-range="U+000D-1F4A3"
  />
<missing-glyph horiz-adv-x="726" 
d="M390 328l225 42l-27 -151l-200 14l-4 -180l-2 -75l-6 -13l-113 13q7 63 13 128t10 129l-211 -36l12 156l203 -27q3 70 3 134t-1 114q-3 70 -6.5 126t-10.5 99q34 -5 65.5 -16.5t58.5 -25.5z" />
    <glyph glyph-name="fi" unicode="fi" horiz-adv-x="600" 
d="M121 16q0 -47 31.5 -89.5t97.5 -77.5l-23 -35q-77 38 -116 89t-39 120q0 44 14.5 79t32.5 64t32.5 54t14.5 49q0 30 -14.5 54t-34 46t-40 45.5t-33.5 51.5h-79v48h65q0 38 29 85.5t74 88t99.5 68t105.5 27.5q49 0 84 -24t52 -61l40 114l59 -8l-146 -244l130 41l-8 -192
l25 -409h-171l24 203l-32 315q-8 78 -52 114t-105 36q-53 0 -78 -19t-25 -41t19.5 -44.5t56.5 -49.5h147v-48h-103q25 -24 41 -48.5t16 -57.5q0 -40 -30 -76.5t-65.5 -75.5t-65.5 -85.5t-30 -106.5z" />
    <glyph glyph-name="fl" unicode="fl" horiz-adv-x="576" 
d="M87 16q0 44 14.5 77.5t32.5 60.5t32.5 52.5t14.5 54.5q0 32 -21.5 58t-48.5 52t-52.5 57.5t-33.5 73.5h-117v48h115q4 41 29.5 83t65.5 75t92.5 54t110.5 21q54 0 89 -15t61 -43l64 68l9 -4v-160l-8 -245l10 -384h-157l10 378l-7 137q-4 94 -51 135t-133 41
q-45 0 -67 -18t-22 -46q0 -21 9.5 -40t25.5 -37h183v-48h-133l42 -36t37.5 -37.5t27 -41t10.5 -45.5q0 -37 -29 -73.5t-63.5 -75.5t-63.5 -82.5t-29 -94.5q0 -47 31.5 -89.5t97.5 -77.5l-23 -35q-76 38 -115.5 86.5t-39.5 115.5z" />
    <glyph glyph-name="i_f" unicode="if" horiz-adv-x="562" 
d="M212 865q-7 -25 -16.5 -59.5t-19.5 -71.5t-19.5 -72.5t-16.5 -61.5q-28 0 -52 14t-39.5 38t-22 54.5t-0.5 63.5q37 18 71 20.5t61 2.5l18 83q10 1 20.5 -2t15.5 -9zM200 0h-161l20 302l-33 235l159 26h69q10 32 38 70.5t68 71.5t90.5 55.5t105.5 22.5q51 0 89 -22.5
t38 -53.5t-21 -56.5t-32 -50.5q-8 -19 -10 -37t-3 -35h-25l-3 48q-1 25 -19 44.5t-43.5 33t-54 20t-52.5 6.5q-34 0 -50.5 -17.5t-16.5 -42.5q0 -13 7.5 -27.5t20.5 -29.5h186v-48h-138q21 -19 43 -39t39.5 -41t29 -43t11.5 -45q0 -40 -30 -76.5t-65.5 -75.5t-65.5 -85.5
t-30 -106.5q0 -43 31.5 -81.5t97.5 -72.5l-23 -35q-76 37 -115.5 84t-39.5 112q0 44 14.5 79t32.5 64t32.5 54t14.5 49q0 35 -23 64t-51 58t-53 62t-30 75h-61q6 -125 9 -257.5t3 -257.5z" />
    <glyph glyph-name="i_f_i" unicode="ifi" horiz-adv-x="837" 
d="M212 865q-7 -25 -16.5 -59.5t-19.5 -71.5t-19.5 -72.5t-16.5 -61.5q-28 0 -52 14t-39.5 38t-22 54.5t-0.5 63.5q37 18 71 20.5t61 2.5l18 83q10 1 20.5 -2t15.5 -9zM200 0h-161l20 289l-27 223v38h213q7 32 34.5 72.5t69 76t96 60t114.5 24.5q44 0 83 -10t64 -28l25 118
l36 -11q-7 -25 -16 -59.5t-18.5 -71.5t-19.5 -73t-19 -63l-27 3q-63 55 -120 73.5t-104 18.5q-55 0 -75 -17.5t-20 -42.5q0 -16 11 -34t29 -36h367v-16q7 -132 11 -266t4 -268h-161l20 289l-32 213h-159q40 -36 74.5 -74.5t34.5 -80.5q0 -40 -30 -76.5t-65.5 -75.5
t-65.5 -85.5t-30 -106.5q0 -43 31.5 -81.5t97.5 -72.5l-23 -35q-76 37 -115.5 84t-39.5 112q0 44 14.5 79t32.5 64t32.5 54t14.5 49q0 34 -21 62t-48 56t-52.5 58.5t-33.5 69.5h-58q6 -122 9 -251t3 -251z" />
    <glyph glyph-name=".notdef" horiz-adv-x="726" 
d="M390 328l225 42l-27 -151l-200 14l-4 -180l-2 -75l-6 -13l-113 13q7 63 13 128t10 129l-211 -36l12 156l203 -27q3 70 3 134t-1 114q-3 70 -6.5 126t-10.5 99q34 -5 65.5 -16.5t58.5 -25.5z" />
    <glyph glyph-name=".null" horiz-adv-x="0" 
 />
    <glyph glyph-name="nonmarkingreturn" horiz-adv-x="333" 
 />
    <glyph glyph-name="CR" unicode="&#xd;" horiz-adv-x="0" 
 />
    <glyph glyph-name="space" unicode=" " horiz-adv-x="180" 
 />
    <glyph glyph-name="exclam" unicode="!" horiz-adv-x="292" 
d="M125 255l-75 495h192l-75 -495h-42zM30 99l116 115l116 -115l-116 -117z" />
    <glyph glyph-name="quotedbl" unicode="&#x22;" horiz-adv-x="333" 
d="M109 426h-39l-45 271v53h123v-53zM269 426h-39l-45 271v53h123v-53z" />
    <glyph glyph-name="numbersign" unicode="#" horiz-adv-x="633" 
d="M40 0l70 226h-115l10 53h121l60 192h-141l10 53h147l70 226h71l-70 -226h164l70 226h71l-70 -226h115l-10 -53h-121l-60 -192h141l-10 -53h-147l-70 -226h-71l70 226h-164l-70 -226h-71zM197 279h164l60 192h-164z" />
    <glyph glyph-name="dollar" unicode="$" horiz-adv-x="616" 
d="M284 -125v112q-123 4 -194.5 48t-71.5 116q0 56 36 108t111 101q-43 33 -71 79.5t-28 112.5q0 37 13.5 72.5t41 64t68.5 48t95 24.5v97h45v-95q46 -1 88.5 -13.5t75 -34.5t52 -52t19.5 -66q0 -29 -10.5 -58t-23.5 -56.5t-26 -54t-18 -51.5q44 -33 73 -75t29 -96
q0 -108 -70.5 -161.5t-188.5 -57.5v-112h-45zM139 615q0 -39 42.5 -69t102.5 -59v183q-15 4 -31.5 6t-33.5 2q-43 0 -61.5 -18t-18.5 -45zM329 465q31 -15 64 -31.5t62 -35.5q2 96 -32 161t-94 95v-189zM106 229q0 -19 14.5 -39t39 -38.5t57 -35t67.5 -28.5v204q-7 3 -13 6
t-13 6q-85 -7 -118.5 -28t-33.5 -47zM503 126q0 26 -14 46.5t-38 37.5t-55.5 31.5t-66.5 29.5v-196q19 -5 39 -7.5t38 -2.5q48 0 72.5 15t24.5 46z" />
    <glyph glyph-name="percent" unicode="%" horiz-adv-x="633" 
d="M167 500q-54 0 -93 39t-39 93t39 92.5t93 38.5t92.5 -38.5t38.5 -92.5t-38.5 -93t-92.5 -39zM25 0l482 750h101l-482 -750h-101zM467 -13q-54 0 -93 39t-39 93t39 92.5t93 38.5t92.5 -38.5t38.5 -92.5t-38.5 -93t-92.5 -39z" />
    <glyph glyph-name="ampersand" unicode="&#x26;" horiz-adv-x="709" 
d="M9 213q43 23 86.5 48t82.5 52q-81 54 -117 119.5t-36 135.5q0 41 14.5 76.5t41 61.5t64 41t82.5 15q43 0 79.5 -13.5t63.5 -39t42.5 -62.5t15.5 -84q0 -61 -30 -114.5t-83 -98.5q40 -9 87.5 -16t103.5 -11l-32 313l146 55l-21 -373q17 -1 35 -1h37v-157q-23 3 -45.5 6.5
t-43.5 7.5q-42 -61 -109 -103t-183 -86q-101 26 -174 88t-107 140zM67 577q0 -63 39.5 -117t140.5 -90q38 37 61 79.5t23 92.5q0 76 -35.5 118.5t-98.5 42.5q-58 0 -94 -36.5t-36 -89.5zM135 247q46 -54 113 -95.5t167 -84.5q24 32 42 63t33 62q-84 19 -151.5 43.5
t-118.5 52.5q-19 -11 -41 -21z" />
    <glyph glyph-name="quotesingle" unicode="'" horiz-adv-x="173" 
d="M109 426h-39l-45 271v53h123v-53z" />
    <glyph glyph-name="parenleft" unicode="(" horiz-adv-x="319" 
d="M298 763l21 -13q-39 -74 -63 -132t-37 -107t-17.5 -93.5t-4.5 -91.5q0 -46 4.5 -91t18 -95t37.5 -108t62 -130l-21 -13q-66 76 -114.5 134.5t-80 108.5t-46.5 96.5t-15 97.5t15 97.5t46.5 96.5t80 108.5t114.5 134.5z" />
    <glyph glyph-name="parenright" unicode=")" horiz-adv-x="319" 
d="M21 763q66 -76 114.5 -134.5t80 -108.5t46.5 -96.5t15 -97.5t-15 -97.5t-46.5 -96.5t-80 -108.5t-114.5 -134.5l-21 13q38 72 62 130t37.5 108t18 95t4.5 91q0 47 -4.5 91.5t-17.5 93.5t-37 107t-63 132z" />
    <glyph glyph-name="asterisk" unicode="*" horiz-adv-x="513" 
d="M93 422l40 117q-1 2 -1.5 4t-1.5 4l-100 46l100 45q1 2 1.5 4t1.5 3l-40 115l109 -44q3 1 6 2.5l5 2.5l44 99l44 -99q3 -1 6 -2.5l5 -2.5l109 44l-39 -112q1 -3 2.5 -6t2.5 -6l96 -43l-96 -44q-1 -3 -2.5 -6t-2.5 -6l39 -115l-109 45q-3 -1 -6 -2.5t-7 -2.5l-42 -98
l-42 98q-4 1 -7 2.5t-6 2.5zM257 506q36 0 61.5 25.5t25.5 60.5q0 36 -25.5 60.5t-61.5 24.5q-35 0 -59.5 -24.5t-24.5 -60.5q0 -35 24.5 -60.5t59.5 -25.5z" />
    <glyph glyph-name="plus" unicode="+" horiz-adv-x="550" 
d="M248 85v220h-220v55h220v219h55v-219h219v-55h-219v-220h-55z" />
    <glyph glyph-name="comma" unicode="," horiz-adv-x="275" 
d="M250 -14q0 -37 -11 -73t-37 -70.5t-70.5 -68.5t-110.5 -67l-30 94q67 35 114 65t81 67l-151 93l84 148q22 -11 45 -29t42 -41.5t31.5 -53.5t12.5 -64z" />
    <glyph glyph-name="hyphen" unicode="-" horiz-adv-x="342" 
d="M14 142l10 63l32 3l197 73l-239 -24l10 63l32 3l197 73l-239 -24l10 63l304 30l-10 -63h-1l-190 -72l201 20l-10 -63h-1l-190 -72l201 20l-10 -63z" />
    <glyph glyph-name="period" unicode="." horiz-adv-x="282" 
d="M25 99l116 115l116 -115l-116 -117z" />
    <glyph glyph-name="slash" unicode="/" horiz-adv-x="351" 
d="M0 -116l250 866h101l-250 -866h-101z" />
    <glyph glyph-name="zero" unicode="0" horiz-adv-x="665" 
d="M33 350q0 81 45 159t132 140l44 116q115 -18 188.5 -59t115 -92t57 -107.5t15.5 -104.5q0 -82 -39.5 -164t-126.5 -145l-28 -110q-77 10 -150 37.5t-129 73t-90 110t-34 146.5zM101 389q0 -61 29.5 -104.5t77.5 -73.5t110 -48t125 -28q63 44 89.5 103t26.5 116
q0 34 -14.5 72.5t-50.5 74.5t-97.5 67t-154.5 49q-73 -45 -107 -101t-34 -127zM216 375l116 115l116 -115l-116 -117z" />
    <glyph glyph-name="one" unicode="1" horiz-adv-x="405" 
d="M167 0l19 383l-9 226q-40 -31 -81.5 -56t-87.5 -44l-18 77q78 30 143.5 69t131.5 99l3 3h73v-99l-14 -275l12 -383h-172z" />
    <glyph glyph-name="two" unicode="2" horiz-adv-x="639" 
d="M66 0l-21 93l130 98q32 24 59.5 46.5t49.5 42.5q-111 21 -178 82t-67 164q0 51 21 95t57.5 75.5t86.5 49t107 17.5t104.5 -17.5t81 -47t52.5 -68.5t19 -81q0 -50 -19 -94.5t-60 -88t-107.5 -90.5t-161.5 -104l-76 -45l190 20h263v-147h-531zM94 518q0 -87 59.5 -133
t169.5 -65q42 46 61.5 92.5t19.5 101.5q0 71 -43 114.5t-116 43.5q-63 0 -107 -45.5t-44 -108.5z" />
    <glyph glyph-name="three" unicode="3" horiz-adv-x="561" 
d="M81 -11l-38 163q126 5 206 15t124.5 25t61 34.5t16.5 44.5q0 16 -11 35t-37 34t-71.5 25.5t-114.5 10.5h-57l-2 33l249 209l-118 -6h-231v138h454v-96l-283 -239q83 0 140 -17.5t91.5 -45.5t50 -62.5t15.5 -69.5q0 -53 -23.5 -92t-76 -66t-138 -44.5t-207.5 -28.5z" />
    <glyph glyph-name="four" unicode="4" horiz-adv-x="584" 
d="M49 190v2l-1 -2l-30 37l186 523h195l-329 -524l263 27l-47 214h190l-47 -204l147 15v-88h-150l48 -190h-192l52 190h-285z" />
    <glyph glyph-name="five" unicode="5" horiz-adv-x="551" 
d="M93 -30l-38 155q129 21 210.5 43t126.5 45.5t61 48.5t16 52q0 48 -37 78t-114 30q-56 0 -112 -23.5t-107 -60.5h-35v412h426v-148h-396l48 -185q40 22 83.5 35t92.5 13q91 0 148 -48.5t57 -147.5q0 -59 -22.5 -106t-72.5 -84t-133 -64t-202 -45z" />
    <glyph glyph-name="six" unicode="6" horiz-adv-x="620" 
d="M589 233q0 -56 -19 -102t-52 -77.5t-78 -49t-96 -17.5q-71 0 -127.5 24t-95.5 65t-60 97t-21 119t19.5 129t69.5 127.5t136 117t218 97.5l44 -149q-114 -33 -184.5 -71.5t-107.5 -79t-46.5 -83t-2.5 -85.5q41 77 98 112.5t115 35.5q40 0 74.5 -13.5t60 -40t40.5 -66
t15 -90.5zM381 316q-59 0 -110 -15.5t-104 -51.5q3 -60 57.5 -104t144.5 -44q75 0 125.5 33t50.5 86q0 47 -44 71.5t-120 24.5z" />
    <glyph glyph-name="seven" unicode="7" horiz-adv-x="543" 
d="M288 -5l-198 5l361 654q-42 -22 -92 -37.5t-101 -15.5h-229v147h491v-52z" />
    <glyph glyph-name="eight" unicode="8" horiz-adv-x="629" 
d="M317 -21q-149 46 -218 103.5t-69 126.5q0 56 49 105t136 71q-76 14 -115 48.5t-39 85.5q0 31 11.5 59.5t39.5 57t76.5 61t121.5 72.5q137 -48 197.5 -104t60.5 -121q0 -54 -40 -92.5t-98 -57.5q81 -12 125 -47t44 -89q0 -65 -66.5 -134.5t-215.5 -144.5zM162 540
q0 -57 47.5 -94t122.5 -43q65 5 98 34t33 69q0 20 -9 39t-35.5 37.5t-76 37t-129.5 36.5q-26 -28 -38.5 -58t-12.5 -58zM166 255q0 -23 12 -43.5t42.5 -39t83 -36t132.5 -33.5q30 28 44 61t14 66q0 30 -14 55t-37.5 43.5t-55.5 30t-68 15.5q-81 -6 -117 -41t-36 -78z" />
    <glyph glyph-name="nine" unicode="9" horiz-adv-x="620" 
d="M31 517q0 56 19 102t52 77.5t78 49t96 17.5q71 0 127.5 -24t95.5 -65t60 -97t21 -119t-19.5 -129t-69.5 -127.5t-136 -117t-218 -97.5l-44 149q114 33 184.5 71.5t107.5 79t46.5 83t2.5 85.5q-41 -77 -98 -112.5t-115 -35.5q-40 0 -74.5 13.5t-60 40t-40.5 66t-15 90.5z
M239 434q59 0 110 15.5t104 51.5q-3 60 -57.5 104t-144.5 44q-75 0 -125.5 -33t-50.5 -86q0 -47 44 -71.5t120 -24.5z" />
    <glyph glyph-name="colon" unicode=":" horiz-adv-x="282" 
d="M25 99l116 115l116 -115l-116 -117zM25 484l116 115l116 -115l-116 -117z" />
    <glyph glyph-name="semicolon" unicode=";" horiz-adv-x="282" 
d="M25 475l116 115l116 -115l-116 -117zM250 -14q0 -37 -11 -73t-37 -70.5t-70.5 -68.5t-110.5 -67l-30 94q67 35 114 65t81 67l-151 93l84 148q22 -11 45 -29t42 -41.5t31.5 -53.5t12.5 -64z" />
    <glyph glyph-name="less" unicode="&#x3c;" horiz-adv-x="550" 
d="M28 365l489 215v-70l-424 -177l424 -178v-70l-489 215v65z" />
    <glyph glyph-name="equal" unicode="=" horiz-adv-x="550" 
d="M28 480h494v-55h-494v55zM28 240h494v-55h-494v55z" />
    <glyph glyph-name="greater" unicode="&#x3e;" horiz-adv-x="550" 
d="M522 365v-65l-489 -215v70l424 178l-424 177v70z" />
    <glyph glyph-name="question" unicode="?" horiz-adv-x="583" 
d="M160 196l-26 42l111 71l12 8t11 8q-101 26 -155 88t-54 136q0 47 17.5 86.5t48.5 67.5t73 44t91 16q52 0 95 -15.5t73.5 -41t47 -60t16.5 -72.5q0 -40 -10 -74.5t-36 -68.5t-70.5 -71t-112.5 -80zM105 545q0 -57 49 -110.5t154 -75.5q31 32 45.5 68.5t14.5 79.5
q0 72 -42 122t-105 50q-49 0 -82.5 -33.5t-33.5 -100.5zM162 99l116 115l116 -115l-116 -117z" />
    <glyph glyph-name="at" unicode="@" horiz-adv-x="907" 
d="M764 -85q-79 -40 -155 -59t-146 -19q-102 0 -181.5 31t-133 87t-81 134t-27.5 172t31 173.5t88 136.5t137.5 89t179.5 32q79 0 151 -22.5t126 -68t86 -116.5t32 -168q0 -71 -19.5 -133t-56.5 -107.5t-92.5 -72t-127.5 -26.5q-32 0 -61 5.5t-42 9.5l1 11v3l3 29l4 38
q-23 -52 -60 -74t-81 -22q-34 0 -60 15t-41.5 39.5t-21 56t0.5 64.5q31 19 58 34.5t49 29.5q-34 57 -49 128t-17 147q34 10 76 19t85 15t84.5 9.5t73.5 3.5q24 0 44.5 -1.5t34.5 -3.5q1 -39 -0.5 -88t-6.5 -100q-5 -52 -12 -109.5t-12 -95.5l3 -114q87 16 140 89t53 201
q0 85 -28 148t-75.5 103t-111 59.5t-134.5 19.5q-93 0 -164.5 -29.5t-119.5 -81t-73 -122.5t-25 -153q0 -92 26 -163t74 -119t118 -72.5t157 -24.5q75 0 145 18t133 55zM430 262q-21 -19 -39.5 -35t-43.5 -35q1 -63 24 -98.5t52 -35.5q18 0 32 20.5t25 58t19.5 90.5
t14.5 116l15 148q-46 -8 -107.5 -27.5t-127.5 -49.5q15 -35 47.5 -69.5t87.5 -80.5z" />
    <glyph glyph-name="A" unicode="A" horiz-adv-x="690" 
d="M297 -15q-43 10 -82.5 32t-70.5 51t-52 63t-28 67q52 32 98.5 70t82.5 78q-51 9 -94.5 30.5t-74.5 51t-48.5 67t-17.5 78.5q0 85 56 137t147 52q31 0 60 -8.5t54 -23.5l94 36l259 -764l-177 -11l-51 175zM52 568q0 -70 56.5 -125t157.5 -72q34 42 53.5 84.5t19.5 82.5
q0 75 -42 120t-108 45q-54 0 -95.5 -37.5t-41.5 -97.5zM377 426q-24 -46 -60.5 -84t-81.5 -64l183 7zM185 243q28 -40 69.5 -70.5t110.5 -60.5l77 90l-12 41h-245z" />
    <glyph glyph-name="B" unicode="B" horiz-adv-x="652" 
d="M632 250q0 -56 -27.5 -103t-98.5 -80.5t-195 -52.5t-316 -19l138 136l13 247l-10 249l-140 130q33 2 68 4t68 2q124 0 210.5 -20.5t139 -53t76.5 -74.5t24 -85q0 -37 -19.5 -70t-57.5 -55q67 -26 97 -67t30 -88zM501 489q0 19 -8.5 41t-30.5 42t-61.5 35t-100.5 20
l-10 -186q49 -1 91 -6.5t76 -14.5q22 12 33 30t11 39zM583 235q0 45 -66 78t-229 40l7 -213q87 4 143 12t88 20.5t44.5 28t12.5 34.5z" />
    <glyph glyph-name="C" unicode="C" horiz-adv-x="549" 
d="M428 280v300q-29 6 -62.5 9.5t-60.5 3.5q-111 0 -173.5 -38t-62.5 -128q0 -56 33.5 -99.5t93 -75t142 -51.5t178.5 -29l-28 -182q-103 5 -189.5 37.5t-148.5 86.5t-96.5 127.5t-34.5 159.5q0 79 34 147t95 116.5t145.5 75t184.5 23.5v-469z" />
    <glyph glyph-name="D" unicode="D" horiz-adv-x="672" 
d="M207 9l-204 -22l133 174l14 215l-22 216l-134 172q148 0 270.5 -30t208.5 -84t134 -129.5t48 -166.5q0 -63 -25 -120t-78.5 -102.5t-139 -77.5t-205.5 -45zM275 376l12 -209q91 5 152 19.5t98 36t52.5 48t15.5 55.5q0 40 -22.5 78.5t-63.5 70.5t-99.5 58t-130.5 41z" />
    <glyph glyph-name="E" unicode="E" horiz-adv-x="575" 
d="M-5 55l135 80v10l16 170l-13 308l-122 137l569 -44l-74 -132l-217 37l-17 -305l59 70h164l-55 -128q-14 1 -35 4t-44 7t-46.5 9t-41.5 10l23 -182l250 19l-57 -135q-151 2 -270.5 19t-223.5 46z" />
    <glyph glyph-name="F" unicode="F" horiz-adv-x="579" 
d="M285 0l-172 -4l22 372l-12 251l-128 141l604 -55l-205 -319h127l4 -4l-100 -124l-158 14zM261 386h89l118 186l-192 40z" />
    <glyph glyph-name="G" unicode="G" horiz-adv-x="677" 
d="M662 336q0 -74 -40.5 -156t-125.5 -190q-96 6 -183 36.5t-152 84t-103.5 130.5t-38.5 174q0 66 34 129t94.5 111.5t145 78t184.5 29.5h21v-255h3q32 0 61.5 -11.5t51.5 -33t35 -54t13 -73.5zM302 316l-13 10q35 72 74 115.5t85 58.5v80q-29 6 -62.5 9.5t-60.5 3.5
q-118 0 -186.5 -41.5t-68.5 -128.5q0 -54 36.5 -97.5t100.5 -76t153.5 -55t194.5 -35.5q10 24 17 49t7 51q0 54 -39 84.5t-96 30.5q-46 0 -81 -16t-61 -42z" />
    <glyph glyph-name="H" unicode="H" horiz-adv-x="704" 
d="M55 0l19 378l-15 372h170v-99l-10 -186h271l-11 285h170v-99l-14 -273l12 -378h-172l15 301h-273l10 -301h-172zM215 378l1 -23h277l1 23l-1 33h-276z" />
    <glyph glyph-name="I" unicode="I" horiz-adv-x="292" 
d="M64 0l19 378l-9 227l-65 153l224 -7v-100l-14 -273l12 -378h-167z" />
    <glyph glyph-name="J" unicode="J" horiz-adv-x="488" 
d="M75 574l20 176h338l-32 -372l23 -227q-27 -86 -74 -125t-119 -39t-121.5 30.5t-82.5 79.5l86 109q54 -57 97.5 -89t95.5 -58l-40 158l11 189l-12 268z" />
    <glyph glyph-name="K" unicode="K" horiz-adv-x="650" 
d="M55 0l19 278l-15 472h176v-99l-9 -244h133q45 0 71 14t26 41q0 24 -14.5 45t-32 43t-32 46t-14.5 54q0 49 44.5 75.5t141.5 37.5l11 -32q-32 -10 -40.5 -21.5t-8.5 -23.5q0 -16 10.5 -34t22.5 -38t22.5 -42t10.5 -46q0 -37 -24 -70.5t-78 -67.5l158 -388h-188l-114 353
l-108 -9l-2 -66l12 -278h-178z" />
    <glyph glyph-name="L" unicode="L" horiz-adv-x="554" 
d="M6 72l114 79l16 217l-11 223l-67 159l229 -7l-28 -375l22 -229q35 -2 80.5 -1t107.5 5v124l50 20v-295h-1v-3q-152 4 -270 20t-242 63z" />
    <glyph glyph-name="M" unicode="M" horiz-adv-x="817" 
d="M58 0l15 398l-29 362l21 3l343 -301l343 301l21 -3l-29 -362l15 -398h-172l100 520l-218 -195l19 -325h-157l17 324l-226 198l109 -522h-172z" />
    <glyph glyph-name="N" unicode="N" horiz-adv-x="663" 
d="M50 0l25 352l-19 408l31 3l454 -519l-84 512l156 7l-24 -763h-24l-440 506l92 -506h-167z" />
    <glyph glyph-name="O" unicode="O" horiz-adv-x="705" 
d="M20 298q0 59 30 113t96 97h35q13 66 45.5 131.5t82.5 123.5q113 -17 185.5 -56t113.5 -88t56.5 -102.5t15.5 -99.5q0 -76 -40.5 -152t-124.5 -136l-45 -143q-74 10 -153.5 32t-145 58.5t-108.5 91.5t-43 130zM353 257l-111 -47q51 -18 113.5 -29.5t125.5 -21.5
q53 37 78 85t25 102q0 103 -77.5 171t-246.5 99q-4 -15 -5.5 -30t-1.5 -31q0 -68 24.5 -142.5t75.5 -155.5zM100 350q0 -46 31 -77t82 -52q-19 48 -30 97t-11 98q0 18 1.5 35.5t3.5 35.5q-40 -36 -58.5 -68.5t-18.5 -68.5z" />
    <glyph glyph-name="P" unicode="P" horiz-adv-x="657" 
d="M163 1l8 183l-165 -18l171 155l3 57l-28 232l-137 154q304 -10 463.5 -74t159.5 -196q0 -113 -82 -186.5t-240 -104.5l11 -203zM306 382l3 -50l51 2q70 3 113.5 12t67.5 23t32 33.5t8 42.5q0 29 -21 53.5t-56.5 43t-84 32.5t-103.5 22z" />
    <glyph glyph-name="Q" unicode="Q" horiz-adv-x="736" 
d="M20 298q0 59 30 113t96 97h36q13 67 45 132t82 123q113 -17 185.5 -56.5t113.5 -89t56.5 -104t15.5 -101.5q0 -44 -11 -89t-34.5 -86.5t-59.5 -79t-85 -66.5q60 -12 123 -22t126 -19l-38 -147q-111 15 -232 43t-220 74t-164 114t-65 164zM100 350q0 -49 24 -87t65.5 -67
t99 -50.5t123.5 -37.5q90 37 131 99.5t41 133.5q0 103 -78 171t-247 99q-3 -15 -4.5 -30t-1.5 -31q0 -68 24.5 -142.5t75.5 -155.5l-131 -56q-24 52 -37 106.5t-13 108.5q0 19 1.5 38t4.5 38q-41 -35 -59.5 -68t-18.5 -69z" />
    <glyph glyph-name="R" unicode="R" horiz-adv-x="696" 
d="M139 0l19 207l-167 -12l179 153l-33 262l-137 154q304 -10 463.5 -74t159.5 -196q0 -72 -39.5 -126t-116.5 -89l219 -279h-181l-174 235q-8 -2 -17 -4t-18 -3l7 -228h-164zM291 402l2 -50l52 2q70 3 113.5 10.5t67.5 19t32 27t8 34.5q0 29 -21 53.5t-56.5 43t-84 32.5
t-103.5 22z" />
    <glyph glyph-name="S" unicode="S" horiz-adv-x="616" 
d="M588 206q0 -113 -76.5 -166t-202.5 -53q-134 0 -212.5 44t-78.5 120q0 56 36 108t111 101q-43 33 -71 79.5t-28 112.5q0 41 16 79t48 67.5t80.5 47t112.5 17.5q47 0 90.5 -12t77 -34t53.5 -52.5t20 -67.5q0 -29 -10.5 -58t-23.5 -56.5t-26 -54t-18 -51.5q44 -33 73 -75
t29 -96zM139 615q0 -32 31 -58.5t77.5 -51t102.5 -50.5t105 -57q2 68 -15 120.5t-48.5 87.5t-75.5 53.5t-97 18.5q-43 0 -61.5 -18t-18.5 -45zM106 229q0 -27 29.5 -56t73.5 -53t97 -39.5t100 -15.5q48 0 72.5 15t24.5 46q0 32 -22 56t-56.5 44t-78.5 38t-88 40
q-85 -7 -118.5 -28t-33.5 -47z" />
    <glyph glyph-name="T" unicode="T" horiz-adv-x="709" 
d="M260 0l19 378l-3 67l-246 -111l20 176h224l-7 171l-237 -107l20 176h607l22 -176l-239 109v-32l-7 -141h224l22 -176l-249 114l-4 -70l12 -378h-178z" />
    <glyph glyph-name="U" unicode="U" horiz-adv-x="685" 
d="M25 166q91 90 150 157t59 130q0 44 -36.5 87t-142.5 63l69 160q110 0 164 -43.5t54 -116.5q0 -82 -43 -168t-110 -173q16 -66 61 -99t97 -33q75 0 101 76.5t21 213.5l-13 330h170v-99l-14 -273l12 -378h-172l8 150q-17 -43 -43.5 -74t-57 -51t-63 -29t-60.5 -9
q-75 0 -135 49t-76 130z" />
    <glyph glyph-name="V" unicode="V" horiz-adv-x="758" 
d="M732 522q0 -77 -24.5 -144.5t-70 -130t-112 -123t-149.5 -124.5h-55v74q0 85 -12 149t-40 125t-75.5 131t-118.5 169l-50 -31l-17 44l137 83l33 20q34 -49 64 -92t56 -83q42 86 99 128.5t125 42.5q40 0 78 -14t67 -43t47 -74t18 -107zM432 614q-37 0 -66 -14.5t-47 -43.5
q63 -100 101 -183t51 -167q94 22 134 72.5t40 122.5q0 50 -19 90t-49.5 67t-68.5 41.5t-76 14.5z" />
    <glyph glyph-name="W" unicode="W" horiz-adv-x="1131" 
d="M665 94l-43 181q-52 -81 -118 -147.5t-151 -127.5h-55v74q0 85 -11.5 149t-37.5 125t-69.5 131t-106.5 168l-48 -30l-17 44l137 83l33 20q28 -45 54 -86.5t48 -78.5q41 81 96 122.5t118 41.5q66 0 119 -44.5t79 -116.5q42 86 99.5 123.5t127.5 37.5q38 0 72 -14t59 -41
t40 -67.5t15 -93.5q0 -84 -27 -158.5t-74.5 -141.5t-115 -130t-148.5 -125l-53 -5zM829 614q-41 0 -72 -17.5t-48 -53.5l84 -339q99 12 158 60t59 130q0 101 -52.5 160.5t-128.5 59.5zM409 614q-34 0 -61.5 -13t-46.5 -38q60 -101 96.5 -184.5t49.5 -167.5q47 12 77.5 33.5
t48.5 47.5t25 53.5t7 51.5q0 104 -53.5 160.5t-142.5 56.5z" />
    <glyph glyph-name="X" unicode="X" horiz-adv-x="645" 
d="M646 142l-59 -157q-131 46 -212.5 98t-114.5 115q-30 -40 -85 -90.5t-154 -120.5l-26 44q70 50 114.5 87t69.5 67t34 57.5t9 59.5q0 34 -8.5 65t-32 69t-66 88t-109.5 122l130 115l150 -171q94 94 143.5 133t77.5 39q23 0 44 -11t37 -28t28 -38.5t17 -42.5l-114 -115
q-26 52 -53 78.5t-56 26.5q-40 0 -59.5 -48.5t-19.5 -119.5v-11q0 -56 14 -100.5t49 -81.5t96.5 -68.5t155.5 -60.5z" />
    <glyph glyph-name="Y" unicode="Y" horiz-adv-x="708" 
d="M678 218q0 -49 -21 -91t-60.5 -73t-97 -49t-131.5 -18q-124 0 -196 51.5t-72 143.5q0 52 29.5 87t83.5 51l-10 56q-12 66 -36 128t-61 125l-20 35l-61 -10l-18 51l80 11l146 21q16 -38 31.5 -74.5t28.5 -71.5q11 73 58.5 122.5t116.5 49.5q43 0 78 -16t60 -43.5t39 -64.5
t14 -78q0 -52 -14.5 -110t-64.5 -110q42 -17 70 -48.5t28 -74.5zM413 611q-35 0 -63 -18t-38 -55q18 -51 34 -102.5t30 -103.5h19q89 1 130.5 33t41.5 92q0 38 -14 67t-36 48t-50 29t-54 10zM198 96q0 -18 15 -28.5t46 -10.5q50 0 103.5 15.5t97 43t71.5 67t28 86.5
q0 11 -1.5 22.5t-5.5 23.5q-27 -22 -63.5 -43t-84.5 -39q-71 -27 -112.5 -47.5t-62 -37t-26 -29t-5.5 -23.5z" />
    <glyph glyph-name="Z" unicode="Z" horiz-adv-x="681" 
d="M9 12l415 665l-268 -74l-49 -89l-37 14q28 54 53 113t47 122l156 -26q81 -13 132.5 -16.5t83 0t48.5 14t30 25.5l28 -15l-403 -644q176 -36 266 44.5t68 299.5l37 21q34 -163 25.5 -258.5t-37 -144.5t-68 -62.5t-67.5 -13.5q-47 0 -97.5 12.5t-96 28t-82.5 28t-57 12.5
q-25 0 -46 -15.5t-52 -58.5z" />
    <glyph glyph-name="bracketleft" unicode="[" horiz-adv-x="343" 
d="M65 -115v878h266v-35h-121v-808h121v-35h-266z" />
    <glyph glyph-name="backslash" unicode="\" horiz-adv-x="351" 
d="M351 -116h-101l-250 866h101z" />
    <glyph glyph-name="bracketright" unicode="]" horiz-adv-x="353" 
d="M278 -115h-266v35h121v808h-121v35h266v-878z" />
    <glyph glyph-name="asciicircum" unicode="^" horiz-adv-x="550" 
d="M235 731l73 19l214 -539l-90 1l-163 430l-161 -430l-80 -1z" />
    <glyph glyph-name="underscore" unicode="_" horiz-adv-x="540" 
d="M0 -55h540v-70h-540v70z" />
    <glyph glyph-name="grave" unicode="`" 
d="M317 655l-209 213h151l83 -213h-25z" />
    <glyph glyph-name="a" unicode="a" horiz-adv-x="493" 
d="M301 -12v105q-21 -54 -57 -80t-82 -26q-40 0 -69.5 16t-48 41.5t-26.5 59.5t-5 70q32 22 60.5 38t50.5 31q-41 63 -63 140.5t-31 160.5q35 13 77.5 22.5t86.5 15.5t87 8.5t80 2.5q25 0 47 -1.5t37 -3.5q4 -43 6.5 -97.5t2.5 -111.5q0 -54 -2.5 -115t-3.5 -101l19 -164z
M232 291q-19 -19 -36.5 -33.5t-41.5 -35.5q7 -68 33.5 -107t55.5 -39q18 0 30.5 22t19.5 61t10.5 94.5t3.5 122.5v151q-57 -12 -113 -34.5t-105 -48.5q25 -43 58.5 -78t83.5 -73z" />
    <glyph glyph-name="b" unicode="b" horiz-adv-x="546" 
d="M39 -16l10 394l-19 402l21 3l28 -94l106 99l9 -4v-155l-5 -157q41 54 88 87.5t95 33.5q65 0 109 -56.5t44 -178.5q0 -194 -122.5 -281t-350.5 -92zM286 503q-13 0 -29.5 -11.5t-31 -47t-24 -103t-9.5 -177.5l3 -97q16 -5 33 -8t35 -3q24 0 42.5 10t32 35.5t20.5 71
t7 115.5q0 118 -19.5 166.5t-59.5 48.5z" />
    <glyph glyph-name="c" unicode="c" horiz-adv-x="382" 
d="M56 352q0 -66 72 -106t234 -80l-34 -179q-78 23 -136.5 59t-97 82t-58 99.5t-19.5 110.5q0 54 24 100.5t66.5 81t101.5 54t127 19.5l-23 -178q-44 12 -78 16.5t-59 4.5q-57 0 -88.5 -22t-31.5 -62z" />
    <glyph glyph-name="d" unicode="d" horiz-adv-x="547" 
d="M503 775v-45l-8 -177q0 -174 5.5 -304.5t16.5 -249.5l-159 -10v139q-43 -60 -95.5 -100.5t-98.5 -40.5q-60 0 -101.5 56.5t-41.5 179.5q0 164 83.5 252t243.5 115l-3 140h-182v45h340zM181 282q0 -116 23 -156t57 -40q12 0 28.5 10.5t30.5 39.5t24 81t10 133l-4 168
q-19 6 -37 9.5t-37 3.5q-22 0 -39.5 -11.5t-30 -40t-19 -77t-6.5 -120.5z" />
    <glyph glyph-name="e" unicode="e" horiz-adv-x="449" 
d="M417 166l-34 -179q-187 46 -275 130t-88 212q0 57 22 105.5t60 83.5t90 55t112 20l48 42l24 -27q-21 -13 -32 -34t-11 -46q0 -29 17.5 -62t54.5 -63l26 7l8 -44l-345 -90q37 -34 116 -61.5t207 -48.5zM59 350q0 -9 1.5 -18t5.5 -18l184 48q-16 21 -23.5 41.5t-8.5 46.5
q-12 3 -23.5 4.5t-21.5 1.5q-51 0 -82.5 -30t-31.5 -76z" />
    <glyph glyph-name="f" unicode="f" horiz-adv-x="342" 
d="M121 3q0 -47 31.5 -83t97.5 -71l-23 -35q-77 38 -116 82.5t-39 113.5q0 44 14.5 79t32.5 64t32.5 54t14.5 49q0 34 -21 62.5t-48 57.5t-52.5 60.5t-33.5 70.5h-118v48h116q5 45 33 87t71 74.5t99 52t118 19.5q56 0 94.5 -22.5t38.5 -53.5t-19 -56.5t-30 -50.5
q-8 -19 -10 -37t-3 -35h-27l-2 31q-2 31 -19.5 55t-44 40t-60 24t-67.5 8q-37 0 -57 -17.5t-20 -42.5q0 -18 13 -37t32 -39h178v-48h-128q21 -19 41 -38.5t36 -39.5t26 -40.5t10 -41.5q0 -40 -30 -76.5t-65.5 -75.5t-65.5 -85.5t-30 -106.5z" />
    <glyph glyph-name="g" unicode="g" horiz-adv-x="461" 
d="M474 -19q0 -34 -30.5 -64.5t-79.5 -53t-110.5 -36t-122.5 -13.5q-28 0 -54 5t-45.5 16t-31.5 27.5t-12 40.5q0 45 35 83.5t91 81.5q-23 16 -37.5 32.5t-14.5 31.5q0 23 28 46.5t81 48.5q-22 6 -49 18.5t-50 33t-38.5 49t-15.5 65.5q0 43 17 80t45.5 63.5t66.5 41.5t81 15
q44 0 82 -16.5t65.5 -42.5t43 -59t15.5 -65q0 -26 -9.5 -45t-21 -39.5t-21 -46.5t-10.5 -65l-2 -122q42 -23 73 -50.5t31 -60.5zM110 495q0 -31 15.5 -63.5t44 -60.5t70.5 -49t94 -30q-6 41 -23 83t-42.5 76t-58 56t-67.5 22q-17 0 -25 -10.5t-8 -23.5zM202 200
q0 -10 12 -21t32 -23t45.5 -24.5t51.5 -25.5q-1 33 -2 78.5t-4 84.5q-53 -21 -94 -34.5t-41 -34.5zM63 -20q0 -18 18 -35.5t49 -30.5t72 -21t87 -8q40 0 49 7t9 15q0 13 -18 29t-45.5 33t-60.5 35t-64 36q-54 -18 -75 -31t-21 -29z" />
    <glyph glyph-name="h" unicode="h" horiz-adv-x="538" 
d="M39 0l10 378l-19 402l21 3l28 -94l106 99l9 -4v-155l-6 -174q37 78 82.5 109t88.5 31t88 -33.5t76 -100.5q-6 -15 -12.5 -39t-12 -50t-9 -51.5t-2.5 -44.5l11 -276h-161l19 403q-10 37 -32 65.5t-44 28.5q-43 0 -65 -82t-24 -229l5 -186h-157z" />
    <glyph glyph-name="i" unicode="i" horiz-adv-x="237" 
d="M212 865q-7 -25 -16.5 -59.5t-19.5 -71.5t-19.5 -72.5t-16.5 -61.5q-28 0 -52 14t-39.5 38t-22 54.5t-0.5 63.5q37 18 71 20.5t61 2.5l18 83q10 1 20.5 -2t15.5 -9zM200 0h-161l20 302l-33 219l159 26q7 -135 11 -272.5t4 -274.5z" />
    <glyph glyph-name="j" unicode="j" horiz-adv-x="240" 
d="M207 870q-7 -25 -16.5 -59.5t-19.5 -71.5t-19.5 -72.5t-16.5 -61.5q-28 0 -52 14t-39.5 38t-22 54.5t-0.5 63.5q37 18 71 20.5t61 2.5l18 83q10 1 20.5 -2t15.5 -9zM34 -184q6 74 14 191.5t8 254.5q0 54 -7.5 121.5t-17.5 141.5l157 28q-2 -55 0 -111.5t6.5 -108
t9.5 -95.5t9 -74q0 -53 -20 -105.5t-45 -98.5q-23 -42 -47.5 -80.5t-37.5 -67.5z" />
    <glyph glyph-name="k" unicode="k" horiz-adv-x="536" 
d="M39 0l10 378l-19 402l21 3l28 -94l106 99l9 -4v-155l-6 -323v-27h24q80 0 107 29.5t27 80.5q0 37 -27.5 61.5t-73.5 27.5l-5 15q25 42 61.5 71t76.5 29q32 0 57.5 -27.5t25.5 -75.5q0 -47 -34.5 -102t-83.5 -101l193 -287h-180l-137 236h-30l1 -52l6 -184h-157z" />
    <glyph glyph-name="l" unicode="l" horiz-adv-x="226" 
d="M39 0l10 378l-19 402l21 3l28 -94l106 99l9 -4v-155l-8 -245l10 -384h-157z" />
    <glyph glyph-name="m" unicode="m" horiz-adv-x="817" 
d="M38 0l19 189l-39 372l163 26l8 -95l1 -41q34 80 76 112t83 32q38 0 77.5 -25.5t70.5 -76.5q31 56 67 79t71 23q43 0 88 -33.5t76 -100.5q-6 -15 -12.5 -39t-12 -50t-9 -51.5t-2.5 -44.5l11 -276h-161l19 403q-9 37 -31.5 65.5t-44.5 28.5q-38 0 -56 -89.5t-18 -248.5
l6 -159h-161l19 403q-9 37 -31.5 65.5t-44.5 28.5q-38 0 -56 -89.5t-18 -248.5l3 -159h-161z" />
    <glyph glyph-name="n" unicode="n" horiz-adv-x="543" 
d="M38 0l13 311l-33 250l163 26l8 -95l1 -45q37 82 83.5 115t90.5 33q43 0 88 -33.5t76 -100.5q-6 -15 -12.5 -39t-12 -50t-9 -51.5t-2.5 -44.5l11 -276h-161l19 403q-10 37 -32 65.5t-44 28.5q-46 0 -67.5 -89.5t-21.5 -248.5l3 -159h-161z" />
    <glyph glyph-name="o" unicode="o" horiz-adv-x="547" 
d="M298 621l27 -28q-16 -14 -25 -24t-9 -23q0 -20 38 -50.5t82.5 -70t82.5 -90t38 -110.5q0 -52 -28.5 -90t-68 -66t-84 -48t-75.5 -36q-56 17 -103 40t-81 54t-53 70.5t-19 89.5q0 68 47 138.5t111 133.5q33 33 61 58.5t59 51.5zM151 355q0 -96 52.5 -161t169.5 -122
q6 13 10.5 31.5t4.5 43.5q0 73 -62 150.5t-161 148.5q-8 -22 -11 -45.5t-3 -45.5z" />
    <glyph glyph-name="p" unicode="p" horiz-adv-x="573" 
d="M15 -14l67 117q0 136 -3 234.5t-11 197.5l-54 -7v52l205 22v-124q40 51 86.5 83t93.5 32q65 0 109 -56.5t44 -178.5q0 -148 -83.5 -233t-239.5 -117l3 -138h152v-45h-374v45h64q1 25 3.5 56.5t3.5 62.5q-16 -1 -32.5 -1.5t-33.5 -1.5zM313 503q-12 0 -26.5 -12t-28 -45.5
t-23 -92t-11.5 -151.5l3 -124q16 -4 32 -7t31 -3q24 0 42.5 9.5t32 34t20.5 67.5t7 109q0 118 -19.5 166.5t-59.5 48.5z" />
    <glyph glyph-name="q" unicode="q" horiz-adv-x="533" 
d="M499 605l-13 -600v-178l-155 -18q7 73 11 149t5 160q-42 -56 -91 -93.5t-92 -37.5q-60 0 -101.5 56.5t-41.5 179.5q0 100 31 170t91.5 114.5t150 67.5t205.5 30zM181 282q0 -116 23 -156t57 -40q12 0 27 10.5t28.5 39.5t23 81t9.5 133v39q0 31 -1.5 60.5t-3.5 56.5
q-16 5 -33 8.5t-36 3.5q-22 0 -39.5 -10t-29.5 -36.5t-18.5 -72.5t-6.5 -117z" />
    <glyph glyph-name="r" unicode="r" horiz-adv-x="436" 
d="M43 -10l17 185l-50 407l159 34l7 -109l5 -102q43 126 94 181t96 55q18 0 37 -8t35 -21.5t26.5 -31.5t10.5 -39t-14 -39t-30.5 -45.5t-30.5 -72t-14 -118.5h-29q0 71 -7.5 115t-19 67.5t-24.5 31.5t-23 8q-43 0 -66 -102t-23 -328l3 -58z" />
    <glyph glyph-name="s" unicode="s" horiz-adv-x="473" 
d="M463 168q0 -40 -20.5 -73.5t-55.5 -57t-80.5 -37t-94.5 -13.5q-106 0 -151.5 35.5t-45.5 77.5q0 51 34 89t87 72q-39 28 -65 66t-26 94q0 34 15.5 65.5t43 55t64.5 37.5t79 14q40 0 74 -11.5t59 -30.5t39 -43t14 -49q0 -26 -7 -46.5t-17.5 -38t-21.5 -33t-20 -32.5
q40 -27 68 -61t28 -80zM116 481q0 -23 20.5 -42.5t52.5 -37t71.5 -35.5t76.5 -39q-1 43 -16 79t-38.5 61t-53 38.5t-58.5 13.5q-34 0 -44.5 -11t-10.5 -27zM101 172q0 -18 23.5 -37.5t59 -35.5t76.5 -26t76 -10q18 0 27 7t9 20q0 21 -12.5 37t-33.5 30t-48.5 27.5
t-56.5 27.5q-39 0 -62.5 -2.5t-36.5 -8t-17 -13t-4 -16.5z" />
    <glyph glyph-name="t" unicode="t" horiz-adv-x="463" 
d="M456 154q-57 -96 -105 -131.5t-104 -35.5q-29 0 -59.5 11.5t-54.5 33.5t-37 53.5t-8 70.5l18 141l-11 184l-83 22v19l209 183l18 -3l2 -129h206q-2 -17 -8 -44.5t-13 -52.5h-185l-5 -270q-1 -54 24.5 -78.5t62.5 -24.5q25 0 51 14.5t57 55.5z" />
    <glyph glyph-name="u" unicode="u" horiz-adv-x="535" 
d="M33 100q0 51 6.5 100.5t6.5 103.5l-11 273l161 16l-19 -416q10 -40 28 -70.5t37 -30.5q45 0 68 58t25 162l-6 281l161 16q-2 -29 -8 -74t-6 -98q0 -28 2 -74.5t6.5 -101.5t11 -115.5t14.5 -116.5l-164 -34l-7 109v17q-39 -55 -85.5 -86.5t-89.5 -31.5q-22 0 -45 12
t-42 29.5t-31.5 37t-12.5 34.5z" />
    <glyph glyph-name="v" unicode="v" horiz-adv-x="572" 
d="M185 -5l-6 109l-14 85q-20 69 -43.5 151t-55.5 151l-28 46l-59 -8v52l193 22q16 -33 29 -66t24 -67q40 69 79 99.5t90 30.5q30 0 58.5 -10t50 -31.5t35 -56.5t13.5 -85q0 -74 -25.5 -137.5t-69 -116t-101 -94.5t-120.5 -74h-50zM314 463q-28 0 -47 -7.5t-29 -22.5
q22 -72 40.5 -145t37.5 -145q74 25 118.5 62.5t44.5 92.5q0 36 -15 66.5t-38.5 52.5t-53 34t-58.5 12z" />
    <glyph glyph-name="w" unicode="w" horiz-adv-x="898" 
d="M185 -5l-6 109l-14 85q-20 69 -43.5 151t-55.5 151l-28 46l-59 -8v52l193 22q16 -33 29 -66t24 -67q40 69 79 99.5t90 30.5q52 0 97 -32t57 -106q40 73 80 105.5t93 32.5q30 0 58.5 -10t50 -31.5t35 -56.5t13.5 -85q0 -75 -23.5 -137.5t-65.5 -114t-100 -93.5t-127 -77
h-50l-5 92l-17 102q-1 3 -1.5 5.5t-1.5 5.5q-46 -69 -114.5 -118.5t-137.5 -86.5h-50zM314 463q-28 0 -47 -7.5t-29 -22.5q22 -72 40.5 -145t37.5 -145q74 25 118.5 62.5t44.5 92.5q0 36 -15 66.5t-38.5 52.5t-53 34t-58.5 12zM641 463q-30 0 -49.5 -8.5t-29.5 -24.5
q25 -64 45.5 -136.5t36.5 -150.5q73 25 117.5 62.5t44.5 92.5q0 36 -15 66.5t-38.5 52.5t-53 34t-58.5 12z" />
    <glyph glyph-name="x" unicode="x" horiz-adv-x="542" 
d="M579 131q-46 -75 -88.5 -109.5t-95.5 -34.5q-22 0 -48.5 8t-52 23t-50 36.5t-42.5 47.5q-34 -58 -98 -127.5t-161 -129.5l-14 27q71 54 113.5 98.5t64 82.5t28 72.5t6.5 69.5q0 42 -6 82.5t-21.5 85t-42.5 97t-68 119.5l140 77q28 -43 51 -86.5t39 -86.5
q67 63 107.5 87.5t63.5 24.5q40 0 74 -33.5t34 -70.5q0 -14 -10.5 -30t-26 -32t-34 -30.5t-35.5 -25.5l-8 3q0 50 -27 79t-65 29q-28 0 -39 -40.5t-11 -99.5v-28q0 -49 18.5 -87.5t47 -65.5t64 -41.5t69.5 -14.5q31 0 56.5 10t44.5 32z" />
    <glyph glyph-name="y" unicode="y" horiz-adv-x="531" 
d="M486 -44q0 -60 -52 -101t-139 -41q-52 0 -99.5 11.5t-83 33t-57 52.5t-21.5 69q0 55 33 96.5t86 72.5l-10 57q-20 72 -41.5 141t-52.5 144l-20 31l-89 -28v52l205 57q15 -31 28 -62.5t25 -62.5q32 58 70.5 90t89.5 32q65 0 111 -51t46 -144q0 -124 -65.5 -200.5
t-143.5 -125t-143.5 -81t-65.5 -70.5q0 -12 10 -17.5t27 -5.5q52 0 104.5 10t93.5 26t67 35.5t26 38.5q0 10 -8.5 22.5t-27.5 27.5l21 18q33 -22 54.5 -53.5t21.5 -73.5zM268 459q-19 0 -33.5 -4.5t-24.5 -11.5q25 -69 45 -139t39 -141q60 13 101.5 43.5t41.5 86.5
q0 41 -16 72t-40 52t-54.5 31.5t-58.5 10.5z" />
    <glyph glyph-name="z" unicode="z" horiz-adv-x="539" 
d="M10 18l303 482q-76 -20 -129 -40t-84 -36l-16 -89l-46 7q19 70 30 127t19 122l149 -24q46 -7 81.5 -11t60.5 -4q46 0 69.5 11t39.5 30l28 -15l-307 -497q7 -1 18 -1.5t18 -0.5q84 0 139.5 37t55.5 118q0 22 -6.5 47.5t-19.5 52.5l27 14q38 -43 61 -92.5t23 -94.5
q0 -80 -49.5 -127t-118.5 -47q-37 0 -74 8.5t-70 19t-61.5 19t-48.5 8.5q-21 0 -35.5 -10.5t-27.5 -31.5z" />
    <glyph glyph-name="braceleft" unicode="{" horiz-adv-x="365" 
d="M340 -112q-134 7 -193 39t-59 106q0 40 15.5 75t33.5 63.5t33.5 52t15.5 39.5q0 23 -20 35t-74 12h-27v31h27q54 0 74 12t20 35q0 16 -15.5 39.5t-33.5 52t-33.5 63.5t-15.5 75q0 74 59 106t193 39l5 -28q-64 -7 -90.5 -20.5t-26.5 -39.5q0 -27 12 -53t26.5 -52t26.5 -54
t12 -59q0 -60 -34 -90t-76 -42q42 -11 76 -41t34 -90q0 -31 -12 -59t-26.5 -54t-26.5 -52t-12 -53q0 -26 26.5 -39.5t90.5 -20.5z" />
    <glyph glyph-name="bar" unicode="|" horiz-adv-x="209" 
d="M65 -115v895h79v-895h-79z" />
    <glyph glyph-name="braceright" unicode="}" horiz-adv-x="365" 
d="M25 -112l-5 28q64 7 90.5 20.5t26.5 39.5q0 27 -12 53t-26.5 52t-26.5 54t-12 59q0 60 34 90t76 41q-42 12 -76 42t-34 90q0 31 12 59t26.5 54t26.5 52t12 53q0 26 -26.5 39.5t-90.5 20.5l5 28q134 -7 193 -39t59 -106q0 -40 -15.5 -75t-33.5 -63.5t-33.5 -52
t-15.5 -39.5q0 -23 20 -35t74 -12h27v-31h-27q-54 0 -74 -12t-20 -35q0 -16 15.5 -39.5t33.5 -52t33.5 -63.5t15.5 -75q0 -74 -59 -106t-193 -39z" />
    <glyph glyph-name="asciitilde" unicode="~" horiz-adv-x="550" 
d="M392 319q35 0 51.5 34t36.5 101l49 -20q-31 -93 -62 -131.5t-80 -38.5q-31 0 -61 19t-58 42t-55.5 42t-53.5 19q-34 0 -51 -33t-37 -102l-50 21q31 93 62.5 131t81.5 38q31 0 60.5 -19t57.5 -42t55.5 -42t53.5 -19z" />
    <glyph glyph-name="uni00A0" unicode="&#xa0;" horiz-adv-x="220" 
 />
    <glyph glyph-name="exclamdown" unicode="&#xa1;" horiz-adv-x="292" 
d="M30 476l116 117l116 -117l-116 -115zM125 320h42l75 -495h-192z" />
    <glyph glyph-name="cent" unicode="&#xa2;" horiz-adv-x="382" 
d="M178 -121v176q-81 53 -121 127t-40 156q0 73 44 132.5t117 91.5v152h36v-139q28 9 58.5 13.5t63.5 4.5l-23 -178q-29 8 -54 12.5t-45 6.5v-226q31 -10 68 -20.5t80 -21.5l-34 -179q-31 9 -60 21t-54 25v-154h-36zM56 352q0 -43 29.5 -74t92.5 -56v214h-2q-57 0 -88.5 -22
t-31.5 -62z" />
    <glyph glyph-name="sterling" unicode="&#xa3;" horiz-adv-x="550" 
d="M65 -30l-26 24q47 48 77 86.5t44.5 71.5t16 64t-6.5 65h-135v43h123q-1 1 -1.5 3.5t-1.5 3.5l-15 42h-96v43h80l-2 6q-14 38 -23 69.5t-9 59.5q0 87 60.5 133.5t154.5 78.5q60 -5 107 -30.5t85 -65.5l-96 -121q-52 49 -95 79.5t-103 58.5l93 -268h184v-43h-171
q4 -13 5.5 -25t1.5 -24h153v-43h-158q-10 -40 -42.5 -86.5t-91.5 -109.5l43 20q63 30 123 44.5t145 14.5l28 -176q-43 8 -96.5 14t-109 8.5t-110.5 1t-101 -7.5l-16.5 -16.5z" />
    <glyph glyph-name="currency" unicode="&#xa4;" horiz-adv-x="708" 
d="M80 144l43 137q-18 29 -27.5 63t-9.5 71t10 72.5t29 65.5l-45 143l135 -52q31 19 66 29.5t73 10.5q39 0 74 -10.5t66 -29.5l134 52l-44 -142q18 -31 28 -66t10 -73q0 -37 -9.5 -71t-26.5 -64l42 -136l-124 48q-32 -22 -70 -34t-80 -12q-41 0 -79 12t-70 34zM354 230
q38 0 72 14.5t59 39.5t40 59t15 72t-15 72t-40 59t-59 40t-72 15t-72 -15t-59 -40t-40 -59t-15 -72t15 -72t40 -59t59 -39.5t72 -14.5z" />
    <glyph glyph-name="yen" unicode="&#xa5;" horiz-adv-x="786" 
d="M58 393v47h144q-4 13 -8.5 26.5t-8.5 26.5h-127v47h108q-10 22 -21.5 44.5t-24.5 44.5l-20 35l-61 -10l-18 51l80 11l146 21q16 -38 31.5 -74.5t28.5 -71.5q11 73 58.5 122.5t116.5 49.5q43 0 78 -16t60 -43.5t39 -64.5t14 -78v-21h82v-47h-87q-2 -13 -5.5 -26.5
t-7.5 -26.5h100v-47h-122q-7 -13 -17 -26t-22 -26q42 -17 70 -48.5t28 -74.5q0 -49 -21 -91t-60.5 -73t-97 -49t-131.5 -18q-124 0 -196 51.5t-72 143.5q0 52 29.5 87t83.5 51l-10 56q-1 4 -1.5 8.5t-1.5 8.5h-156zM427 611q-35 0 -62.5 -17.5t-37.5 -53.5h231
q-22 35 -58.5 53t-72.5 18zM581 457q0 10 -1 19t-3 17h-236q4 -13 9 -26.5t9 -26.5h221q1 4 1 8.5v8.5zM390 332h19q61 1 100 16t56 45h-192q4 -15 8.5 -30.5t8.5 -30.5zM212 96q0 -18 15 -28.5t46 -10.5q50 0 103.5 15.5t97 43t71.5 67t28 86.5q0 11 -1.5 22.5t-5.5 23.5
q-27 -22 -63.5 -43t-84.5 -39q-71 -27 -112.5 -47.5t-62 -37t-26 -29t-5.5 -23.5z" />
    <glyph glyph-name="brokenbar" unicode="&#xa6;" horiz-adv-x="209" 
d="M144 437h-79v343h79v-343zM65 -115v343h79v-343h-79z" />
    <glyph glyph-name="section" unicode="&#xa7;" horiz-adv-x="564" 
d="M514 45q0 -33 -18 -63.5t-49 -53t-73.5 -36.5t-91.5 -14q-47 0 -88 11.5t-70.5 30.5t-46 43t-16.5 49q0 28 8.5 50t19.5 40.5t23.5 35.5t19.5 36q-36 24 -59 54.5t-23 69.5q0 44 27 79.5t73 60.5q-43 28 -71.5 66t-28.5 92q0 33 18 63.5t49 53t73.5 36.5t91.5 14
q47 0 88 -11.5t70.5 -30.5t46 -43t16.5 -49q0 -28 -8.5 -50t-19.5 -40.5t-23.5 -35.5t-19.5 -36q36 -24 59 -54.5t23 -69.5q0 -45 -26 -81.5t-70 -61.5q41 -27 68.5 -64.5t27.5 -90.5zM121 656q0 -25 28.5 -46t70.5 -40.5t92.5 -40.5t93.5 -46q3 54 -16.5 93t-51.5 64
t-74 37t-83 12q-37 0 -48.5 -9.5t-11.5 -23.5zM141 376q0 -25 21 -44t53.5 -35.5t73 -32.5t79.5 -36q28 1 41.5 10.5t13.5 26.5q0 25 -21 44t-53.5 35.5t-73 32.5t-79.5 36q-28 -1 -41.5 -10.5t-13.5 -26.5zM443 -15q0 25 -28.5 46t-70.5 40.5t-92.5 40.5t-93.5 46
q-3 -54 16.5 -93t52 -64t74 -37t82.5 -12q37 0 48.5 9.5t11.5 23.5z" />
    <glyph glyph-name="dieresis" unicode="&#xa8;" 
d="M84 767l89 89l77 -77l77 77l89 -89l-89 -89l-77 77l-77 -77z" />
    <glyph glyph-name="copyright" unicode="&#xa9;" horiz-adv-x="838" 
d="M419 -14q-80 0 -151 31t-123.5 83.5t-83.5 123.5t-31 151t31 151t83.5 123.5t123.5 83.5t151 31t151 -31t123.5 -83.5t83.5 -123.5t31 -151t-31 -151t-83.5 -123.5t-123.5 -83.5t-151 -31zM419 38q69 0 130.5 27t107 72.5t72.5 107t27 130.5t-27 130.5t-72.5 107t-107 72
t-130.5 26.5t-130.5 -26.5t-107 -72t-72 -107t-26.5 -130.5t26.5 -130.5t72 -107t107 -72.5t130.5 -27zM481 313v187q-23 4 -50 6.5t-49 2.5q-67 0 -105 -23.5t-38 -77.5q0 -34 22.5 -60t62.5 -45t94.5 -31t118.5 -18l-18 -126q-69 4 -127.5 24.5t-100.5 55t-65.5 81.5
t-23.5 102q0 50 23 93.5t64 74.5t98.5 48t125.5 15v-300z" />
    <glyph glyph-name="ordfeminine" unicode="&#xaa;" horiz-adv-x="493" 
d="M298 218v95q-20 -49 -54 -72.5t-78 -23.5q-38 0 -66 14t-45.5 37.5t-25 54.5t-5.5 63q31 19 57.5 34t48.5 28q-39 56 -60 126t-29 145q33 12 73.5 20t82 13.5t82.5 8t76 2.5q24 0 45 -1.5t35 -3.5q4 -39 6 -88t2 -100q0 -49 -2 -103.5t-3 -90.5l18 -148zM232 491
q-18 -17 -34.5 -30t-39.5 -32q7 -61 32 -96.5t53 -35.5q17 0 28.5 19.5t19 55t10.5 85.5t3 110v136q-54 -10 -107.5 -30.5t-99.5 -43.5q24 -39 55.5 -70.5t78.5 -65.5z" />
    <glyph glyph-name="guillemotleft" unicode="&#xab;" horiz-adv-x="541" 
d="M297 534l19 -19l-151 -210l151 -210l-19 -19l-257 224v10zM497 534l19 -19l-151 -210l151 -210l-19 -19l-257 224v10z" />
    <glyph glyph-name="logicalnot" unicode="&#xac;" horiz-adv-x="550" 
d="M28 385h494v-204h-55v149h-439v55z" />
    <glyph glyph-name="uni00AD" unicode="&#xad;" horiz-adv-x="0" 
 />
    <glyph glyph-name="registered" unicode="&#xae;" horiz-adv-x="838" 
d="M419 -14q-80 0 -151 31t-123.5 83.5t-83.5 123.5t-31 151t31 151t83.5 123.5t123.5 83.5t151 31t151 -31t123.5 -83.5t83.5 -123.5t31 -151t-31 -151t-83.5 -123.5t-123.5 -83.5t-151 -31zM419 38q69 0 130.5 27t107 72.5t72.5 107t27 130.5t-27 130.5t-72.5 107t-107 72
t-130.5 26.5t-130.5 -26.5t-107 -72t-72 -107t-26.5 -130.5t26.5 -130.5t72 -107t107 -72.5t130.5 -27zM294 132l10 132l-84 -7l92 100l2 27l-21 141l-67 96q195 -7 287.5 -49t92.5 -133q0 -45 -25 -77.5t-76 -54.5l114 -175h-121l-78 150q-4 -1 -9.5 -2t-11.5 -2l5 -146
h-110zM426 359q45 -3 72.5 1t43 12.5t20.5 20.5t5 24q0 37 -48 59.5t-117 32.5l-6 -120l1 -28z" />
    <glyph glyph-name="macron" unicode="&#xaf;" 
d="M84 708v57h332v-57h-332z" />
    <glyph glyph-name="degree" unicode="&#xb0;" horiz-adv-x="343" 
d="M172 474q-60 0 -102.5 42.5t-42.5 102.5q0 59 42.5 101.5t102.5 42.5q59 0 101.5 -42.5t42.5 -101.5q0 -60 -42.5 -102.5t-101.5 -42.5zM172 524q40 0 67.5 28t27.5 67q0 40 -27.5 67.5t-67.5 27.5t-67.5 -27.5t-27.5 -67.5q0 -39 27.5 -67t67.5 -28z" />
    <glyph glyph-name="plusminus" unicode="&#xb1;" horiz-adv-x="550" 
d="M28 140h220v185h-220v55h220v199h55v-199h219v-55h-219v-185h219v-55h-494v55z" />
    <glyph glyph-name="acute" unicode="&#xb4;" 
d="M183 655h-25l83 213h151z" />
    <glyph glyph-name="mu" unicode="&#xb5;" horiz-adv-x="510" 
d="M15 100q0 51 7.5 100.5t5.5 103.5l-11 273l161 16l-19 -416q10 -40 28 -70.5t37 -30.5q45 0 68 58t25 162l-6 281l161 16q-2 -29 -8 -74t-6 -98q0 -28 2 -74.5t6.5 -101.5t11 -115.5t14.5 -116.5l-164 -34l-7 109v17q-36 -51 -78.5 -82t-82.5 -35v-165h-145v277z" />
    <glyph glyph-name="paragraph" unicode="&#xb6;" horiz-adv-x="588" 
d="M549 757l-10 -388l19 -467l-21 -3l-28 94l-106 -99l-9 4v155l8 310l-10 396zM342 757l10 -234q6 -128 4.5 -217.5t-10.5 -156t-26 -119.5t-43 -109l-69 48q44 73 68 145t32 156q-62 3 -109 22.5t-78 51t-46.5 73t-15.5 87.5q0 111 75.5 177.5t207.5 75.5z" />
    <glyph glyph-name="periodcentered" unicode="&#xb7;" horiz-adv-x="348" 
d="M70 374l104 103l104 -103l-104 -105z" />
    <glyph glyph-name="cedilla" unicode="&#xb8;" 
d="M149 -148l91 198l34 -6l-61 -134q24 17 47 25t45 8q40 0 67.5 -29t27.5 -75q0 -69 -61 -102t-197 -55l-17 88q72 12 115.5 24.5t67 25t31 25.5t7.5 25q0 18 -10 28.5t-32 10.5q-23 0 -51.5 -14t-77.5 -57z" />
    <glyph glyph-name="ordmasculine" unicode="&#xba;" horiz-adv-x="537" 
d="M297 789l26 -25q-16 -13 -24.5 -22t-8.5 -21q0 -18 36 -45t78.5 -63t78.5 -81t36 -99q0 -47 -27 -81.5t-64.5 -59.5t-79.5 -43t-72 -32q-53 15 -97.5 35.5t-77 48.5t-50.5 63.5t-18 80.5q0 61 44.5 124.5t105.5 120.5q31 30 58 52.5t56 46.5zM157 550q0 -87 50 -145.5
t161 -109.5q6 11 10.5 28t4.5 39q0 66 -59.5 136t-152.5 133q-8 -20 -11 -40.5t-3 -40.5z" />
    <glyph glyph-name="guillemotright" unicode="&#xbb;" horiz-adv-x="541" 
d="M244 76l-19 19l151 210l-151 210l19 19l257 -224v-10zM44 76l-19 19l151 210l-151 210l19 19l257 -224v-10z" />
    <glyph glyph-name="questiondown" unicode="&#xbf;" horiz-adv-x="583" 
d="M421 478l-116 -115l-116 115l116 117zM423 381l26 -42l-111 -71l-12 -8t-11 -8q101 -26 155 -88t54 -136q0 -47 -17.5 -86.5t-48.5 -67.5t-73 -44t-91 -16q-52 0 -95 15.5t-73.5 41t-47 60t-16.5 72.5q0 40 10 74.5t36 68.5t70.5 71t112.5 80zM478 32q0 57 -49 110.5
t-154 75.5q-31 -32 -45.5 -68.5t-14.5 -79.5q0 -72 42 -122t105 -50q49 0 82.5 33.5t33.5 100.5z" />
    <glyph glyph-name="Agrave" unicode="&#xc0;" horiz-adv-x="690" 
d="M297 -15q-43 10 -82.5 32t-70.5 51t-52 63t-28 67q52 32 98.5 70t82.5 78q-51 9 -94.5 30.5t-74.5 51t-48.5 67t-17.5 78.5q0 85 56 137t147 52q31 0 60 -8.5t54 -23.5l94 36l259 -764l-177 -11l-51 175zM52 568q0 -70 56.5 -125t157.5 -72q34 42 53.5 84.5t19.5 82.5
q0 75 -42 120t-108 45q-54 0 -95.5 -37.5t-41.5 -97.5zM377 426q-24 -46 -60.5 -84t-81.5 -64l183 7zM185 243q28 -40 69.5 -70.5t110.5 -60.5l77 90l-12 41h-245zM315 797l-209 213h151l83 -213h-25z" />
    <glyph glyph-name="Aacute" unicode="&#xc1;" horiz-adv-x="690" 
d="M297 -15q-43 10 -82.5 32t-70.5 51t-52 63t-28 67q52 32 98.5 70t82.5 78q-51 9 -94.5 30.5t-74.5 51t-48.5 67t-17.5 78.5q0 85 56 137t147 52q31 0 60 -8.5t54 -23.5l94 36l259 -764l-177 -11l-51 175zM52 568q0 -70 56.5 -125t157.5 -72q34 42 53.5 84.5t19.5 82.5
q0 75 -42 120t-108 45q-54 0 -95.5 -37.5t-41.5 -97.5zM377 426q-24 -46 -60.5 -84t-81.5 -64l183 7zM185 243q28 -40 69.5 -70.5t110.5 -60.5l77 90l-12 41h-245zM328 797h-25l83 213h151z" />
    <glyph glyph-name="Acircumflex" unicode="&#xc2;" horiz-adv-x="690" 
d="M297 -15q-43 10 -82.5 32t-70.5 51t-52 63t-28 67q52 32 98.5 70t82.5 78q-51 9 -94.5 30.5t-74.5 51t-48.5 67t-17.5 78.5q0 85 56 137t147 52q31 0 60 -8.5t54 -23.5l94 36l259 -764l-177 -11l-51 175zM52 568q0 -70 56.5 -125t157.5 -72q34 42 53.5 84.5t19.5 82.5
q0 75 -42 120t-108 45q-54 0 -95.5 -37.5t-41.5 -97.5zM377 426q-24 -46 -60.5 -84t-81.5 -64l183 7zM185 243q28 -40 69.5 -70.5t110.5 -60.5l77 90l-12 41h-245zM206 797h-25l98 213h138l98 -213h-25l-142 130z" />
    <glyph glyph-name="Atilde" unicode="&#xc3;" horiz-adv-x="690" 
d="M297 -15q-43 10 -82.5 32t-70.5 51t-52 63t-28 67q52 32 98.5 70t82.5 78q-51 9 -94.5 30.5t-74.5 51t-48.5 67t-17.5 78.5q0 85 56 137t147 52q31 0 60 -8.5t54 -23.5l94 36l259 -764l-177 -11l-51 175zM52 568q0 -70 56.5 -125t157.5 -72q34 42 53.5 84.5t19.5 82.5
q0 75 -42 120t-108 45q-54 0 -95.5 -37.5t-41.5 -97.5zM377 426q-24 -46 -60.5 -84t-81.5 -64l183 7zM185 243q28 -40 69.5 -70.5t110.5 -60.5l77 90l-12 41h-245zM443 929q25 0 44.5 15t26.5 46l32 -9q-26 -81 -55.5 -113.5t-72.5 -32.5q-21 0 -43.5 7t-45.5 15t-45.5 15
t-43.5 7q-22 0 -39.5 -12.5t-31.5 -48.5l-28 10q33 86 60.5 116t67.5 30q21 0 43 -7t44 -15.5t44 -15.5t43 -7z" />
    <glyph glyph-name="Adieresis" unicode="&#xc4;" horiz-adv-x="690" 
d="M297 -15q-43 10 -82.5 32t-70.5 51t-52 63t-28 67q52 32 98.5 70t82.5 78q-51 9 -94.5 30.5t-74.5 51t-48.5 67t-17.5 78.5q0 85 56 137t147 52q31 0 60 -8.5t54 -23.5l94 36l259 -764l-177 -11l-51 175zM52 568q0 -70 56.5 -125t157.5 -72q34 42 53.5 84.5t19.5 82.5
q0 75 -42 120t-108 45q-54 0 -95.5 -37.5t-41.5 -97.5zM377 426q-24 -46 -60.5 -84t-81.5 -64l183 7zM185 243q28 -40 69.5 -70.5t110.5 -60.5l77 90l-12 41h-245zM182 909l89 89l77 -77l77 77l89 -89l-89 -89l-77 77l-77 -77z" />
    <glyph glyph-name="Aring" unicode="&#xc5;" horiz-adv-x="690" 
d="M297 -15q-43 10 -82.5 32t-70.5 51t-52 63t-28 67q52 32 98.5 70t82.5 78q-51 9 -94.5 30.5t-74.5 51t-48.5 67t-17.5 78.5q0 85 56 137t147 52q13 0 26 -1.5t26 -4.5q-19 16 -30.5 39.5t-11.5 50.5q0 49 36.5 84.5t87.5 35.5t88 -35.5t37 -84.5q0 -28 -12.5 -53
t-33.5 -41l254 -750l-177 -11l-51 175zM347 773q31 0 52 22t21 52q0 31 -21 53t-52 22t-53 -22t-22 -53q0 -30 22 -52t53 -22zM52 568q0 -70 56.5 -125t157.5 -72q34 42 53.5 84.5t19.5 82.5q0 75 -42 120t-108 45q-54 0 -95.5 -37.5t-41.5 -97.5zM377 426
q-24 -46 -60.5 -84t-81.5 -64l183 7zM185 243q28 -40 69.5 -70.5t110.5 -60.5l77 90l-12 41h-245z" />
    <glyph glyph-name="AE" unicode="&#xc6;" horiz-adv-x="922" 
d="M301 -15q-43 10 -82.5 32t-70.5 51t-52 63t-28 67q52 32 98.5 70t82.5 78q-101 19 -165.5 81.5t-64.5 145.5q0 87 57 138t147 51q51 0 98.5 -26t74.5 -66q10 20 23 39t26 36l10 12l10 12l17 -7q-1 -4 -2.5 -8.5t-2.5 -8.5q47 0 88 -1.5t84 -3.5t93 -5.5t114 -8.5
l-94 -139q-88 10 -157.5 15t-138.5 6q7 -63 33 -126.5t68 -123.5l64 79q36 -4 64 -5.5t54.5 -1t55 3.5l66.5 7l4 -4l-104 -130q-45 -7 -81.5 -9t-75.5 0q48 -57 108 -110t129 -99q13 9 24 18.5t19 17.5l20 -31q-34 -37 -80.5 -66t-101.5 -49q-71 42 -137 95.5t-117 113.5
l-110 -124zM56 568q0 -70 56.5 -125t157.5 -72q34 42 53.5 84.5t19.5 82.5q0 75 -42 120t-108 45q-54 0 -95.5 -37.5t-41.5 -97.5zM359 388q-22 -34 -52 -62t-64 -48l164 6q-15 25 -27.5 51.5t-20.5 52.5zM191 252v-1l1 1h-1zM196 243q27 -45 67.5 -76.5t100.5 -59.5l92 107
q-6 7 -11.5 14.5t-10.5 14.5h-238z" />
    <glyph glyph-name="Ccedilla" unicode="&#xc7;" horiz-adv-x="549" 
d="M214 -148l81 177q-126 48 -201 146t-75 226q0 79 34 147t95 116.5t145.5 75t184.5 23.5v-469l-50 -14v300q-29 6 -62.5 9.5t-60.5 3.5q-111 0 -173.5 -38t-62.5 -128q0 -56 33.5 -99.5t93 -75t142 -51.5t178.5 -29l-28 -182q-43 2 -83.5 9t-77.5 19l-49 -108q24 17 47 25
t45 8q40 0 67.5 -29t27.5 -75q0 -69 -61 -102t-197 -55l-17 88q72 12 115.5 24.5t67 25t31 25.5t7.5 25q0 18 -10 28.5t-32 10.5q-23 0 -51.5 -14t-77.5 -57z" />
    <glyph glyph-name="Egrave" unicode="&#xc8;" horiz-adv-x="575" 
d="M-5 55l135 80v10l16 170l-13 308l-122 137l569 -44l-74 -132l-217 37l-17 -305l59 70h164l-55 -128q-14 1 -35 4t-44 7t-46.5 9t-41.5 10l23 -182l250 19l-57 -135q-151 2 -270.5 19t-223.5 46zM355 797l-209 213h151l83 -213h-25z" />
    <glyph glyph-name="Eacute" unicode="&#xc9;" horiz-adv-x="575" 
d="M-5 55l135 80v10l16 170l-13 308l-122 137l569 -44l-74 -132l-217 37l-17 -305l59 70h164l-55 -128q-14 1 -35 4t-44 7t-46.5 9t-41.5 10l23 -182l250 19l-57 -135q-151 2 -270.5 19t-223.5 46zM221 797h-25l83 213h151z" />
    <glyph glyph-name="Ecircumflex" unicode="&#xca;" horiz-adv-x="575" 
d="M-5 55l135 80v10l16 170l-13 308l-122 137l569 -44l-74 -132l-217 37l-17 -305l59 70h164l-55 -128q-14 1 -35 4t-44 7t-46.5 9t-41.5 10l23 -182l250 19l-57 -135q-151 2 -270.5 19t-223.5 46zM146 797h-25l98 213h138l98 -213h-25l-142 130z" />
    <glyph glyph-name="Edieresis" unicode="&#xcb;" horiz-adv-x="575" 
d="M-5 55l135 80v10l16 170l-13 308l-122 137l569 -44l-74 -132l-217 37l-17 -305l59 70h164l-55 -128q-14 1 -35 4t-44 7t-46.5 9t-41.5 10l23 -182l250 19l-57 -135q-151 2 -270.5 19t-223.5 46zM122 909l89 89l77 -77l77 77l89 -89l-89 -89l-77 77l-77 -77z" />
    <glyph glyph-name="Igrave" unicode="&#xcc;" horiz-adv-x="292" 
d="M64 0l19 378l-9 227l-65 153l224 -7v-100l-14 -273l12 -378h-167zM158 797l-209 213h151l83 -213h-25z" />
    <glyph glyph-name="Iacute" unicode="&#xcd;" horiz-adv-x="292" 
d="M64 0l19 378l-9 227l-65 153l224 -7v-100l-14 -273l12 -378h-167zM121 797h-25l83 213h151z" />
    <glyph glyph-name="Icircumflex" unicode="&#xce;" horiz-adv-x="292" 
d="M64 0l19 378l-9 227l-65 153l224 -7v-100l-14 -273l12 -378h-167zM-7 797h-25l98 213h138l98 -213h-25l-142 130z" />
    <glyph glyph-name="Idieresis" unicode="&#xcf;" horiz-adv-x="292" 
d="M64 0l19 378l-9 227l-65 153l224 -7v-100l-14 -273l12 -378h-167zM-20 909l89 89l77 -77l77 77l89 -89l-89 -89l-77 77l-77 -77z" />
    <glyph glyph-name="Eth" unicode="&#xd0;" horiz-adv-x="672" 
d="M207 9l-204 -22l133 174l12 179h-109v80h107l-18 172l-134 172q148 0 270.5 -30t208.5 -84t134 -129.5t48 -166.5q0 -63 -25 -120t-78.5 -102.5t-139 -77.5t-205.5 -45zM428 420v-80h-151l10 -173q91 5 152 19.5t98 36t52.5 48t15.5 55.5q0 40 -22.5 78.5t-63.5 70.5
t-99.5 58t-130.5 41l-11 -154h150z" />
    <glyph glyph-name="Ntilde" unicode="&#xd1;" horiz-adv-x="663" 
d="M50 0l25 352l-19 408l31 3l454 -519l-84 512l156 7l-24 -763h-24l-440 506l92 -506h-167zM427 929q25 0 44.5 15t26.5 46l32 -9q-26 -81 -55.5 -113.5t-72.5 -32.5q-21 0 -43.5 7t-45.5 15t-45.5 15t-43.5 7q-22 0 -39.5 -12.5t-31.5 -48.5l-28 10q33 86 60.5 116
t67.5 30q21 0 43 -7t44 -15.5t44 -15.5t43 -7z" />
    <glyph glyph-name="Ograve" unicode="&#xd2;" horiz-adv-x="705" 
d="M20 298q0 59 30 113t96 97h35q13 66 45.5 131.5t82.5 123.5q113 -17 185.5 -56t113.5 -88t56.5 -102.5t15.5 -99.5q0 -76 -40.5 -152t-124.5 -136l-45 -143q-74 10 -153.5 32t-145 58.5t-108.5 91.5t-43 130zM353 257l-111 -47q51 -18 113.5 -29.5t125.5 -21.5
q53 37 78 85t25 102q0 103 -77.5 171t-246.5 99q-4 -15 -5.5 -30t-1.5 -31q0 -68 24.5 -142.5t75.5 -155.5zM100 350q0 -46 31 -77t82 -52q-19 48 -30 97t-11 98q0 18 1.5 35.5t3.5 35.5q-40 -36 -58.5 -68.5t-18.5 -68.5zM419 797l-209 213h151l83 -213h-25z" />
    <glyph glyph-name="Oacute" unicode="&#xd3;" horiz-adv-x="705" 
d="M20 298q0 59 30 113t96 97h35q13 66 45.5 131.5t82.5 123.5q113 -17 185.5 -56t113.5 -88t56.5 -102.5t15.5 -99.5q0 -76 -40.5 -152t-124.5 -136l-45 -143q-74 10 -153.5 32t-145 58.5t-108.5 91.5t-43 130zM353 257l-111 -47q51 -18 113.5 -29.5t125.5 -21.5
q53 37 78 85t25 102q0 103 -77.5 171t-246.5 99q-4 -15 -5.5 -30t-1.5 -31q0 -68 24.5 -142.5t75.5 -155.5zM100 350q0 -46 31 -77t82 -52q-19 48 -30 97t-11 98q0 18 1.5 35.5t3.5 35.5q-40 -36 -58.5 -68.5t-18.5 -68.5zM285 797h-25l83 213h151z" />
    <glyph glyph-name="Ocircumflex" unicode="&#xd4;" horiz-adv-x="705" 
d="M20 298q0 59 30 113t96 97h35q13 66 45.5 131.5t82.5 123.5q113 -17 185.5 -56t113.5 -88t56.5 -102.5t15.5 -99.5q0 -76 -40.5 -152t-124.5 -136l-45 -143q-74 10 -153.5 32t-145 58.5t-108.5 91.5t-43 130zM353 257l-111 -47q51 -18 113.5 -29.5t125.5 -21.5
q53 37 78 85t25 102q0 103 -77.5 171t-246.5 99q-4 -15 -5.5 -30t-1.5 -31q0 -68 24.5 -142.5t75.5 -155.5zM100 350q0 -46 31 -77t82 -52q-19 48 -30 97t-11 98q0 18 1.5 35.5t3.5 35.5q-40 -36 -58.5 -68.5t-18.5 -68.5zM210 797h-25l98 213h138l98 -213h-25l-142 130z
" />
    <glyph glyph-name="Otilde" unicode="&#xd5;" horiz-adv-x="705" 
d="M20 298q0 59 30 113t96 97h35q13 66 45.5 131.5t82.5 123.5q113 -17 185.5 -56t113.5 -88t56.5 -102.5t15.5 -99.5q0 -76 -40.5 -152t-124.5 -136l-45 -143q-74 10 -153.5 32t-145 58.5t-108.5 91.5t-43 130zM353 257l-111 -47q51 -18 113.5 -29.5t125.5 -21.5
q53 37 78 85t25 102q0 103 -77.5 171t-246.5 99q-4 -15 -5.5 -30t-1.5 -31q0 -68 24.5 -142.5t75.5 -155.5zM100 350q0 -46 31 -77t82 -52q-19 48 -30 97t-11 98q0 18 1.5 35.5t3.5 35.5q-40 -36 -58.5 -68.5t-18.5 -68.5zM447 929q25 0 44.5 15t26.5 46l32 -9
q-26 -81 -55.5 -113.5t-72.5 -32.5q-21 0 -43.5 7t-45.5 15t-45.5 15t-43.5 7q-22 0 -39.5 -12.5t-31.5 -48.5l-28 10q33 86 60.5 116t67.5 30q21 0 43 -7t44 -15.5t44 -15.5t43 -7z" />
    <glyph glyph-name="Odieresis" unicode="&#xd6;" horiz-adv-x="705" 
d="M20 298q0 59 30 113t96 97h35q13 66 45.5 131.5t82.5 123.5q113 -17 185.5 -56t113.5 -88t56.5 -102.5t15.5 -99.5q0 -76 -40.5 -152t-124.5 -136l-45 -143q-74 10 -153.5 32t-145 58.5t-108.5 91.5t-43 130zM353 257l-111 -47q51 -18 113.5 -29.5t125.5 -21.5
q53 37 78 85t25 102q0 103 -77.5 171t-246.5 99q-4 -15 -5.5 -30t-1.5 -31q0 -68 24.5 -142.5t75.5 -155.5zM100 350q0 -46 31 -77t82 -52q-19 48 -30 97t-11 98q0 18 1.5 35.5t3.5 35.5q-40 -36 -58.5 -68.5t-18.5 -68.5zM186 909l89 89l77 -77l77 77l89 -89l-89 -89
l-77 77l-77 -77z" />
    <glyph glyph-name="multiply" unicode="&#xd7;" horiz-adv-x="567" 
d="M97 159l156 155l-156 156l39 39l156 -156l155 155l39 -39l-155 -155l155 -155l-39 -38l-155 154l-156 -155z" />
    <glyph glyph-name="Oslash" unicode="&#xd8;" horiz-adv-x="705" 
d="M20 298q0 59 30 113t96 97h35q13 66 45.5 131.5t82.5 123.5q78 -12 136.5 -34.5t99.5 -51.5l58 107l31 -20l-60 -111q61 -54 83.5 -118t22.5 -118q0 -76 -40.5 -152t-124.5 -136l-45 -143q-54 7 -113 21t-113 35l-62 -115l-32 16l61 113q-40 19 -75 43t-61 53.5t-40.5 66
t-14.5 79.5zM253 555q0 -62 20 -129t62 -139l138 255q-39 24 -92 42.5t-121 31.5q-4 -15 -5.5 -30t-1.5 -31zM584 346q0 53 -20 97t-61 78l-180 -334q37 -8 77.5 -15t80.5 -13q53 37 78 85t25 102zM100 350q0 -46 31 -77t82 -52q-19 48 -30 97t-11 98q0 18 1.5 35.5
t3.5 35.5q-40 -36 -58.5 -68.5t-18.5 -68.5zM242 210q10 -4 21.5 -7t22.5 -7l23 42z" />
    <glyph glyph-name="Ugrave" unicode="&#xd9;" horiz-adv-x="685" 
d="M25 166q91 90 150 157t59 130q0 44 -36.5 87t-142.5 63l69 160q110 0 164 -43.5t54 -116.5q0 -82 -43 -168t-110 -173q16 -66 61 -99t97 -33q75 0 101 76.5t21 213.5l-13 330h170v-99l-14 -273l12 -378h-172l8 150q-17 -43 -43.5 -74t-57 -51t-63 -29t-60.5 -9
q-75 0 -135 49t-76 130zM409 797l-209 213h151l83 -213h-25z" />
    <glyph glyph-name="Uacute" unicode="&#xda;" horiz-adv-x="685" 
d="M25 166q91 90 150 157t59 130q0 44 -36.5 87t-142.5 63l69 160q110 0 164 -43.5t54 -116.5q0 -82 -43 -168t-110 -173q16 -66 61 -99t97 -33q75 0 101 76.5t21 213.5l-13 330h170v-99l-14 -273l12 -378h-172l8 150q-17 -43 -43.5 -74t-57 -51t-63 -29t-60.5 -9
q-75 0 -135 49t-76 130zM275 797h-25l83 213h151z" />
    <glyph glyph-name="Ucircumflex" unicode="&#xdb;" horiz-adv-x="685" 
d="M25 166q91 90 150 157t59 130q0 44 -36.5 87t-142.5 63l69 160q110 0 164 -43.5t54 -116.5q0 -82 -43 -168t-110 -173q16 -66 61 -99t97 -33q75 0 101 76.5t21 213.5l-13 330h170v-99l-14 -273l12 -378h-172l8 150q-17 -43 -43.5 -74t-57 -51t-63 -29t-60.5 -9
q-75 0 -135 49t-76 130zM200 797h-25l98 213h138l98 -213h-25l-142 130z" />
    <glyph glyph-name="Udieresis" unicode="&#xdc;" horiz-adv-x="685" 
d="M25 166q91 90 150 157t59 130q0 44 -36.5 87t-142.5 63l69 160q110 0 164 -43.5t54 -116.5q0 -82 -43 -168t-110 -173q16 -66 61 -99t97 -33q75 0 101 76.5t21 213.5l-13 330h170v-99l-14 -273l12 -378h-172l8 150q-17 -43 -43.5 -74t-57 -51t-63 -29t-60.5 -9
q-75 0 -135 49t-76 130zM176 909l89 89l77 -77l77 77l89 -89l-89 -89l-77 77l-77 -77z" />
    <glyph glyph-name="Yacute" unicode="&#xdd;" horiz-adv-x="708" 
d="M678 218q0 -49 -21 -91t-60.5 -73t-97 -49t-131.5 -18q-124 0 -196 51.5t-72 143.5q0 52 29.5 87t83.5 51l-10 56q-12 66 -36 128t-61 125l-20 35l-61 -10l-18 51l80 11l146 21q16 -38 31.5 -74.5t28.5 -71.5q11 73 58.5 122.5t116.5 49.5q43 0 78 -16t60 -43.5t39 -64.5
t14 -78q0 -52 -14.5 -110t-64.5 -110q42 -17 70 -48.5t28 -74.5zM413 611q-35 0 -63 -18t-38 -55q18 -51 34 -102.5t30 -103.5h19q89 1 130.5 33t41.5 92q0 38 -14 67t-36 48t-50 29t-54 10zM198 96q0 -18 15 -28.5t46 -10.5q50 0 103.5 15.5t97 43t71.5 67t28 86.5
q0 11 -1.5 22.5t-5.5 23.5q-27 -22 -63.5 -43t-84.5 -39q-71 -27 -112.5 -47.5t-62 -37t-26 -29t-5.5 -23.5zM287 797h-25l83 213h151z" />
    <glyph glyph-name="Thorn" unicode="&#xde;" horiz-adv-x="669" 
d="M181 0l5 117l-177 -12l183 150l6 123l-11 112l-169 134q42 0 81 -1.5t75 -3.5l-9 96l174 48l-6 -161q155 -26 236.5 -85.5t81.5 -154.5q0 -88 -80 -144t-233 -84l7 -135zM324 382l7 -128h19q82 0 131.5 5.5t76 15t35 22.5t8.5 28q0 29 -20.5 54t-57 44t-86.5 33t-109 21z
" />
    <glyph glyph-name="germandbls" unicode="&#xdf;" horiz-adv-x="671" 
d="M82 -18l17 192v277h-84v48h69q-6 7 -8.5 16t-2.5 19q0 36 24 80.5t61.5 83t85 65t94.5 26.5q22 0 47 -8t46 -23.5t34.5 -37.5t13.5 -50q0 -22 -10.5 -41t-23.5 -39.5t-23.5 -45.5t-10.5 -60q0 -44 40.5 -74.5t89 -62.5t89 -74t40.5 -109q0 -39 -21 -72t-56.5 -56.5
t-82 -36.5t-96.5 -13q-67 0 -96 34.5t-29 75.5q0 49 30 88t73 71q-25 20 -42 46.5t-17 63.5q0 29 8.5 55t18.5 51t18.5 49t8.5 48q0 23 -14 44.5t-36 37.5t-51 26t-58 10q-32 0 -50 -17.5t-18 -42.5q0 -28 16.5 -60t67.5 -67v-499zM362 163q0 -18 19 -37t46 -33.5t59 -24
t57 -9.5q18 0 27 7t9 20q0 43 -33 70t-76 50q-54 -3 -81 -15t-27 -28z" />
    <glyph glyph-name="agrave" unicode="&#xe0;" horiz-adv-x="493" 
d="M301 -12v105q-21 -54 -57 -80t-82 -26q-40 0 -69.5 16t-48 41.5t-26.5 59.5t-5 70q32 22 60.5 38t50.5 31q-41 63 -63 140.5t-31 160.5q35 13 77.5 22.5t86.5 15.5t87 8.5t80 2.5q25 0 47 -1.5t37 -3.5q4 -43 6.5 -97.5t2.5 -111.5q0 -54 -2.5 -115t-3.5 -101l19 -164z
M232 291q-19 -19 -36.5 -33.5t-41.5 -35.5q7 -68 33.5 -107t55.5 -39q18 0 30.5 22t19.5 61t10.5 94.5t3.5 122.5v151q-57 -12 -113 -34.5t-105 -48.5q25 -43 58.5 -78t83.5 -73zM313 655l-209 213h151l83 -213h-25z" />
    <glyph glyph-name="aacute" unicode="&#xe1;" horiz-adv-x="493" 
d="M301 -12v105q-21 -54 -57 -80t-82 -26q-40 0 -69.5 16t-48 41.5t-26.5 59.5t-5 70q32 22 60.5 38t50.5 31q-41 63 -63 140.5t-31 160.5q35 13 77.5 22.5t86.5 15.5t87 8.5t80 2.5q25 0 47 -1.5t37 -3.5q4 -43 6.5 -97.5t2.5 -111.5q0 -54 -2.5 -115t-3.5 -101l19 -164z
M232 291q-19 -19 -36.5 -33.5t-41.5 -35.5q7 -68 33.5 -107t55.5 -39q18 0 30.5 22t19.5 61t10.5 94.5t3.5 122.5v151q-57 -12 -113 -34.5t-105 -48.5q25 -43 58.5 -78t83.5 -73zM229 655h-25l83 213h151z" />
    <glyph glyph-name="acircumflex" unicode="&#xe2;" horiz-adv-x="493" 
d="M301 -12v105q-21 -54 -57 -80t-82 -26q-40 0 -69.5 16t-48 41.5t-26.5 59.5t-5 70q32 22 60.5 38t50.5 31q-41 63 -63 140.5t-31 160.5q35 13 77.5 22.5t86.5 15.5t87 8.5t80 2.5q25 0 47 -1.5t37 -3.5q4 -43 6.5 -97.5t2.5 -111.5q0 -54 -2.5 -115t-3.5 -101l19 -164z
M232 291q-19 -19 -36.5 -33.5t-41.5 -35.5q7 -68 33.5 -107t55.5 -39q18 0 30.5 22t19.5 61t10.5 94.5t3.5 122.5v151q-57 -12 -113 -34.5t-105 -48.5q25 -43 58.5 -78t83.5 -73zM104 655h-25l98 213h138l98 -213h-25l-142 130z" />
    <glyph glyph-name="atilde" unicode="&#xe3;" horiz-adv-x="493" 
d="M301 -12v105q-21 -54 -57 -80t-82 -26q-40 0 -69.5 16t-48 41.5t-26.5 59.5t-5 70q32 22 60.5 38t50.5 31q-41 63 -63 140.5t-31 160.5q35 13 77.5 22.5t86.5 15.5t87 8.5t80 2.5q25 0 47 -1.5t37 -3.5q4 -43 6.5 -97.5t2.5 -111.5q0 -54 -2.5 -115t-3.5 -101l19 -164z
M232 291q-19 -19 -36.5 -33.5t-41.5 -35.5q7 -68 33.5 -107t55.5 -39q18 0 30.5 22t19.5 61t10.5 94.5t3.5 122.5v151q-57 -12 -113 -34.5t-105 -48.5q25 -43 58.5 -78t83.5 -73zM341 787q25 0 44.5 15t26.5 46l32 -9q-26 -81 -55.5 -113.5t-72.5 -32.5q-21 0 -43.5 7
t-45.5 15t-45.5 15t-43.5 7q-22 0 -39.5 -12.5t-31.5 -48.5l-28 10q33 86 60.5 116t67.5 30q21 0 43 -7t44 -15.5t44 -15.5t43 -7z" />
    <glyph glyph-name="adieresis" unicode="&#xe4;" horiz-adv-x="493" 
d="M301 -12v105q-21 -54 -57 -80t-82 -26q-40 0 -69.5 16t-48 41.5t-26.5 59.5t-5 70q32 22 60.5 38t50.5 31q-41 63 -63 140.5t-31 160.5q35 13 77.5 22.5t86.5 15.5t87 8.5t80 2.5q25 0 47 -1.5t37 -3.5q4 -43 6.5 -97.5t2.5 -111.5q0 -54 -2.5 -115t-3.5 -101l19 -164z
M232 291q-19 -19 -36.5 -33.5t-41.5 -35.5q7 -68 33.5 -107t55.5 -39q18 0 30.5 22t19.5 61t10.5 94.5t3.5 122.5v151q-57 -12 -113 -34.5t-105 -48.5q25 -43 58.5 -78t83.5 -73zM80 767l89 89l77 -77l77 77l89 -89l-89 -89l-77 77l-77 -77z" />
    <glyph glyph-name="aring" unicode="&#xe5;" horiz-adv-x="493" 
d="M301 -12v105q-21 -54 -57 -80t-82 -26q-40 0 -69.5 16t-48 41.5t-26.5 59.5t-5 70q32 22 60.5 38t50.5 31q-41 63 -63 140.5t-31 160.5q35 13 77.5 22.5t86.5 15.5t87 8.5t80 2.5q25 0 47 -1.5t37 -3.5q4 -43 6.5 -97.5t2.5 -111.5q0 -54 -2.5 -115t-3.5 -101l19 -164z
M232 291q-19 -19 -36.5 -33.5t-41.5 -35.5q7 -68 33.5 -107t55.5 -39q18 0 30.5 22t19.5 61t10.5 94.5t3.5 122.5v151q-57 -12 -113 -34.5t-105 -48.5q25 -43 58.5 -78t83.5 -73zM245 652q-51 0 -87.5 35.5t-36.5 85.5q0 49 36.5 84.5t87.5 35.5t88 -35.5t37 -84.5
q0 -50 -37 -85.5t-88 -35.5zM245 700q31 0 52 22t21 52q0 31 -21 53t-52 22t-53 -22t-22 -53q0 -30 22 -52t53 -22z" />
    <glyph glyph-name="ae" unicode="&#xe6;" horiz-adv-x="771" 
d="M732 166l-34 -179q-115 34 -192.5 81t-115.5 113q-46 -84 -108.5 -138t-118.5 -54q-60 0 -101.5 56.5t-41.5 179.5q0 96 29.5 166.5t82.5 115.5t127.5 66.5t164.5 21.5q73 0 132 -9t80 -16l44 46l30 -33q-19 -13 -29.5 -35t-10.5 -44q0 -20 13.5 -44.5t52.5 -57.5l28 8
v-46l-346 -91q40 -34 119 -62t195 -45zM180 284q0 -59 6 -98t16.5 -62t25.5 -32t32 -9q10 0 24 9.5t26 32t20 59t8 90.5q0 87 22 132t52 82q-48 11 -78 29.5t-62 18.5q-21 0 -38.5 -11t-29 -38.5t-18 -77t-6.5 -125.5zM377 346q0 -9 2.5 -18t6.5 -18l193 51q-13 21 -20.5 43
t-10.5 47q-84 8 -127.5 -23.5t-43.5 -81.5z" />
    <glyph glyph-name="ccedilla" unicode="&#xe7;" horiz-adv-x="382" 
d="M90 -148l91 198l6 -1q-85 53 -127.5 129t-42.5 160q0 54 24 100.5t66.5 81t101.5 54t127 19.5l-23 -178q-44 12 -78 16.5t-59 4.5q-57 0 -88.5 -22t-31.5 -62q0 -66 72 -106t234 -80l-34 -179q-33 10 -62.5 22t-54.5 26l-57 -125q24 17 47 25t45 8q40 0 67.5 -29
t27.5 -75q0 -69 -61 -102t-197 -55l-17 88q72 12 115.5 24.5t67 25t31 25.5t7.5 25q0 18 -10 28.5t-32 10.5q-23 0 -51.5 -14t-77.5 -57z" />
    <glyph glyph-name="egrave" unicode="&#xe8;" horiz-adv-x="449" 
d="M417 166l-34 -179q-187 46 -275 130t-88 212q0 57 22 105.5t60 83.5t90 55t112 20l48 42l24 -27q-21 -13 -32 -34t-11 -46q0 -29 17.5 -62t54.5 -63l26 7l8 -44l-345 -90q37 -34 116 -61.5t207 -48.5zM59 350q0 -9 1.5 -18t5.5 -18l184 48q-16 21 -23.5 41.5t-8.5 46.5
q-12 3 -23.5 4.5t-21.5 1.5q-51 0 -82.5 -30t-31.5 -76zM241 655l-209 213h151l83 -213h-25z" />
    <glyph glyph-name="eacute" unicode="&#xe9;" horiz-adv-x="449" 
d="M417 166l-34 -179q-187 46 -275 130t-88 212q0 57 22 105.5t60 83.5t90 55t112 20l48 42l24 -27q-21 -13 -32 -34t-11 -46q0 -29 17.5 -62t54.5 -63l26 7l8 -44l-345 -90q37 -34 116 -61.5t207 -48.5zM59 350q0 -9 1.5 -18t5.5 -18l184 48q-16 21 -23.5 41.5t-8.5 46.5
q-12 3 -23.5 4.5t-21.5 1.5q-51 0 -82.5 -30t-31.5 -76zM207 655h-25l83 213h151z" />
    <glyph glyph-name="ecircumflex" unicode="&#xea;" horiz-adv-x="449" 
d="M417 166l-34 -179q-187 46 -275 130t-88 212q0 57 22 105.5t60 83.5t90 55t112 20l48 42l24 -27q-21 -13 -32 -34t-11 -46q0 -29 17.5 -62t54.5 -63l26 7l8 -44l-345 -90q37 -34 116 -61.5t207 -48.5zM59 350q0 -9 1.5 -18t5.5 -18l184 48q-16 21 -23.5 41.5t-8.5 46.5
q-12 3 -23.5 4.5t-21.5 1.5q-51 0 -82.5 -30t-31.5 -76zM107 655h-25l98 213h138l98 -213h-25l-142 130z" />
    <glyph glyph-name="edieresis" unicode="&#xeb;" horiz-adv-x="449" 
d="M417 166l-34 -179q-187 46 -275 130t-88 212q0 57 22 105.5t60 83.5t90 55t112 20l48 42l24 -27q-21 -13 -32 -34t-11 -46q0 -29 17.5 -62t54.5 -63l26 7l8 -44l-345 -90q37 -34 116 -61.5t207 -48.5zM59 350q0 -9 1.5 -18t5.5 -18l184 48q-16 21 -23.5 41.5t-8.5 46.5
q-12 3 -23.5 4.5t-21.5 1.5q-51 0 -82.5 -30t-31.5 -76zM58 767l89 89l77 -77l77 77l89 -89l-89 -89l-77 77l-77 -77z" />
    <glyph glyph-name="igrave" unicode="&#xec;" horiz-adv-x="237" 
d="M207 0h-176l25 302l-23 280l159 11zM116 655l-209 213h151l83 -213h-25z" />
    <glyph glyph-name="iacute" unicode="&#xed;" horiz-adv-x="237" 
d="M207 0h-176l25 302l-23 280l159 11zM102 655h-25l83 213h151z" />
    <glyph glyph-name="icircumflex" unicode="&#xee;" horiz-adv-x="237" 
d="M207 0h-176l25 302l-23 280l159 11zM-23 655h-25l98 213h138l98 -213h-25l-142 130z" />
    <glyph glyph-name="idieresis" unicode="&#xef;" horiz-adv-x="237" 
d="M207 0h-176l25 302l-23 280l159 11zM-47 767l89 89l77 -77l77 77l89 -89l-89 -89l-77 77l-77 -77z" />
    <glyph glyph-name="eth" unicode="&#xf0;" horiz-adv-x="581" 
d="M547 329q0 -69 -27 -121.5t-72 -93t-103 -72t-119 -57.5q-93 41 -145.5 107.5t-52.5 153.5q0 83 58.5 166.5t199.5 147.5q-13 15 -28.5 31t-32.5 32l-144 -63l-17 39l126 55q-29 25 -64 52.5t-75 57.5l11 20q56 -22 108 -46t98 -50l146 64l20 -39l-121 -52
q109 -69 171.5 -152t62.5 -180zM170 305q0 -38 13 -72t35 -62t50.5 -50.5t58.5 -37.5q31 42 43.5 96t12.5 114q0 70 -17 126t-54 108q-81 -37 -111.5 -93.5t-30.5 -128.5z" />
    <glyph glyph-name="ntilde" unicode="&#xf1;" horiz-adv-x="543" 
d="M38 0l13 311l-33 250l163 26l8 -95l1 -45q37 82 83.5 115t90.5 33q43 0 88 -33.5t76 -100.5q-6 -15 -12.5 -39t-12 -50t-9 -51.5t-2.5 -44.5l11 -276h-161l19 403q-10 37 -32 65.5t-44 28.5q-46 0 -67.5 -89.5t-21.5 -248.5l3 -159h-161zM367 787q25 0 44.5 15t26.5 46
l32 -9q-26 -81 -55.5 -113.5t-72.5 -32.5q-21 0 -43.5 7t-45.5 15t-45.5 15t-43.5 7q-22 0 -39.5 -12.5t-31.5 -48.5l-28 10q33 86 60.5 116t67.5 30q21 0 43 -7t44 -15.5t44 -15.5t43 -7z" />
    <glyph glyph-name="ograve" unicode="&#xf2;" horiz-adv-x="547" 
d="M298 621l27 -28q-16 -14 -25 -24t-9 -23q0 -20 38 -50.5t82.5 -70t82.5 -90t38 -110.5q0 -52 -28.5 -90t-68 -66t-84 -48t-75.5 -36q-56 17 -103 40t-81 54t-53 70.5t-19 89.5q0 68 47 138.5t111 133.5q33 33 61 58.5t59 51.5zM151 355q0 -96 52.5 -161t169.5 -122
q6 13 10.5 31.5t4.5 43.5q0 73 -62 150.5t-161 148.5q-8 -22 -11 -45.5t-3 -45.5zM311 655l-209 213h151l83 -213h-25z" />
    <glyph glyph-name="oacute" unicode="&#xf3;" horiz-adv-x="547" 
d="M298 621l27 -28q-16 -14 -25 -24t-9 -23q0 -20 38 -50.5t82.5 -70t82.5 -90t38 -110.5q0 -52 -28.5 -90t-68 -66t-84 -48t-75.5 -36q-56 17 -103 40t-81 54t-53 70.5t-19 89.5q0 68 47 138.5t111 133.5q33 33 61 58.5t59 51.5zM151 355q0 -96 52.5 -161t169.5 -122
q6 13 10.5 31.5t4.5 43.5q0 73 -62 150.5t-161 148.5q-8 -22 -11 -45.5t-3 -45.5zM207 655h-25l83 213h151z" />
    <glyph glyph-name="ocircumflex" unicode="&#xf4;" horiz-adv-x="547" 
d="M298 621l27 -28q-16 -14 -25 -24t-9 -23q0 -20 38 -50.5t82.5 -70t82.5 -90t38 -110.5q0 -52 -28.5 -90t-68 -66t-84 -48t-75.5 -36q-56 17 -103 40t-81 54t-53 70.5t-19 89.5q0 68 47 138.5t111 133.5q33 33 61 58.5t59 51.5zM151 355q0 -96 52.5 -161t169.5 -122
q6 13 10.5 31.5t4.5 43.5q0 73 -62 150.5t-161 148.5q-8 -22 -11 -45.5t-3 -45.5zM132 655h-25l98 213h138l98 -213h-25l-142 130z" />
    <glyph glyph-name="otilde" unicode="&#xf5;" horiz-adv-x="547" 
d="M298 621l27 -28q-16 -14 -25 -24t-9 -23q0 -20 38 -50.5t82.5 -70t82.5 -90t38 -110.5q0 -52 -28.5 -90t-68 -66t-84 -48t-75.5 -36q-56 17 -103 40t-81 54t-53 70.5t-19 89.5q0 68 47 138.5t111 133.5q33 33 61 58.5t59 51.5zM151 355q0 -96 52.5 -161t169.5 -122
q6 13 10.5 31.5t4.5 43.5q0 73 -62 150.5t-161 148.5q-8 -22 -11 -45.5t-3 -45.5zM369 787q25 0 44.5 15t26.5 46l32 -9q-26 -81 -55.5 -113.5t-72.5 -32.5q-21 0 -43.5 7t-45.5 15t-45.5 15t-43.5 7q-22 0 -39.5 -12.5t-31.5 -48.5l-28 10q33 86 60.5 116t67.5 30
q21 0 43 -7t44 -15.5t44 -15.5t43 -7z" />
    <glyph glyph-name="odieresis" unicode="&#xf6;" horiz-adv-x="547" 
d="M298 621l27 -28q-16 -14 -25 -24t-9 -23q0 -20 38 -50.5t82.5 -70t82.5 -90t38 -110.5q0 -52 -28.5 -90t-68 -66t-84 -48t-75.5 -36q-56 17 -103 40t-81 54t-53 70.5t-19 89.5q0 68 47 138.5t111 133.5q33 33 61 58.5t59 51.5zM151 355q0 -96 52.5 -161t169.5 -122
q6 13 10.5 31.5t4.5 43.5q0 73 -62 150.5t-161 148.5q-8 -22 -11 -45.5t-3 -45.5zM108 767l89 89l77 -77l77 77l89 -89l-89 -89l-77 77l-77 -77z" />
    <glyph glyph-name="divide" unicode="&#xf7;" horiz-adv-x="550" 
d="M162 495l104 104l105 -104l-105 -105zM28 345h494v-45h-494v45zM162 151l104 104l105 -104l-105 -105z" />
    <glyph glyph-name="oslash" unicode="&#xf8;" horiz-adv-x="536" 
d="M298 621l27 -28q-16 -14 -25 -24t-9 -23q0 -16 27 -40t64 -55l97 109l28 -24l-97 -109q23 -20 45 -43t39 -48t27.5 -53t10.5 -58q0 -52 -28.5 -90t-68 -66t-84 -48t-75.5 -36q-54 16 -99.5 38.5t-79.5 51.5l-72 -81l-31 25l75 84q-23 28 -36 62t-13 74q0 68 47 138.5
t111 133.5q33 33 61 58.5t59 51.5zM151 355q0 -37 7 -68.5t23 -59.5l104 117q-26 27 -57 53t-63 49q-8 -22 -11 -45.5t-3 -45.5zM388 147q0 41 -20 83.5t-57 85.5l-108 -122q27 -34 69.5 -64t100.5 -58q6 13 10.5 31.5t4.5 43.5z" />
    <glyph glyph-name="ugrave" unicode="&#xf9;" horiz-adv-x="535" 
d="M33 100q0 51 6.5 100.5t6.5 103.5l-11 273l161 16l-19 -416q10 -40 28 -70.5t37 -30.5q45 0 68 58t25 162l-6 281l161 16q-2 -29 -8 -74t-6 -98q0 -28 2 -74.5t6.5 -101.5t11 -115.5t14.5 -116.5l-164 -34l-7 109v17q-39 -55 -85.5 -86.5t-89.5 -31.5q-22 0 -45 12
t-42 29.5t-31.5 37t-12.5 34.5zM272 655l-209 213h151l83 -213h-25z" />
    <glyph glyph-name="uacute" unicode="&#xfa;" horiz-adv-x="535" 
d="M33 100q0 51 6.5 100.5t6.5 103.5l-11 273l161 16l-19 -416q10 -40 28 -70.5t37 -30.5q45 0 68 58t25 162l-6 281l161 16q-2 -29 -8 -74t-6 -98q0 -28 2 -74.5t6.5 -101.5t11 -115.5t14.5 -116.5l-164 -34l-7 109v17q-39 -55 -85.5 -86.5t-89.5 -31.5q-22 0 -45 12
t-42 29.5t-31.5 37t-12.5 34.5zM263 655h-25l83 213h151z" />
    <glyph glyph-name="ucircumflex" unicode="&#xfb;" horiz-adv-x="535" 
d="M33 100q0 51 6.5 100.5t6.5 103.5l-11 273l161 16l-19 -416q10 -40 28 -70.5t37 -30.5q45 0 68 58t25 162l-6 281l161 16q-2 -29 -8 -74t-6 -98q0 -28 2 -74.5t6.5 -101.5t11 -115.5t14.5 -116.5l-164 -34l-7 109v17q-39 -55 -85.5 -86.5t-89.5 -31.5q-22 0 -45 12
t-42 29.5t-31.5 37t-12.5 34.5zM118 655h-25l98 213h138l98 -213h-25l-142 130z" />
    <glyph glyph-name="udieresis" unicode="&#xfc;" horiz-adv-x="535" 
d="M33 100q0 51 6.5 100.5t6.5 103.5l-11 273l161 16l-19 -416q10 -40 28 -70.5t37 -30.5q45 0 68 58t25 162l-6 281l161 16q-2 -29 -8 -74t-6 -98q0 -28 2 -74.5t6.5 -101.5t11 -115.5t14.5 -116.5l-164 -34l-7 109v17q-39 -55 -85.5 -86.5t-89.5 -31.5q-22 0 -45 12
t-42 29.5t-31.5 37t-12.5 34.5zM94 767l89 89l77 -77l77 77l89 -89l-89 -89l-77 77l-77 -77z" />
    <glyph glyph-name="yacute" unicode="&#xfd;" horiz-adv-x="531" 
d="M486 -44q0 -60 -52 -101t-139 -41q-52 0 -99.5 11.5t-83 33t-57 52.5t-21.5 69q0 55 33 96.5t86 72.5l-10 57q-20 72 -41.5 141t-52.5 144l-20 31l-89 -28v52l205 57q15 -31 28 -62.5t25 -62.5q32 58 70.5 90t89.5 32q65 0 111 -51t46 -144q0 -124 -65.5 -200.5
t-143.5 -125t-143.5 -81t-65.5 -70.5q0 -12 10 -17.5t27 -5.5q52 0 104.5 10t93.5 26t67 35.5t26 38.5q0 10 -8.5 22.5t-27.5 27.5l21 18q33 -22 54.5 -53.5t21.5 -73.5zM268 459q-19 0 -33.5 -4.5t-24.5 -11.5q25 -69 45 -139t39 -141q60 13 101.5 43.5t41.5 86.5
q0 41 -16 72t-40 52t-54.5 31.5t-58.5 10.5zM239 655h-25l83 213h151z" />
    <glyph glyph-name="thorn" unicode="&#xfe;" horiz-adv-x="573" 
d="M21 -10l61 85q0 88 -0.5 183.5t-2.5 186t-5 172t-9 140.5l154 28v-307q40 51 86.5 83t93.5 32q65 0 109 -56.5t44 -178.5q0 -149 -83 -233t-240 -115l3 -145l152 4v-40l-374 -15v45l61 2q3 27 6 62t4 69q-15 -1 -30 -1.5t-30 -0.5zM313 503q-12 0 -26.5 -12t-28 -45.5
t-23 -92t-11.5 -151.5l3 -121q15 -6 31 -9.5t32 -3.5q24 0 42.5 9.5t32 34t20.5 67.5t7 109q0 118 -19.5 166.5t-59.5 48.5z" />
    <glyph glyph-name="ydieresis" unicode="&#xff;" horiz-adv-x="531" 
d="M486 -44q0 -60 -52 -101t-139 -41q-52 0 -99.5 11.5t-83 33t-57 52.5t-21.5 69q0 55 33 96.5t86 72.5l-10 57q-20 72 -41.5 141t-52.5 144l-20 31l-89 -28v52l205 57q15 -31 28 -62.5t25 -62.5q32 58 70.5 90t89.5 32q65 0 111 -51t46 -144q0 -124 -65.5 -200.5
t-143.5 -125t-143.5 -81t-65.5 -70.5q0 -12 10 -17.5t27 -5.5q52 0 104.5 10t93.5 26t67 35.5t26 38.5q0 10 -8.5 22.5t-27.5 27.5l21 18q33 -22 54.5 -53.5t21.5 -73.5zM268 459q-19 0 -33.5 -4.5t-24.5 -11.5q25 -69 45 -139t39 -141q60 13 101.5 43.5t41.5 86.5
q0 41 -16 72t-40 52t-54.5 31.5t-58.5 10.5zM105 767l89 89l77 -77l77 77l89 -89l-89 -89l-77 77l-77 -77z" />
    <glyph glyph-name="Amacron" unicode="&#x100;" horiz-adv-x="690" 
d="M297 -15q-43 10 -82.5 32t-70.5 51t-52 63t-28 67q52 32 98.5 70t82.5 78q-51 9 -94.5 30.5t-74.5 51t-48.5 67t-17.5 78.5q0 85 56 137t147 52q31 0 60 -8.5t54 -23.5l94 36l259 -764l-177 -11l-51 175zM52 568q0 -70 56.5 -125t157.5 -72q34 42 53.5 84.5t19.5 82.5
q0 75 -42 120t-108 45q-54 0 -95.5 -37.5t-41.5 -97.5zM377 426q-24 -46 -60.5 -84t-81.5 -64l183 7zM185 243q28 -40 69.5 -70.5t110.5 -60.5l77 90l-12 41h-245zM182 850v57h332v-57h-332z" />
    <glyph glyph-name="amacron" unicode="&#x101;" horiz-adv-x="493" 
d="M301 -12v105q-21 -54 -57 -80t-82 -26q-40 0 -69.5 16t-48 41.5t-26.5 59.5t-5 70q32 22 60.5 38t50.5 31q-41 63 -63 140.5t-31 160.5q35 13 77.5 22.5t86.5 15.5t87 8.5t80 2.5q25 0 47 -1.5t37 -3.5q4 -43 6.5 -97.5t2.5 -111.5q0 -54 -2.5 -115t-3.5 -101l19 -164z
M232 291q-19 -19 -36.5 -33.5t-41.5 -35.5q7 -68 33.5 -107t55.5 -39q18 0 30.5 22t19.5 61t10.5 94.5t3.5 122.5v151q-57 -12 -113 -34.5t-105 -48.5q25 -43 58.5 -78t83.5 -73zM84 708v57h332v-57h-332z" />
    <glyph glyph-name="Abreve" unicode="&#x102;" horiz-adv-x="690" 
d="M297 -15q-43 10 -82.5 32t-70.5 51t-52 63t-28 67q52 32 98.5 70t82.5 78q-51 9 -94.5 30.5t-74.5 51t-48.5 67t-17.5 78.5q0 85 56 137t147 52q31 0 60 -8.5t54 -23.5l94 36l259 -764l-177 -11l-51 175zM52 568q0 -70 56.5 -125t157.5 -72q34 42 53.5 84.5t19.5 82.5
q0 75 -42 120t-108 45q-54 0 -95.5 -37.5t-41.5 -97.5zM377 426q-24 -46 -60.5 -84t-81.5 -64l183 7zM185 243q28 -40 69.5 -70.5t110.5 -60.5l77 90l-12 41h-245zM350 848q30 0 41.5 28.5t24.5 97.5h117q-19 -81 -69 -119.5t-114 -38.5t-114 38.5t-69 119.5h117
q13 -69 24.5 -97.5t41.5 -28.5z" />
    <glyph glyph-name="abreve" unicode="&#x103;" horiz-adv-x="493" 
d="M301 -12v105q-21 -54 -57 -80t-82 -26q-40 0 -69.5 16t-48 41.5t-26.5 59.5t-5 70q32 22 60.5 38t50.5 31q-41 63 -63 140.5t-31 160.5q35 13 77.5 22.5t86.5 15.5t87 8.5t80 2.5q25 0 47 -1.5t37 -3.5q4 -43 6.5 -97.5t2.5 -111.5q0 -54 -2.5 -115t-3.5 -101l19 -164z
M232 291q-19 -19 -36.5 -33.5t-41.5 -35.5q7 -68 33.5 -107t55.5 -39q18 0 30.5 22t19.5 61t10.5 94.5t3.5 122.5v151q-57 -12 -113 -34.5t-105 -48.5q25 -43 58.5 -78t83.5 -73zM258 706q30 0 41.5 28.5t24.5 97.5h117q-19 -81 -69 -119.5t-114 -38.5t-114 38.5t-69 119.5
h117q13 -69 24.5 -97.5t41.5 -28.5z" />
    <glyph glyph-name="Aogonek" unicode="&#x104;" horiz-adv-x="690" 
d="M297 -15q-43 10 -82.5 32t-70.5 51t-52 63t-28 67q52 32 98.5 70t82.5 78q-51 9 -94.5 30.5t-74.5 51t-48.5 67t-17.5 78.5q0 85 56 137t147 52q31 0 60 -8.5t54 -23.5l95 36l258 -764l-39 -6q-93 -14 -126.5 -40t-33.5 -59q0 -20 18 -33t48 -13q29 0 59.5 6.5t69.5 19.5
v-123q-25 -9 -54.5 -14.5t-63.5 -5.5q-74 0 -114.5 35t-40.5 81q0 39 25 75.5t76 64.5l-52 176zM52 568q0 -70 56.5 -125t157.5 -72q34 42 53.5 84.5t19.5 82.5q0 75 -42 120t-108 45q-54 0 -95.5 -37.5t-41.5 -97.5zM377 426q-24 -46 -60.5 -84t-81.5 -64l183 7zM185 243
q28 -40 69.5 -70.5t110.5 -60.5l77 90l-12 41h-245z" />
    <glyph glyph-name="aogonek" unicode="&#x105;" horiz-adv-x="493" 
d="M355 -268q-74 0 -114.5 35t-40.5 81q0 38 23.5 75.5t77.5 64.5v105q-21 -54 -57 -80t-82 -26q-40 0 -69.5 16t-48 41.5t-26.5 59.5t-5 70q32 22 60.5 38t50.5 31q-41 63 -63 140.5t-31 160.5q35 13 77.5 22.5t86.5 15.5t87 8.5t80 2.5q25 0 47 -1.5t37 -3.5
q4 -43 6.5 -97.5t2.5 -111.5q0 -54 -2.5 -115t-3.5 -101l19 -164l-31 -5q-90 -15 -124 -41.5t-34 -57.5q0 -20 18 -33t48 -13q29 0 59.5 6.5t69.5 19.5v-123q-25 -9 -54.5 -14.5t-63.5 -5.5zM232 291q-19 -19 -36.5 -33.5t-41.5 -35.5q7 -68 33.5 -107t55.5 -39
q18 0 30.5 22t19.5 61t10.5 94.5t3.5 122.5v151q-57 -12 -113 -34.5t-105 -48.5q25 -43 58.5 -78t83.5 -73z" />
    <glyph glyph-name="Cacute" unicode="&#x106;" horiz-adv-x="549" 
d="M428 280v300q-29 6 -62.5 9.5t-60.5 3.5q-111 0 -173.5 -38t-62.5 -128q0 -56 33.5 -99.5t93 -75t142 -51.5t178.5 -29l-28 -182q-103 5 -189.5 37.5t-148.5 86.5t-96.5 127.5t-34.5 159.5q0 79 34 147t95 116.5t145.5 75t184.5 23.5v-469zM207 797h-25l83 213h151z" />
    <glyph glyph-name="cacute" unicode="&#x107;" horiz-adv-x="382" 
d="M56 352q0 -66 72 -106t234 -80l-34 -179q-78 23 -136.5 59t-97 82t-58 99.5t-19.5 110.5q0 54 24 100.5t66.5 81t101.5 54t127 19.5l-23 -178q-44 12 -78 16.5t-59 4.5q-57 0 -88.5 -22t-31.5 -62zM206 655h-25l83 213h151z" />
    <glyph glyph-name="Ccircumflex" unicode="&#x108;" horiz-adv-x="549" 
d="M428 280v300q-29 6 -62.5 9.5t-60.5 3.5q-111 0 -173.5 -38t-62.5 -128q0 -56 33.5 -99.5t93 -75t142 -51.5t178.5 -29l-28 -182q-103 5 -189.5 37.5t-148.5 86.5t-96.5 127.5t-34.5 159.5q0 79 34 147t95 116.5t145.5 75t184.5 23.5v-469zM132 797h-25l98 213h138
l98 -213h-25l-142 130z" />
    <glyph glyph-name="ccircumflex" unicode="&#x109;" horiz-adv-x="382" 
d="M56 352q0 -66 72 -106t234 -80l-34 -179q-78 23 -136.5 59t-97 82t-58 99.5t-19.5 110.5q0 54 24 100.5t66.5 81t101.5 54t127 19.5l-23 -178q-44 12 -78 16.5t-59 4.5q-57 0 -88.5 -22t-31.5 -62zM49 655h-25l98 213h138l98 -213h-25l-142 130z" />
    <glyph glyph-name="Cdotaccent" unicode="&#x10a;" horiz-adv-x="549" 
d="M428 280v300q-29 6 -62.5 9.5t-60.5 3.5q-111 0 -173.5 -38t-62.5 -128q0 -56 33.5 -99.5t93 -75t142 -51.5t178.5 -29l-28 -182q-103 5 -189.5 37.5t-148.5 86.5t-96.5 127.5t-34.5 159.5q0 79 34 147t95 116.5t145.5 75t184.5 23.5v-469zM199 936l104 103l104 -103
l-104 -105z" />
    <glyph glyph-name="cdotaccent" unicode="&#x10b;" horiz-adv-x="382" 
d="M56 352q0 -66 72 -106t234 -80l-34 -179q-78 23 -136.5 59t-97 82t-58 99.5t-19.5 110.5q0 54 24 100.5t66.5 81t101.5 54t127 19.5l-23 -178q-44 12 -78 16.5t-59 4.5q-57 0 -88.5 -22t-31.5 -62zM109 794l104 103l104 -103l-104 -105z" />
    <glyph glyph-name="Ccaron" unicode="&#x10c;" horiz-adv-x="549" 
d="M428 280v300q-29 6 -62.5 9.5t-60.5 3.5q-111 0 -173.5 -38t-62.5 -128q0 -56 33.5 -99.5t93 -75t142 -51.5t178.5 -29l-28 -182q-103 5 -189.5 37.5t-148.5 86.5t-96.5 127.5t-34.5 159.5q0 79 34 147t95 116.5t145.5 75t184.5 23.5v-469zM416 1010h25l-98 -213h-138
l-98 213h25l142 -130z" />
    <glyph glyph-name="ccaron" unicode="&#x10d;" horiz-adv-x="382" 
d="M56 352q0 -66 72 -106t234 -80l-34 -179q-78 23 -136.5 59t-97 82t-58 99.5t-19.5 110.5q0 54 24 100.5t66.5 81t101.5 54t127 19.5l-23 -178q-44 12 -78 16.5t-59 4.5q-57 0 -88.5 -22t-31.5 -62zM333 868h25l-98 -213h-138l-98 213h25l142 -130z" />
    <glyph glyph-name="Dcaron" unicode="&#x10e;" horiz-adv-x="672" 
d="M207 9l-204 -22l133 174l14 215l-22 216l-134 172q148 0 270.5 -30t208.5 -84t134 -129.5t48 -166.5q0 -63 -25 -120t-78.5 -102.5t-139 -77.5t-205.5 -45zM275 376l12 -209q91 5 152 19.5t98 36t52.5 48t15.5 55.5q0 40 -22.5 78.5t-63.5 70.5t-99.5 58t-130.5 41z
M478 1010h25l-98 -213h-138l-98 213h25l142 -130z" />
    <glyph glyph-name="dcaron" unicode="&#x10f;" horiz-adv-x="607" 
d="M503 775v-45l-8 -177q0 -174 5.5 -304.5t16.5 -249.5l-159 -10v139q-43 -60 -95.5 -100.5t-98.5 -40.5q-60 0 -101.5 56.5t-41.5 179.5q0 164 83.5 252t243.5 115l-3 140h-182v45h340zM181 282q0 -116 23 -156t57 -40q12 0 28.5 10.5t30.5 39.5t24 81t10 133l-4 168
q-19 6 -37 9.5t-37 3.5q-22 0 -39.5 -11.5t-30 -40t-19 -77t-6.5 -120.5zM572 550h-25l33 213h141z" />
    <glyph glyph-name="Dcroat" unicode="&#x110;" horiz-adv-x="672" 
d="M207 9l-204 -22l133 174l12 179h-109v80h107l-18 172l-134 172q148 0 270.5 -30t208.5 -84t134 -129.5t48 -166.5q0 -63 -25 -120t-78.5 -102.5t-139 -77.5t-205.5 -45zM428 420v-80h-151l10 -173q91 5 152 19.5t98 36t52.5 48t15.5 55.5q0 40 -22.5 78.5t-63.5 70.5
t-99.5 58t-130.5 41l-11 -154h150z" />
    <glyph glyph-name="dcroat" unicode="&#x111;" horiz-adv-x="547" 
d="M191 648v47h155l-1 62h1v7h157l-3 -69h58v-47h-59l-4 -95q0 -174 5.5 -304.5t16.5 -249.5l-159 -10v139q-43 -60 -95.5 -100.5t-98.5 -40.5q-60 0 -101.5 56.5t-41.5 179.5q0 164 84 252.5t244 114.5l-2 58h-156zM181 282q0 -116 23 -156t57 -40q12 0 28.5 10.5t30.5 40
t24 82t10 135.5l-4 164q-18 6 -36.5 9.5t-37.5 3.5q-22 0 -39.5 -11.5t-30 -40t-19 -77t-6.5 -120.5z" />
    <glyph glyph-name="Emacron" unicode="&#x112;" horiz-adv-x="575" 
d="M-5 55l135 80v10l16 170l-13 308l-122 137l569 -44l-74 -132l-217 37l-17 -305l59 70h164l-55 -128q-14 1 -35 4t-44 7t-46.5 9t-41.5 10l23 -182l250 19l-57 -135q-151 2 -270.5 19t-223.5 46zM122 850v57h332v-57h-332z" />
    <glyph glyph-name="emacron" unicode="&#x113;" horiz-adv-x="449" 
d="M417 166l-34 -179q-187 46 -275 130t-88 212q0 57 22 105.5t60 83.5t90 55t112 20l48 42l24 -27q-21 -13 -32 -34t-11 -46q0 -29 17.5 -62t54.5 -63l26 7l8 -44l-345 -90q37 -34 116 -61.5t207 -48.5zM59 350q0 -9 1.5 -18t5.5 -18l184 48q-16 21 -23.5 41.5t-8.5 46.5
q-12 3 -23.5 4.5t-21.5 1.5q-51 0 -82.5 -30t-31.5 -76zM58 708v57h332v-57h-332z" />
    <glyph glyph-name="Ebreve" unicode="&#x114;" horiz-adv-x="575" 
d="M-5 55l135 80v10l16 170l-13 308l-122 137l569 -44l-74 -132l-217 37l-17 -305l59 70h164l-55 -128q-14 1 -35 4t-44 7t-46.5 9t-41.5 10l23 -182l250 19l-57 -135q-151 2 -270.5 19t-223.5 46zM300 848q30 0 41.5 28.5t24.5 97.5h117q-19 -81 -69 -119.5t-114 -38.5
t-114 38.5t-69 119.5h117q13 -69 24.5 -97.5t41.5 -28.5z" />
    <glyph glyph-name="ebreve" unicode="&#x115;" horiz-adv-x="449" 
d="M417 166l-34 -179q-187 46 -275 130t-88 212q0 57 22 105.5t60 83.5t90 55t112 20l48 42l24 -27q-21 -13 -32 -34t-11 -46q0 -29 17.5 -62t54.5 -63l26 7l8 -44l-345 -90q37 -34 116 -61.5t207 -48.5zM59 350q0 -9 1.5 -18t5.5 -18l184 48q-16 21 -23.5 41.5t-8.5 46.5
q-12 3 -23.5 4.5t-21.5 1.5q-51 0 -82.5 -30t-31.5 -76zM236 706q30 0 41.5 28.5t24.5 97.5h117q-19 -81 -69 -119.5t-114 -38.5t-114 38.5t-69 119.5h117q13 -69 24.5 -97.5t41.5 -28.5z" />
    <glyph glyph-name="Edotaccent" unicode="&#x116;" horiz-adv-x="575" 
d="M-5 55l135 80v10l16 170l-13 308l-122 137l569 -44l-74 -132l-217 37l-17 -305l59 70h164l-55 -128q-14 1 -35 4t-44 7t-46.5 9t-41.5 10l23 -182l250 19l-57 -135q-151 2 -270.5 19t-223.5 46zM202 936l104 103l104 -103l-104 -105z" />
    <glyph glyph-name="edotaccent" unicode="&#x117;" horiz-adv-x="449" 
d="M417 166l-34 -179q-187 46 -275 130t-88 212q0 57 22 105.5t60 83.5t90 55t112 20l48 42l24 -27q-21 -13 -32 -34t-11 -46q0 -29 17.5 -62t54.5 -63l26 7l8 -44l-345 -90q37 -34 116 -61.5t207 -48.5zM59 350q0 -9 1.5 -18t5.5 -18l184 48q-16 21 -23.5 41.5t-8.5 46.5
q-12 3 -23.5 4.5t-21.5 1.5q-51 0 -82.5 -30t-31.5 -76zM131 794l104 103l104 -103l-104 -105z" />
    <glyph glyph-name="Eogonek" unicode="&#x118;" horiz-adv-x="575" 
d="M-5 55l135 80v10l16 170l-13 308l-122 137l569 -44l-74 -132l-217 37l-17 -305l59 70h164l-55 -128q-14 1 -35 4t-44 7t-46.5 9t-41.5 10l23 -182q48 3 108.5 7.5t141.5 11.5l-57 -135l-48 1q-42 -12 -66.5 -25.5t-37 -26t-15.5 -24t-3 -20.5q0 -20 18 -33t48 -13
q29 0 59.5 6.5t69.5 19.5v-123q-25 -9 -54.5 -14.5t-63.5 -5.5q-74 0 -114.5 35t-40.5 81q0 41 27 80.5t89 66.5q-104 7 -192.5 22.5t-169.5 37.5z" />
    <glyph glyph-name="eogonek" unicode="&#x119;" horiz-adv-x="449" 
d="M294 -268q-69 0 -107.5 35t-38.5 81t39 90t132 67q-153 48 -226 128t-73 196q0 57 22 105.5t60 83.5t90 55t112 20l48 42l24 -27q-21 -13 -32 -34t-11 -46q0 -29 17.5 -62t54.5 -63l26 7l8 -44l-345 -90q37 -34 116 -61.5t207 -48.5l-34 -179q-54 -12 -85.5 -25
t-47.5 -25t-20 -23t-4 -19q0 -20 15.5 -33t41.5 -13q28 0 56 6.5t65 19.5v-123q-23 -8 -50.5 -14t-59.5 -6zM59 350q0 -9 1.5 -18t5.5 -18l184 48q-16 21 -23.5 41.5t-8.5 46.5q-12 3 -23.5 4.5t-21.5 1.5q-51 0 -82.5 -30t-31.5 -76z" />
    <glyph glyph-name="Ecaron" unicode="&#x11a;" horiz-adv-x="575" 
d="M-5 55l135 80v10l16 170l-13 308l-122 137l569 -44l-74 -132l-217 37l-17 -305l59 70h164l-55 -128q-14 1 -35 4t-44 7t-46.5 9t-41.5 10l23 -182l250 19l-57 -135q-151 2 -270.5 19t-223.5 46zM430 1010h25l-98 -213h-138l-98 213h25l142 -130z" />
    <glyph glyph-name="ecaron" unicode="&#x11b;" horiz-adv-x="449" 
d="M417 166l-34 -179q-187 46 -275 130t-88 212q0 57 22 105.5t60 83.5t90 55t112 20l48 42l24 -27q-21 -13 -32 -34t-11 -46q0 -29 17.5 -62t54.5 -63l26 7l8 -44l-345 -90q37 -34 116 -61.5t207 -48.5zM59 350q0 -9 1.5 -18t5.5 -18l184 48q-16 21 -23.5 41.5t-8.5 46.5
q-12 3 -23.5 4.5t-21.5 1.5q-51 0 -82.5 -30t-31.5 -76zM366 868h25l-98 -213h-138l-98 213h25l142 -130z" />
    <glyph glyph-name="Gcircumflex" unicode="&#x11c;" horiz-adv-x="677" 
d="M662 336q0 -74 -40.5 -156t-125.5 -190q-96 6 -183 36.5t-152 84t-103.5 130.5t-38.5 174q0 66 34 129t94.5 111.5t145 78t184.5 29.5h21v-255h3q32 0 61.5 -11.5t51.5 -33t35 -54t13 -73.5zM302 316l-13 10q35 72 74 115.5t85 58.5v80q-29 6 -62.5 9.5t-60.5 3.5
q-118 0 -186.5 -41.5t-68.5 -128.5q0 -54 36.5 -97.5t100.5 -76t153.5 -55t194.5 -35.5q10 24 17 49t7 51q0 54 -39 84.5t-96 30.5q-46 0 -81 -16t-61 -42zM194 797h-25l98 213h138l98 -213h-25l-142 130z" />
    <glyph glyph-name="gcircumflex" unicode="&#x11d;" horiz-adv-x="461" 
d="M474 -19q0 -34 -30.5 -64.5t-79.5 -53t-110.5 -36t-122.5 -13.5q-28 0 -54 5t-45.5 16t-31.5 27.5t-12 40.5q0 45 35 83.5t91 81.5q-23 16 -37.5 32.5t-14.5 31.5q0 23 28 46.5t81 48.5q-22 6 -49 18.5t-50 33t-38.5 49t-15.5 65.5q0 43 17 80t45.5 63.5t66.5 41.5t81 15
q44 0 82 -16.5t65.5 -42.5t43 -59t15.5 -65q0 -26 -9.5 -45t-21 -39.5t-21 -46.5t-10.5 -65l-2 -122q42 -23 73 -50.5t31 -60.5zM110 495q0 -31 15.5 -63.5t44 -60.5t70.5 -49t94 -30q-6 41 -23 83t-42.5 76t-58 56t-67.5 22q-17 0 -25 -10.5t-8 -23.5zM202 200
q0 -10 12 -21t32 -23t45.5 -24.5t51.5 -25.5q-1 33 -2 78.5t-4 84.5q-53 -21 -94 -34.5t-41 -34.5zM63 -20q0 -18 18 -35.5t49 -30.5t72 -21t87 -8q40 0 49 7t9 15q0 13 -18 29t-45.5 33t-60.5 35t-64 36q-54 -18 -75 -31t-21 -29zM88 655h-25l98 213h138l98 -213h-25
l-142 130z" />
    <glyph glyph-name="Gbreve" unicode="&#x11e;" horiz-adv-x="677" 
d="M662 336q0 -74 -40.5 -156t-125.5 -190q-96 6 -183 36.5t-152 84t-103.5 130.5t-38.5 174q0 66 34 129t94.5 111.5t145 78t184.5 29.5h21v-255h3q32 0 61.5 -11.5t51.5 -33t35 -54t13 -73.5zM302 316l-13 10q35 72 74 115.5t85 58.5v80q-29 6 -62.5 9.5t-60.5 3.5
q-118 0 -186.5 -41.5t-68.5 -128.5q0 -54 36.5 -97.5t100.5 -76t153.5 -55t194.5 -35.5q10 24 17 49t7 51q0 54 -39 84.5t-96 30.5q-46 0 -81 -16t-61 -42zM348 848q30 0 41.5 28.5t24.5 97.5h117q-19 -81 -69 -119.5t-114 -38.5t-114 38.5t-69 119.5h117q13 -69 24.5 -97.5
t41.5 -28.5z" />
    <glyph glyph-name="gbreve" unicode="&#x11f;" horiz-adv-x="461" 
d="M474 -19q0 -34 -30.5 -64.5t-79.5 -53t-110.5 -36t-122.5 -13.5q-28 0 -54 5t-45.5 16t-31.5 27.5t-12 40.5q0 45 35 83.5t91 81.5q-23 16 -37.5 32.5t-14.5 31.5q0 23 28 46.5t81 48.5q-22 6 -49 18.5t-50 33t-38.5 49t-15.5 65.5q0 43 17 80t45.5 63.5t66.5 41.5t81 15
q44 0 82 -16.5t65.5 -42.5t43 -59t15.5 -65q0 -26 -9.5 -45t-21 -39.5t-21 -46.5t-10.5 -65l-2 -122q42 -23 73 -50.5t31 -60.5zM110 495q0 -31 15.5 -63.5t44 -60.5t70.5 -49t94 -30q-6 41 -23 83t-42.5 76t-58 56t-67.5 22q-17 0 -25 -10.5t-8 -23.5zM202 200
q0 -10 12 -21t32 -23t45.5 -24.5t51.5 -25.5q-1 33 -2 78.5t-4 84.5q-53 -21 -94 -34.5t-41 -34.5zM63 -20q0 -18 18 -35.5t49 -30.5t72 -21t87 -8q40 0 49 7t9 15q0 13 -18 29t-45.5 33t-60.5 35t-64 36q-54 -18 -75 -31t-21 -29zM222 706q30 0 41.5 28.5t24.5 97.5h117
q-19 -81 -69 -119.5t-114 -38.5t-114 38.5t-69 119.5h117q13 -69 24.5 -97.5t41.5 -28.5z" />
    <glyph glyph-name="Gdotaccent" unicode="&#x120;" horiz-adv-x="677" 
d="M662 336q0 -74 -40.5 -156t-125.5 -190q-96 6 -183 36.5t-152 84t-103.5 130.5t-38.5 174q0 66 34 129t94.5 111.5t145 78t184.5 29.5h21v-255h3q32 0 61.5 -11.5t51.5 -33t35 -54t13 -73.5zM302 316l-13 10q35 72 74 115.5t85 58.5v80q-29 6 -62.5 9.5t-60.5 3.5
q-118 0 -186.5 -41.5t-68.5 -128.5q0 -54 36.5 -97.5t100.5 -76t153.5 -55t194.5 -35.5q10 24 17 49t7 51q0 54 -39 84.5t-96 30.5q-46 0 -81 -16t-61 -42zM216 936l104 103l104 -103l-104 -105z" />
    <glyph glyph-name="gdotaccent" unicode="&#x121;" horiz-adv-x="461" 
d="M474 -19q0 -34 -30.5 -64.5t-79.5 -53t-110.5 -36t-122.5 -13.5q-28 0 -54 5t-45.5 16t-31.5 27.5t-12 40.5q0 45 35 83.5t91 81.5q-23 16 -37.5 32.5t-14.5 31.5q0 23 28 46.5t81 48.5q-22 6 -49 18.5t-50 33t-38.5 49t-15.5 65.5q0 43 17 80t45.5 63.5t66.5 41.5t81 15
q44 0 82 -16.5t65.5 -42.5t43 -59t15.5 -65q0 -26 -9.5 -45t-21 -39.5t-21 -46.5t-10.5 -65l-2 -122q42 -23 73 -50.5t31 -60.5zM110 495q0 -31 15.5 -63.5t44 -60.5t70.5 -49t94 -30q-6 41 -23 83t-42.5 76t-58 56t-67.5 22q-17 0 -25 -10.5t-8 -23.5zM202 200
q0 -10 12 -21t32 -23t45.5 -24.5t51.5 -25.5q-1 33 -2 78.5t-4 84.5q-53 -21 -94 -34.5t-41 -34.5zM63 -20q0 -18 18 -35.5t49 -30.5t72 -21t87 -8q40 0 49 7t9 15q0 13 -18 29t-45.5 33t-60.5 35t-64 36q-54 -18 -75 -31t-21 -29zM122 794l104 103l104 -103l-104 -105z" />
    <glyph glyph-name="Gcommaaccent" unicode="&#x122;" horiz-adv-x="677" 
d="M662 336q0 -74 -40.5 -156t-125.5 -190q-96 6 -183 36.5t-152 84t-103.5 130.5t-38.5 174q0 66 34 129t94.5 111.5t145 78t184.5 29.5h21v-255h3q32 0 61.5 -11.5t51.5 -33t35 -54t13 -73.5zM302 316l-13 10q35 72 74 115.5t85 58.5v80q-29 6 -62.5 9.5t-60.5 3.5
q-118 0 -186.5 -41.5t-68.5 -128.5q0 -54 36.5 -97.5t100.5 -76t153.5 -55t194.5 -35.5q10 24 17 49t7 51q0 54 -39 84.5t-96 30.5q-46 0 -81 -16t-61 -42zM435 -204q0 -24 -11 -48.5t-36.5 -45t-69 -35.5t-108.5 -19l-25 68q81 4 134 19t83 47l-178 53l33 103
q100 -20 139 -55t39 -87z" />
    <glyph glyph-name="gcommaaccent" unicode="&#x123;" horiz-adv-x="461" 
d="M474 -19q0 -34 -30.5 -64.5t-79.5 -53t-110.5 -36t-122.5 -13.5q-28 0 -54 5t-45.5 16t-31.5 27.5t-12 40.5q0 45 35 83.5t91 81.5q-23 16 -37.5 32.5t-14.5 31.5q0 23 28 46.5t81 48.5q-22 6 -49 18.5t-50 33t-38.5 49t-15.5 65.5q0 43 17 80t45.5 63.5t66.5 41.5t81 15
q44 0 82 -16.5t65.5 -42.5t43 -59t15.5 -65q0 -26 -9.5 -45t-21 -39.5t-21 -46.5t-10.5 -65l-2 -122q42 -23 73 -50.5t31 -60.5zM110 495q0 -31 15.5 -63.5t44 -60.5t70.5 -49t94 -30q-6 41 -23 83t-42.5 76t-58 56t-67.5 22q-17 0 -25 -10.5t-8 -23.5zM202 200
q0 -10 12 -21t32 -23t45.5 -24.5t51.5 -25.5q-1 33 -2 78.5t-4 84.5q-53 -21 -94 -34.5t-41 -34.5zM63 -20q0 -18 18 -35.5t49 -30.5t72 -21t87 -8q40 0 49 7t9 15q0 13 -18 29t-45.5 33t-60.5 35t-64 36q-54 -18 -75 -31t-21 -29zM127 798q0 24 11 48.5t36.5 45t69 35.5
t108.5 19l25 -68q-81 -4 -134 -19t-83 -47l178 -53l-33 -103q-100 20 -139 55t-39 87z" />
    <glyph glyph-name="Hcircumflex" unicode="&#x124;" horiz-adv-x="704" 
d="M55 0l19 378l-15 372h170v-99l-10 -186h271l-11 285h170v-99l-14 -273l12 -378h-172l15 301h-273l10 -301h-172zM215 378l1 -23h277l1 23l-1 33h-276zM210 797h-25l98 213h138l98 -213h-25l-142 130z" />
    <glyph glyph-name="hcircumflex" unicode="&#x125;" horiz-adv-x="538" 
d="M39 0l10 378l-19 402l21 3l28 -94l106 99l9 -4v-155l-6 -174q37 78 82.5 109t88.5 31t88 -33.5t76 -100.5q-6 -15 -12.5 -39t-12 -50t-9 -51.5t-2.5 -44.5l11 -276h-161l19 403q-10 37 -32 65.5t-44 28.5q-43 0 -65 -82t-24 -229l5 -186h-157zM125 810h-25l98 213h138
l98 -213h-25l-142 130z" />
    <glyph glyph-name="Hbar" unicode="&#x126;" horiz-adv-x="704" 
d="M55 0l19 378l-7 185h-57v47h55l-6 140h170v-99l-2 -41h258l-6 140h170v-99l-2 -41h51v-47h-54l-9 -185l12 -378h-172l15 301h-273l10 -301h-172zM219 465h271l-3 98h-263zM215 378l1 -23h277l1 23l-1 33h-276z" />
    <glyph glyph-name="hbar" unicode="&#x127;" horiz-adv-x="538" 
d="M39 0l10 378l-12 250h-61v47h59l-5 105l21 3l28 -94l106 99l9 -4v-109h149v-47h-149l-6 -173q37 78 82.5 109t88.5 31t88 -33.5t76 -100.5q-6 -15 -12.5 -39t-12 -50t-9 -51.5t-2.5 -44.5l11 -276h-161l19 403q-10 37 -32 65.5t-44 28.5q-43 0 -65 -82t-24 -229l5 -186
h-157z" />
    <glyph glyph-name="Itilde" unicode="&#x128;" horiz-adv-x="292" 
d="M64 0l19 378l-9 227l-65 153l224 -7v-100l-14 -273l12 -378h-167zM235 929q25 0 44.5 15t26.5 46l32 -9q-26 -81 -55.5 -113.5t-72.5 -32.5q-21 0 -43.5 7t-45.5 15t-45.5 15t-43.5 7q-22 0 -39.5 -12.5t-31.5 -48.5l-28 10q33 86 60.5 116t67.5 30q21 0 43 -7t44 -15.5
t44 -15.5t43 -7z" />
    <glyph glyph-name="itilde" unicode="&#x129;" horiz-adv-x="237" 
d="M207 0h-176l25 302l-23 280l159 11zM214 787q25 0 44.5 15t26.5 46l32 -9q-26 -81 -55.5 -113.5t-72.5 -32.5q-21 0 -43.5 7t-45.5 15t-45.5 15t-43.5 7q-22 0 -39.5 -12.5t-31.5 -48.5l-28 10q33 86 60.5 116t67.5 30q21 0 43 -7t44 -15.5t44 -15.5t43 -7z" />
    <glyph glyph-name="Imacron" unicode="&#x12a;" horiz-adv-x="292" 
d="M64 0l19 378l-9 227l-65 153l224 -7v-100l-14 -273l12 -378h-167zM-45 850v57h332v-57h-332z" />
    <glyph glyph-name="imacron" unicode="&#x12b;" horiz-adv-x="237" 
d="M207 0h-176l25 302l-23 280l159 11zM-47 708v57h332v-57h-332z" />
    <glyph glyph-name="Ibreve" unicode="&#x12c;" horiz-adv-x="292" 
d="M64 0l19 378l-9 227l-65 153l224 -7v-100l-14 -273l12 -378h-167zM140 848q30 0 41.5 28.5t24.5 97.5h117q-19 -81 -69 -119.5t-114 -38.5t-114 38.5t-69 119.5h117q13 -69 24.5 -97.5t41.5 -28.5z" />
    <glyph glyph-name="ibreve" unicode="&#x12d;" horiz-adv-x="237" 
d="M207 0h-176l25 302l-23 280l159 11zM131 706q30 0 41.5 28.5t24.5 97.5h117q-19 -81 -69 -119.5t-114 -38.5t-114 38.5t-69 119.5h117q13 -69 24.5 -97.5t41.5 -28.5z" />
    <glyph glyph-name="Iogonek" unicode="&#x12e;" horiz-adv-x="292" 
d="M64 0l19 378l-9 227l-65 153l224 -7v-100l-14 -273l13 -378q-54 -12 -85 -26.5t-46.5 -29t-19.5 -27.5t-4 -22q0 -20 18 -33t48 -13q29 0 59.5 6.5t69.5 19.5v-123q-25 -9 -54.5 -14.5t-63.5 -5.5q-74 0 -114.5 35t-40.5 81q0 43 29.5 84.5t98.5 67.5h-63z" />
    <glyph glyph-name="iogonek" unicode="&#x12f;" horiz-adv-x="237" 
d="M212 865q-7 -25 -16.5 -59.5t-19.5 -71.5t-19.5 -72.5t-16.5 -61.5q-28 0 -52 14t-39.5 38t-22 54.5t-0.5 63.5q37 18 71 20.5t61 2.5l18 83q10 1 20.5 -2t15.5 -9zM200 0h-2q-54 -12 -85.5 -26.5t-47 -29t-19.5 -27.5t-4 -22q0 -20 18 -33t48 -13q29 0 59.5 6.5
t69.5 19.5v-123q-25 -9 -54.5 -14.5t-63.5 -5.5q-74 0 -114.5 35t-40.5 81q0 43 29.5 84.5t98.5 67.5h-53l20 302l-33 219l159 26q7 -135 11 -272.5t4 -274.5z" />
    <glyph glyph-name="Idotaccent" unicode="&#x130;" horiz-adv-x="292" 
d="M64 0l19 378l-9 227l-65 153l224 -7v-100l-14 -273l12 -378h-167zM36 936l104 103l104 -103l-104 -105z" />
    <glyph glyph-name="dotlessi" unicode="&#x131;" horiz-adv-x="238" 
d="M207 0h-176l25 302l-23 280l159 11z" />
    <glyph glyph-name="IJ" unicode="&#x132;" horiz-adv-x="780" 
d="M64 0l19 378l-9 227l-65 153l224 -7v-100l-14 -273l12 -378h-167zM367 574l20 176h338l-32 -372l23 -227q-27 -86 -74 -125t-119 -39t-121.5 30.5t-82.5 79.5l86 109q54 -57 97.5 -89t95.5 -58l-40 158l11 189l-12 268z" />
    <glyph glyph-name="ij" unicode="&#x133;" horiz-adv-x="477" 
d="M212 865q-7 -25 -16.5 -59.5t-19.5 -71.5t-19.5 -72.5t-16.5 -61.5q-28 0 -52 14t-39.5 38t-22 54.5t-0.5 63.5q37 18 71 20.5t61 2.5l18 83q10 1 20.5 -2t15.5 -9zM200 0h-161l20 302l-33 219l159 26q7 -135 11 -272.5t4 -274.5zM444 870q-7 -25 -16.5 -59.5
t-19.5 -71.5t-19.5 -72.5t-16.5 -61.5q-28 0 -52 14t-39.5 38t-22 54.5t-0.5 63.5q37 18 71 20.5t61 2.5l18 83q10 1 20.5 -2t15.5 -9zM271 -184q6 74 14 191.5t8 254.5q0 54 -7.5 121.5t-17.5 141.5l157 28q-2 -55 0 -111.5t6.5 -108t9.5 -95.5t9 -74q0 -53 -20 -105.5
t-45 -98.5q-23 -42 -47.5 -80.5t-37.5 -67.5z" />
    <glyph glyph-name="Jcircumflex" unicode="&#x134;" horiz-adv-x="488" 
d="M75 574l20 176h338l-32 -372l23 -227q-27 -86 -74 -125t-119 -39t-121.5 30.5t-82.5 79.5l86 109q54 -57 97.5 -89t95.5 -58l-40 158l11 189l-12 268zM124 797h-25l98 213h138l98 -213h-25l-142 130z" />
    <glyph glyph-name="jcircumflex" unicode="&#x135;" horiz-adv-x="240" 
d="M34 -184q6 74 14 191.5t8 254.5q0 54 -7.5 121.5t-17.5 141.5l157 28q-2 -55 0 -111.5t6.5 -108t9.5 -95.5t9 -74q0 -53 -20 -105.5t-45 -98.5q-23 -42 -47.5 -80.5t-37.5 -67.5zM-22 655h-25l98 213h138l98 -213h-25l-142 130z" />
    <glyph glyph-name="Kcommaaccent" unicode="&#x136;" horiz-adv-x="650" 
d="M55 0l19 278l-15 472h176v-99l-9 -244h133q45 0 71 14t26 41q0 24 -14.5 45t-32 43t-32 46t-14.5 54q0 49 44.5 75.5t141.5 37.5l11 -32q-32 -10 -40.5 -21.5t-8.5 -23.5q0 -16 10.5 -34t22.5 -38t22.5 -42t10.5 -46q0 -37 -24 -70.5t-78 -67.5l158 -388h-188l-114 353
l-108 -9l-2 -66l12 -278h-178zM437 -204q0 -24 -11 -48.5t-36.5 -45t-69 -35.5t-108.5 -19l-25 68q81 4 134 19t83 47l-178 53l33 103q100 -20 139 -55t39 -87z" />
    <glyph glyph-name="kcommaaccent" unicode="&#x137;" horiz-adv-x="536" 
d="M39 0l10 378l-19 402l21 3l28 -94l106 99l9 -4v-155l-6 -323v-27h24q80 0 107 29.5t27 80.5q0 37 -27.5 61.5t-73.5 27.5l-5 15q25 42 61.5 71t76.5 29q32 0 57.5 -27.5t25.5 -75.5q0 -47 -34.5 -102t-83.5 -101l193 -287h-180l-137 236h-30l1 -52l6 -184h-157zM377 -204
q0 -24 -11 -48.5t-36.5 -45t-69 -35.5t-108.5 -19l-25 68q81 4 134 19t83 47l-178 53l33 103q100 -20 139 -55t39 -87z" />
    <glyph glyph-name="Lacute" unicode="&#x139;" horiz-adv-x="554" 
d="M6 72l114 79l16 217l-11 223l-67 159l229 -7l-28 -375l22 -229q35 -2 80.5 -1t107.5 5v124l50 20v-295h-1v-3q-152 4 -270 20t-242 63zM195 797h-25l83 213h151z" />
    <glyph glyph-name="lacute" unicode="&#x13a;" horiz-adv-x="226" 
d="M39 0l10 378l-19 402l21 3l28 -94l106 99l9 -4v-155l-8 -245l10 -384h-157zM116 805h-25l83 213h151z" />
    <glyph glyph-name="Lcommaaccent" unicode="&#x13b;" horiz-adv-x="554" 
d="M6 72l114 79l16 217l-11 223l-67 159l229 -7l-28 -375l22 -229q35 -2 80.5 -1t107.5 5v124l50 20v-295h-1v-3q-152 4 -270 20t-242 63zM376 -204q0 -24 -11 -48.5t-36.5 -45t-69 -35.5t-108.5 -19l-25 68q81 4 134 19t83 47l-178 53l33 103q100 -20 139 -55t39 -87z" />
    <glyph glyph-name="lcommaaccent" unicode="&#x13c;" horiz-adv-x="226" 
d="M39 0l10 378l-19 402l21 3l28 -94l106 99l9 -4v-155l-8 -245l10 -384h-157zM222 -204q0 -24 -11 -48.5t-36.5 -45t-69 -35.5t-108.5 -19l-25 68q81 4 134 19t83 47l-178 53l33 103q100 -20 139 -55t39 -87z" />
    <glyph glyph-name="Lcaron" unicode="&#x13d;" horiz-adv-x="554" 
d="M6 72l114 79l16 217l-11 223l-67 159l229 -7l-28 -375l22 -229q35 -2 80.5 -1t107.5 5v124l50 20v-295h-1v-3q-152 4 -270 20t-242 63zM360 530h-25l33 213h141z" />
    <glyph glyph-name="lcaron" unicode="&#x13e;" horiz-adv-x="303" 
d="M39 0l10 378l-19 402l21 3l28 -94l106 99l9 -4v-155l-8 -245l10 -384h-157zM268 550h-25l33 213h141z" />
    <glyph glyph-name="Ldot" unicode="&#x13f;" horiz-adv-x="554" 
d="M6 72l114 79l16 217l-11 223l-67 159l229 -7l-28 -375l22 -229q35 -2 80.5 -1t107.5 5v124l50 20v-295h-1v-3q-152 4 -270 20t-242 63zM430 449l104 103l104 -103l-104 -105z" />
    <glyph glyph-name="ldot" unicode="&#x140;" horiz-adv-x="418" 
d="M39 0l10 378l-19 402l21 3l28 -94l106 99l9 -4v-155l-8 -245l10 -384h-157zM222 379l104 103l104 -103l-104 -105z" />
    <glyph glyph-name="Lslash" unicode="&#x141;" horiz-adv-x="550" 
d="M6 72l114 79l16 213l-98 -63l-18 32l114 73l-9 185l-67 159l229 -7l-19 -260l95 61l21 -29l-120 -78l-5 -69l22 -229q35 -2 79.5 -1t108.5 5v124l50 20v-295h-1v-3q-152 4 -270 20t-242 63z" />
    <glyph glyph-name="lslash" unicode="&#x142;" horiz-adv-x="226" 
d="M39 0l9 344l-72 -37v53l72 37l-18 383l21 3l28 -94l106 99l9 -4v-155l-5 -159l76 40v-53l-78 -40l-1 -33l10 -384h-157z" />
    <glyph glyph-name="Nacute" unicode="&#x143;" horiz-adv-x="663" 
d="M50 0l25 352l-19 408l31 3l454 -519l-84 512l156 7l-24 -763h-24l-440 506l92 -506h-167zM265 797h-25l83 213h151z" />
    <glyph glyph-name="nacute" unicode="&#x144;" horiz-adv-x="543" 
d="M38 0l13 311l-33 250l163 26l8 -95l1 -45q37 82 83.5 115t90.5 33q43 0 88 -33.5t76 -100.5q-6 -15 -12.5 -39t-12 -50t-9 -51.5t-2.5 -44.5l11 -276h-161l19 403q-10 37 -32 65.5t-44 28.5q-46 0 -67.5 -89.5t-21.5 -248.5l3 -159h-161zM205 655h-25l83 213h151z" />
    <glyph glyph-name="Ncommaaccent" unicode="&#x145;" horiz-adv-x="663" 
d="M50 0l25 352l-19 408l31 3l454 -519l-84 512l156 7l-24 -763h-24l-440 506l92 -506h-167zM431 -204q0 -24 -11 -48.5t-36.5 -45t-69 -35.5t-108.5 -19l-25 68q81 4 134 19t83 47l-178 53l33 103q100 -20 139 -55t39 -87z" />
    <glyph glyph-name="ncommaaccent" unicode="&#x146;" horiz-adv-x="543" 
d="M38 0l13 311l-33 250l163 26l8 -95l1 -45q37 82 83.5 115t90.5 33q43 0 88 -33.5t76 -100.5q-6 -15 -12.5 -39t-12 -50t-9 -51.5t-2.5 -44.5l11 -276h-161l19 403q-10 37 -32 65.5t-44 28.5q-46 0 -67.5 -89.5t-21.5 -248.5l3 -159h-161zM371 -204q0 -24 -11 -48.5
t-36.5 -45t-69 -35.5t-108.5 -19l-25 68q81 4 134 19t83 47l-178 53l33 103q100 -20 139 -55t39 -87z" />
    <glyph glyph-name="Ncaron" unicode="&#x147;" horiz-adv-x="663" 
d="M50 0l25 352l-19 408l31 3l454 -519l-84 512l156 7l-24 -763h-24l-440 506l92 -506h-167zM474 1010h25l-98 -213h-138l-98 213h25l142 -130z" />
    <glyph glyph-name="ncaron" unicode="&#x148;" horiz-adv-x="543" 
d="M38 0l13 311l-33 250l163 26l8 -95l1 -45q37 82 83.5 115t90.5 33q43 0 88 -33.5t76 -100.5q-6 -15 -12.5 -39t-12 -50t-9 -51.5t-2.5 -44.5l11 -276h-161l19 403q-10 37 -32 65.5t-44 28.5q-46 0 -67.5 -89.5t-21.5 -248.5l3 -159h-161zM414 868h25l-98 -213h-138
l-98 213h25l142 -130z" />
    <glyph glyph-name="Omacron" unicode="&#x14c;" horiz-adv-x="705" 
d="M20 298q0 59 30 113t96 97h35q13 66 45.5 131.5t82.5 123.5q113 -17 185.5 -56t113.5 -88t56.5 -102.5t15.5 -99.5q0 -76 -40.5 -152t-124.5 -136l-45 -143q-74 10 -153.5 32t-145 58.5t-108.5 91.5t-43 130zM353 257l-111 -47q51 -18 113.5 -29.5t125.5 -21.5
q53 37 78 85t25 102q0 103 -77.5 171t-246.5 99q-4 -15 -5.5 -30t-1.5 -31q0 -68 24.5 -142.5t75.5 -155.5zM100 350q0 -46 31 -77t82 -52q-19 48 -30 97t-11 98q0 18 1.5 35.5t3.5 35.5q-40 -36 -58.5 -68.5t-18.5 -68.5zM186 850v57h332v-57h-332z" />
    <glyph glyph-name="omacron" unicode="&#x14d;" horiz-adv-x="547" 
d="M298 621l27 -28q-16 -14 -25 -24t-9 -23q0 -20 38 -50.5t82.5 -70t82.5 -90t38 -110.5q0 -52 -28.5 -90t-68 -66t-84 -48t-75.5 -36q-56 17 -103 40t-81 54t-53 70.5t-19 89.5q0 68 47 138.5t111 133.5q33 33 61 58.5t59 51.5zM151 355q0 -96 52.5 -161t169.5 -122
q6 13 10.5 31.5t4.5 43.5q0 73 -62 150.5t-161 148.5q-8 -22 -11 -45.5t-3 -45.5zM84 708v57h332v-57h-332z" />
    <glyph glyph-name="Obreve" unicode="&#x14e;" horiz-adv-x="705" 
d="M20 298q0 59 30 113t96 97h35q13 66 45.5 131.5t82.5 123.5q113 -17 185.5 -56t113.5 -88t56.5 -102.5t15.5 -99.5q0 -76 -40.5 -152t-124.5 -136l-45 -143q-74 10 -153.5 32t-145 58.5t-108.5 91.5t-43 130zM353 257l-111 -47q51 -18 113.5 -29.5t125.5 -21.5
q53 37 78 85t25 102q0 103 -77.5 171t-246.5 99q-4 -15 -5.5 -30t-1.5 -31q0 -68 24.5 -142.5t75.5 -155.5zM100 350q0 -46 31 -77t82 -52q-19 48 -30 97t-11 98q0 18 1.5 35.5t3.5 35.5q-40 -36 -58.5 -68.5t-18.5 -68.5zM364 848q30 0 41.5 28.5t24.5 97.5h117
q-19 -81 -69 -119.5t-114 -38.5t-114 38.5t-69 119.5h117q13 -69 24.5 -97.5t41.5 -28.5z" />
    <glyph glyph-name="obreve" unicode="&#x14f;" horiz-adv-x="547" 
d="M298 621l27 -28q-16 -14 -25 -24t-9 -23q0 -20 38 -50.5t82.5 -70t82.5 -90t38 -110.5q0 -52 -28.5 -90t-68 -66t-84 -48t-75.5 -36q-56 17 -103 40t-81 54t-53 70.5t-19 89.5q0 68 47 138.5t111 133.5q33 33 61 58.5t59 51.5zM151 355q0 -96 52.5 -161t169.5 -122
q6 13 10.5 31.5t4.5 43.5q0 73 -62 150.5t-161 148.5q-8 -22 -11 -45.5t-3 -45.5zM286 706q30 0 41.5 28.5t24.5 97.5h117q-19 -81 -69 -119.5t-114 -38.5t-114 38.5t-69 119.5h117q13 -69 24.5 -97.5t41.5 -28.5z" />
    <glyph glyph-name="Ohungarumlaut" unicode="&#x150;" horiz-adv-x="705" 
d="M20 298q0 59 30 113t96 97h35q13 66 45.5 131.5t82.5 123.5q113 -17 185.5 -56t113.5 -88t56.5 -102.5t15.5 -99.5q0 -76 -40.5 -152t-124.5 -136l-45 -143q-74 10 -153.5 32t-145 58.5t-108.5 91.5t-43 130zM353 257l-111 -47q51 -18 113.5 -29.5t125.5 -21.5
q53 37 78 85t25 102q0 103 -77.5 171t-246.5 99q-4 -15 -5.5 -30t-1.5 -31q0 -68 24.5 -142.5t75.5 -155.5zM100 350q0 -46 31 -77t82 -52q-19 48 -30 97t-11 98q0 18 1.5 35.5t3.5 35.5q-40 -36 -58.5 -68.5t-18.5 -68.5zM435 797h-25l33 213h141zM235 797h-25l33 213h141z
" />
    <glyph glyph-name="ohungarumlaut" unicode="&#x151;" horiz-adv-x="547" 
d="M298 621l27 -28q-16 -14 -25 -24t-9 -23q0 -20 38 -50.5t82.5 -70t82.5 -90t38 -110.5q0 -52 -28.5 -90t-68 -66t-84 -48t-75.5 -36q-56 17 -103 40t-81 54t-53 70.5t-19 89.5q0 68 47 138.5t111 133.5q33 33 61 58.5t59 51.5zM151 355q0 -96 52.5 -161t169.5 -122
q6 13 10.5 31.5t4.5 43.5q0 73 -62 150.5t-161 148.5q-8 -22 -11 -45.5t-3 -45.5zM357 655h-25l33 213h141zM157 655h-25l33 213h141z" />
    <glyph glyph-name="OE" unicode="&#x152;" horiz-adv-x="950" 
d="M871 121l-68 -151q-166 12 -309.5 44t-247 85.5t-163 132t-59.5 184.5q0 72 27.5 135.5t81 110.5t133 74t183.5 27q60 0 115.5 -7t113.5 -16t123 -19t142 -16l-27 -41l-159 -236q30 0 61.5 3t74.5 8l4 -4l-104 -130q-60 -9 -107 -10t-107 6l15 -151q65 -10 135 -17.5
t142 -11.5zM81 470q0 -51 25.5 -95t71.5 -79.5t111.5 -63.5t144.5 -49l13 185l-13 276q-32 4 -64 7t-64 3q-104 0 -164.5 -47.5t-60.5 -136.5zM572 368l3 -29l78 96q20 -2 37.5 -3.5t33.5 -2.5l96 141q-61 8 -119.5 20t-112.5 24z" />
    <glyph glyph-name="oe" unicode="&#x153;" horiz-adv-x="858" 
d="M298 621l27 -28q-16 -14 -25 -24t-9 -23t16 -29.5t40 -36.5t53.5 -44.5t55.5 -52.5q7 50 31.5 89t60 66t81 41t95.5 14l43 33l30 -33q-19 -13 -29.5 -35t-10.5 -44t13 -49.5t53 -61.5l28 7v-46l-328 -86q1 -4 2.5 -8t2.5 -8q39 -40 114 -70.5t174 -46.5l-40 -157
q-91 19 -160.5 50t-126.5 77q-21 -24 -49 -43.5t-57 -35t-57 -28t-50 -23.5q-56 17 -103 40t-81 54t-53 70.5t-19 89.5q0 68 47 138.5t111 133.5q33 33 61 58.5t59 51.5zM151 355q0 -96 52.5 -161t169.5 -122q6 13 10.5 31.5t4.5 43.5q0 73 -62 150.5t-161 148.5
q-8 -22 -11 -45.5t-3 -45.5zM628 441q-60 12 -98 -16.5t-32 -94.5q1 -3 3.5 -5.5t3.5 -5.5l160 42q-13 20 -21.5 40.5t-15.5 39.5z" />
    <glyph glyph-name="Racute" unicode="&#x154;" horiz-adv-x="696" 
d="M139 0l19 207l-167 -12l179 153l-33 262l-137 154q304 -10 463.5 -74t159.5 -196q0 -72 -39.5 -126t-116.5 -89l219 -279h-181l-174 235q-8 -2 -17 -4t-18 -3l7 -228h-164zM291 402l2 -50l52 2q70 3 113.5 10.5t67.5 19t32 27t8 34.5q0 29 -21 53.5t-56.5 43t-84 32.5
t-103.5 22zM281 797h-25l83 213h151z" />
    <glyph glyph-name="racute" unicode="&#x155;" horiz-adv-x="436" 
d="M43 -10l17 185l-50 407l159 34l7 -109l5 -102q43 126 94 181t96 55q18 0 37 -8t35 -21.5t26.5 -31.5t10.5 -39t-14 -39t-30.5 -45.5t-30.5 -72t-14 -118.5h-29q0 71 -7.5 115t-19 67.5t-24.5 31.5t-23 8q-43 0 -66 -102t-23 -328l3 -58zM161 655h-25l83 213h151z" />
    <glyph glyph-name="Rcommaaccent" unicode="&#x156;" horiz-adv-x="696" 
d="M139 0l19 207l-167 -12l179 153l-33 262l-137 154q304 -10 463.5 -74t159.5 -196q0 -72 -39.5 -126t-116.5 -89l219 -279h-181l-174 235q-8 -2 -17 -4t-18 -3l7 -228h-164zM291 402l2 -50l52 2q70 3 113.5 10.5t67.5 19t32 27t8 34.5q0 29 -21 53.5t-56.5 43t-84 32.5
t-103.5 22zM497 -204q0 -24 -11 -48.5t-36.5 -45t-69 -35.5t-108.5 -19l-25 68q81 4 134 19t83 47l-178 53l33 103q100 -20 139 -55t39 -87z" />
    <glyph glyph-name="rcommaaccent" unicode="&#x157;" horiz-adv-x="436" 
d="M43 -10l17 185l-50 407l159 34l7 -109l5 -102q43 126 94 181t96 55q18 0 37 -8t35 -21.5t26.5 -31.5t10.5 -39t-14 -39t-30.5 -45.5t-30.5 -72t-14 -118.5h-29q0 71 -7.5 115t-19 67.5t-24.5 31.5t-23 8q-43 0 -66 -102t-23 -328l3 -58zM249 -204q0 -24 -11 -48.5
t-36.5 -45t-69 -35.5t-108.5 -19l-25 68q81 4 134 19t83 47l-178 53l33 103q100 -20 139 -55t39 -87z" />
    <glyph glyph-name="Rcaron" unicode="&#x158;" horiz-adv-x="696" 
d="M139 0l19 207l-167 -12l179 153l-33 262l-137 154q304 -10 463.5 -74t159.5 -196q0 -72 -39.5 -126t-116.5 -89l219 -279h-181l-174 235q-8 -2 -17 -4t-18 -3l7 -228h-164zM291 402l2 -50l52 2q70 3 113.5 10.5t67.5 19t32 27t8 34.5q0 29 -21 53.5t-56.5 43t-84 32.5
t-103.5 22zM490 1010h25l-98 -213h-138l-98 213h25l142 -130z" />
    <glyph glyph-name="rcaron" unicode="&#x159;" horiz-adv-x="436" 
d="M43 -10l17 185l-50 407l159 34l7 -109l5 -102q43 126 94 181t96 55q18 0 37 -8t35 -21.5t26.5 -31.5t10.5 -39t-14 -39t-30.5 -45.5t-30.5 -72t-14 -118.5h-29q0 71 -7.5 115t-19 67.5t-24.5 31.5t-23 8q-43 0 -66 -102t-23 -328l3 -58zM370 868h25l-98 -213h-138
l-98 213h25l142 -130z" />
    <glyph glyph-name="Sacute" unicode="&#x15a;" horiz-adv-x="616" 
d="M588 206q0 -113 -76.5 -166t-202.5 -53q-134 0 -212.5 44t-78.5 120q0 56 36 108t111 101q-43 33 -71 79.5t-28 112.5q0 41 16 79t48 67.5t80.5 47t112.5 17.5q47 0 90.5 -12t77 -34t53.5 -52.5t20 -67.5q0 -29 -10.5 -58t-23.5 -56.5t-26 -54t-18 -51.5q44 -33 73 -75
t29 -96zM139 615q0 -32 31 -58.5t77.5 -51t102.5 -50.5t105 -57q2 68 -15 120.5t-48.5 87.5t-75.5 53.5t-97 18.5q-43 0 -61.5 -18t-18.5 -45zM106 229q0 -27 29.5 -56t73.5 -53t97 -39.5t100 -15.5q48 0 72.5 15t24.5 46q0 32 -22 56t-56.5 44t-78.5 38t-88 40
q-85 -7 -118.5 -28t-33.5 -47zM241 797h-25l83 213h151z" />
    <glyph glyph-name="sacute" unicode="&#x15b;" horiz-adv-x="473" 
d="M463 168q0 -40 -20.5 -73.5t-55.5 -57t-80.5 -37t-94.5 -13.5q-106 0 -151.5 35.5t-45.5 77.5q0 51 34 89t87 72q-39 28 -65 66t-26 94q0 34 15.5 65.5t43 55t64.5 37.5t79 14q40 0 74 -11.5t59 -30.5t39 -43t14 -49q0 -26 -7 -46.5t-17.5 -38t-21.5 -33t-20 -32.5
q40 -27 68 -61t28 -80zM116 481q0 -23 20.5 -42.5t52.5 -37t71.5 -35.5t76.5 -39q-1 43 -16 79t-38.5 61t-53 38.5t-58.5 13.5q-34 0 -44.5 -11t-10.5 -27zM101 172q0 -18 23.5 -37.5t59 -35.5t76.5 -26t76 -10q18 0 27 7t9 20q0 21 -12.5 37t-33.5 30t-48.5 27.5
t-56.5 27.5q-39 0 -62.5 -2.5t-36.5 -8t-17 -13t-4 -16.5zM232 655h-25l83 213h151z" />
    <glyph glyph-name="Scircumflex" unicode="&#x15c;" horiz-adv-x="616" 
d="M588 206q0 -113 -76.5 -166t-202.5 -53q-134 0 -212.5 44t-78.5 120q0 56 36 108t111 101q-43 33 -71 79.5t-28 112.5q0 41 16 79t48 67.5t80.5 47t112.5 17.5q47 0 90.5 -12t77 -34t53.5 -52.5t20 -67.5q0 -29 -10.5 -58t-23.5 -56.5t-26 -54t-18 -51.5q44 -33 73 -75
t29 -96zM139 615q0 -32 31 -58.5t77.5 -51t102.5 -50.5t105 -57q2 68 -15 120.5t-48.5 87.5t-75.5 53.5t-97 18.5q-43 0 -61.5 -18t-18.5 -45zM106 229q0 -27 29.5 -56t73.5 -53t97 -39.5t100 -15.5q48 0 72.5 15t24.5 46q0 32 -22 56t-56.5 44t-78.5 38t-88 40
q-85 -7 -118.5 -28t-33.5 -47zM166 797h-25l98 213h138l98 -213h-25l-142 130z" />
    <glyph glyph-name="scircumflex" unicode="&#x15d;" horiz-adv-x="473" 
d="M463 168q0 -40 -20.5 -73.5t-55.5 -57t-80.5 -37t-94.5 -13.5q-106 0 -151.5 35.5t-45.5 77.5q0 51 34 89t87 72q-39 28 -65 66t-26 94q0 34 15.5 65.5t43 55t64.5 37.5t79 14q40 0 74 -11.5t59 -30.5t39 -43t14 -49q0 -26 -7 -46.5t-17.5 -38t-21.5 -33t-20 -32.5
q40 -27 68 -61t28 -80zM116 481q0 -23 20.5 -42.5t52.5 -37t71.5 -35.5t76.5 -39q-1 43 -16 79t-38.5 61t-53 38.5t-58.5 13.5q-34 0 -44.5 -11t-10.5 -27zM101 172q0 -18 23.5 -37.5t59 -35.5t76.5 -26t76 -10q18 0 27 7t9 20q0 21 -12.5 37t-33.5 30t-48.5 27.5
t-56.5 27.5q-39 0 -62.5 -2.5t-36.5 -8t-17 -13t-4 -16.5zM99 655h-25l98 213h138l98 -213h-25l-142 130z" />
    <glyph glyph-name="Scedilla" unicode="&#x15e;" horiz-adv-x="616" 
d="M207 -148l63 136q-117 7 -184.5 50t-67.5 113q0 56 36 108t111 101q-43 33 -71 79.5t-28 112.5q0 41 16 79t48 67.5t80.5 47t112.5 17.5q47 0 90.5 -12t77 -34t53.5 -52.5t20 -67.5q0 -29 -10.5 -58t-23.5 -56.5t-26 -54t-18 -51.5q44 -33 73 -75t29 -96
q0 -113 -76.5 -166t-202.5 -53h-3l-35 -77q24 17 47 25t45 8q40 0 67.5 -29t27.5 -75q0 -69 -61 -102t-197 -55l-17 88q72 12 115.5 24.5t67 25t31 25.5t7.5 25q0 18 -10 28.5t-32 10.5q-23 0 -51.5 -14t-77.5 -57zM139 615q0 -32 31 -58.5t77.5 -51t102.5 -50.5t105 -57
q2 68 -15 120.5t-48.5 87.5t-75.5 53.5t-97 18.5q-43 0 -61.5 -18t-18.5 -45zM106 229q0 -27 29.5 -56t73.5 -53t97 -39.5t100 -15.5q48 0 72.5 15t24.5 46q0 32 -22 56t-56.5 44t-78.5 38t-88 40q-85 -7 -118.5 -28t-33.5 -47z" />
    <glyph glyph-name="scedilla" unicode="&#x15f;" horiz-adv-x="473" 
d="M134 -148l62 135q-97 3 -139 38t-42 75q0 51 34 89t87 72q-39 28 -65 66t-26 94q0 34 15.5 65.5t43 55t64.5 37.5t79 14q40 0 74 -11.5t59 -30.5t39 -43t14 -49q0 -26 -7 -46.5t-17.5 -38t-21.5 -33t-20 -32.5q40 -27 68 -61t28 -80q0 -38 -18.5 -70t-50 -55.5
t-73.5 -37.5t-88 -17l-35 -78q24 17 47 25t45 8q40 0 67.5 -29t27.5 -75q0 -69 -61 -102t-197 -55l-17 88q72 12 115.5 24.5t67 25t31 25.5t7.5 25q0 18 -10 28.5t-32 10.5q-23 0 -51.5 -14t-77.5 -57zM116 481q0 -23 20.5 -42.5t52.5 -37t71.5 -35.5t76.5 -39q-1 43 -16 79
t-38.5 61t-53 38.5t-58.5 13.5q-34 0 -44.5 -11t-10.5 -27zM101 172q0 -18 23.5 -37.5t59 -35.5t76.5 -26t76 -10q18 0 27 7t9 20q0 21 -12.5 37t-33.5 30t-48.5 27.5t-56.5 27.5q-39 0 -62.5 -2.5t-36.5 -8t-17 -13t-4 -16.5z" />
    <glyph glyph-name="Scaron" unicode="&#x160;" horiz-adv-x="616" 
d="M588 206q0 -113 -76.5 -166t-202.5 -53q-134 0 -212.5 44t-78.5 120q0 56 36 108t111 101q-43 33 -71 79.5t-28 112.5q0 41 16 79t48 67.5t80.5 47t112.5 17.5q47 0 90.5 -12t77 -34t53.5 -52.5t20 -67.5q0 -29 -10.5 -58t-23.5 -56.5t-26 -54t-18 -51.5q44 -33 73 -75
t29 -96zM139 615q0 -32 31 -58.5t77.5 -51t102.5 -50.5t105 -57q2 68 -15 120.5t-48.5 87.5t-75.5 53.5t-97 18.5q-43 0 -61.5 -18t-18.5 -45zM106 229q0 -27 29.5 -56t73.5 -53t97 -39.5t100 -15.5q48 0 72.5 15t24.5 46q0 32 -22 56t-56.5 44t-78.5 38t-88 40
q-85 -7 -118.5 -28t-33.5 -47zM450 1010h25l-98 -213h-138l-98 213h25l142 -130z" />
    <glyph glyph-name="scaron" unicode="&#x161;" horiz-adv-x="473" 
d="M463 168q0 -40 -20.5 -73.5t-55.5 -57t-80.5 -37t-94.5 -13.5q-106 0 -151.5 35.5t-45.5 77.5q0 51 34 89t87 72q-39 28 -65 66t-26 94q0 34 15.5 65.5t43 55t64.5 37.5t79 14q40 0 74 -11.5t59 -30.5t39 -43t14 -49q0 -26 -7 -46.5t-17.5 -38t-21.5 -33t-20 -32.5
q40 -27 68 -61t28 -80zM116 481q0 -23 20.5 -42.5t52.5 -37t71.5 -35.5t76.5 -39q-1 43 -16 79t-38.5 61t-53 38.5t-58.5 13.5q-34 0 -44.5 -11t-10.5 -27zM101 172q0 -18 23.5 -37.5t59 -35.5t76.5 -26t76 -10q18 0 27 7t9 20q0 21 -12.5 37t-33.5 30t-48.5 27.5
t-56.5 27.5q-39 0 -62.5 -2.5t-36.5 -8t-17 -13t-4 -16.5zM386 868h25l-98 -213h-138l-98 213h25l142 -130z" />
    <glyph glyph-name="uni0162" unicode="&#x162;" horiz-adv-x="709" 
d="M260 0l19 378l-3 67l-246 -111l20 176h224l-7 171l-237 -107l20 176h607l22 -176l-239 109v-32l-7 -141h224l22 -176l-249 114l-4 -70l12 -378h-178zM453 -204q0 -24 -11 -48.5t-36.5 -45t-69 -35.5t-108.5 -19l-25 68q81 4 134 19t83 47l-178 53l33 103q100 -20 139 -55
t39 -87z" />
    <glyph glyph-name="uni0163" unicode="&#x163;" horiz-adv-x="463" 
d="M456 154q-57 -96 -105 -131.5t-104 -35.5q-29 0 -59.5 11.5t-54.5 33.5t-37 53.5t-8 70.5l18 141l-11 184l-83 22v19l209 183l18 -3l2 -129h206q-2 -17 -8 -44.5t-13 -52.5h-185l-5 -270q-1 -54 24.5 -78.5t62.5 -24.5q25 0 51 14.5t57 55.5zM352 -204q0 -24 -11 -48.5
t-36.5 -45t-69 -35.5t-108.5 -19l-25 68q81 4 134 19t83 47l-178 53l33 103q100 -20 139 -55t39 -87z" />
    <glyph glyph-name="Tcaron" unicode="&#x164;" horiz-adv-x="709" 
d="M260 0l19 378l-3 67l-246 -111l20 176h224l-7 171l-237 -107l20 176h607l22 -176l-239 109v-32l-7 -141h224l22 -176l-249 114l-4 -70l12 -378h-178zM496 1010h25l-98 -213h-138l-98 213h25l142 -130z" />
    <glyph glyph-name="tcaron" unicode="&#x165;" horiz-adv-x="470" 
d="M456 154q-57 -96 -105 -131.5t-104 -35.5q-29 0 -59.5 11.5t-54.5 33.5t-37 53.5t-8 70.5l18 141l-11 184l-83 22v19l209 183l18 -3l2 -129h206q-2 -17 -8 -44.5t-13 -52.5h-185l-5 -270q-1 -54 24.5 -78.5t62.5 -24.5q25 0 51 14.5t57 55.5zM326 600h-25l33 213h141z
" />
    <glyph glyph-name="Tbar" unicode="&#x166;" horiz-adv-x="709" 
d="M110 203v52l164 17l5 106l-3 67l-246 -111l20 176h224l-7 171l-237 -107l20 176h607l22 -176l-239 109v-32l-7 -141h224l22 -176l-249 114l-4 -70l3 -90l169 17v-52l-167 -17l7 -236h-178l11 219z" />
    <glyph glyph-name="tbar" unicode="&#x167;" horiz-adv-x="463" 
d="M356 306l-118 -14l-2 -86q-1 -54 24.5 -78.5t62.5 -24.5q25 0 51 14.5t57 55.5l25 -19q-57 -96 -105 -131.5t-104 -35.5q-29 0 -59.5 11.5t-54.5 33.5t-37 53.5t-8 70.5l15 121l-80 -9v47l81 9l-9 157l-83 22v19l209 183l18 -3l2 -129h206q-2 -17 -8 -44.5t-13 -52.5
h-185l-3 -136l118 13v-47z" />
    <glyph glyph-name="Utilde" unicode="&#x168;" horiz-adv-x="685" 
d="M25 166q91 90 150 157t59 130q0 44 -36.5 87t-142.5 63l69 160q110 0 164 -43.5t54 -116.5q0 -82 -43 -168t-110 -173q16 -66 61 -99t97 -33q75 0 101 76.5t21 213.5l-13 330h170v-99l-14 -273l12 -378h-172l8 150q-17 -43 -43.5 -74t-57 -51t-63 -29t-60.5 -9
q-75 0 -135 49t-76 130zM488 929q25 0 44.5 15t26.5 46l32 -9q-26 -81 -55.5 -113.5t-72.5 -32.5q-21 0 -43.5 7t-45.5 15t-45.5 15t-43.5 7q-22 0 -39.5 -12.5t-31.5 -48.5l-28 10q33 86 60.5 116t67.5 30q21 0 43 -7t44 -15.5t44 -15.5t43 -7z" />
    <glyph glyph-name="utilde" unicode="&#x169;" horiz-adv-x="535" 
d="M33 100q0 51 6.5 100.5t6.5 103.5l-11 273l161 16l-19 -416q10 -40 28 -70.5t37 -30.5q45 0 68 58t25 162l-6 281l161 16q-2 -29 -8 -74t-6 -98q0 -28 2 -74.5t6.5 -101.5t11 -115.5t14.5 -116.5l-164 -34l-7 109v17q-39 -55 -85.5 -86.5t-89.5 -31.5q-22 0 -45 12
t-42 29.5t-31.5 37t-12.5 34.5zM370 787q25 0 44.5 15t26.5 46l32 -9q-26 -81 -55.5 -113.5t-72.5 -32.5q-21 0 -43.5 7t-45.5 15t-45.5 15t-43.5 7q-22 0 -39.5 -12.5t-31.5 -48.5l-28 10q33 86 60.5 116t67.5 30q21 0 43 -7t44 -15.5t44 -15.5t43 -7z" />
    <glyph glyph-name="Umacron" unicode="&#x16a;" horiz-adv-x="685" 
d="M25 166q91 90 150 157t59 130q0 44 -36.5 87t-142.5 63l69 160q110 0 164 -43.5t54 -116.5q0 -82 -43 -168t-110 -173q16 -66 61 -99t97 -33q75 0 101 76.5t21 213.5l-13 330h170v-99l-14 -273l12 -378h-172l8 150q-17 -43 -43.5 -74t-57 -51t-63 -29t-60.5 -9
q-75 0 -135 49t-76 130zM176 850v57h332v-57h-332z" />
    <glyph glyph-name="umacron" unicode="&#x16b;" horiz-adv-x="535" 
d="M33 100q0 51 6.5 100.5t6.5 103.5l-11 273l161 16l-19 -416q10 -40 28 -70.5t37 -30.5q45 0 68 58t25 162l-6 281l161 16q-2 -29 -8 -74t-6 -98q0 -28 2 -74.5t6.5 -101.5t11 -115.5t14.5 -116.5l-164 -34l-7 109v17q-39 -55 -85.5 -86.5t-89.5 -31.5q-22 0 -45 12
t-42 29.5t-31.5 37t-12.5 34.5zM94 708v57h332v-57h-332z" />
    <glyph glyph-name="Ubreve" unicode="&#x16c;" horiz-adv-x="685" 
d="M25 166q91 90 150 157t59 130q0 44 -36.5 87t-142.5 63l69 160q110 0 164 -43.5t54 -116.5q0 -82 -43 -168t-110 -173q16 -66 61 -99t97 -33q75 0 101 76.5t21 213.5l-13 330h170v-99l-14 -273l12 -378h-172l8 150q-17 -43 -43.5 -74t-57 -51t-63 -29t-60.5 -9
q-75 0 -135 49t-76 130zM354 848q30 0 41.5 28.5t24.5 97.5h117q-19 -81 -69 -119.5t-114 -38.5t-114 38.5t-69 119.5h117q13 -69 24.5 -97.5t41.5 -28.5z" />
    <glyph glyph-name="ubreve" unicode="&#x16d;" horiz-adv-x="535" 
d="M33 100q0 51 6.5 100.5t6.5 103.5l-11 273l161 16l-19 -416q10 -40 28 -70.5t37 -30.5q45 0 68 58t25 162l-6 281l161 16q-2 -29 -8 -74t-6 -98q0 -28 2 -74.5t6.5 -101.5t11 -115.5t14.5 -116.5l-164 -34l-7 109v17q-39 -55 -85.5 -86.5t-89.5 -31.5q-22 0 -45 12
t-42 29.5t-31.5 37t-12.5 34.5zM263 706q30 0 41.5 28.5t24.5 97.5h117q-19 -81 -69 -119.5t-114 -38.5t-114 38.5t-69 119.5h117q13 -69 24.5 -97.5t41.5 -28.5z" />
    <glyph glyph-name="Uring" unicode="&#x16e;" horiz-adv-x="685" 
d="M25 166q91 90 150 157t59 130q0 44 -36.5 87t-142.5 63l69 160q110 0 164 -43.5t54 -116.5q0 -82 -43 -168t-110 -173q16 -66 61 -99t97 -33q75 0 101 76.5t21 213.5l-13 330h170v-99l-14 -273l12 -378h-172l8 150q-17 -43 -43.5 -74t-57 -51t-63 -29t-60.5 -9
q-75 0 -135 49t-76 130zM377 794q-51 0 -87.5 35.5t-36.5 85.5q0 49 36.5 84.5t87.5 35.5t88 -35.5t37 -84.5q0 -50 -37 -85.5t-88 -35.5zM377 842q31 0 52 22t21 52q0 31 -21 53t-52 22t-53 -22t-22 -53q0 -30 22 -52t53 -22z" />
    <glyph glyph-name="uring" unicode="&#x16f;" horiz-adv-x="535" 
d="M33 100q0 51 6.5 100.5t6.5 103.5l-11 273l161 16l-19 -416q10 -40 28 -70.5t37 -30.5q45 0 68 58t25 162l-6 281l161 16q-2 -29 -8 -74t-6 -98q0 -28 2 -74.5t6.5 -101.5t11 -115.5t14.5 -116.5l-164 -34l-7 109v17q-39 -55 -85.5 -86.5t-89.5 -31.5q-22 0 -45 12
t-42 29.5t-31.5 37t-12.5 34.5zM273 652q-51 0 -87.5 35.5t-36.5 85.5q0 49 36.5 84.5t87.5 35.5t88 -35.5t37 -84.5q0 -50 -37 -85.5t-88 -35.5zM273 700q31 0 52 22t21 52q0 31 -21 53t-52 22t-53 -22t-22 -53q0 -30 22 -52t53 -22z" />
    <glyph glyph-name="Uhungarumlaut" unicode="&#x170;" horiz-adv-x="685" 
d="M25 166q91 90 150 157t59 130q0 44 -36.5 87t-142.5 63l69 160q110 0 164 -43.5t54 -116.5q0 -82 -43 -168t-110 -173q16 -66 61 -99t97 -33q75 0 101 76.5t21 213.5l-13 330h170v-99l-14 -273l12 -378h-172l8 150q-17 -43 -43.5 -74t-57 -51t-63 -29t-60.5 -9
q-75 0 -135 49t-76 130zM425 797h-25l33 213h141zM225 797h-25l33 213h141z" />
    <glyph glyph-name="uhungarumlaut" unicode="&#x171;" horiz-adv-x="535" 
d="M33 100q0 51 6.5 100.5t6.5 103.5l-11 273l161 16l-19 -416q10 -40 28 -70.5t37 -30.5q45 0 68 58t25 162l-6 281l161 16q-2 -29 -8 -74t-6 -98q0 -28 2 -74.5t6.5 -101.5t11 -115.5t14.5 -116.5l-164 -34l-7 109v17q-39 -55 -85.5 -86.5t-89.5 -31.5q-22 0 -45 12
t-42 29.5t-31.5 37t-12.5 34.5zM348 655h-25l33 213h141zM148 655h-25l33 213h141z" />
    <glyph glyph-name="Uogonek" unicode="&#x172;" horiz-adv-x="685" 
d="M25 166q91 90 150 157t59 130q0 44 -36.5 87t-142.5 63l69 160q110 0 164 -43.5t54 -116.5q0 -82 -43 -168t-110 -173q16 -66 61 -99t97 -33q75 0 101 76.5t21 213.5l-13 330h170v-99l-14 -273l12 -378h-68q-54 -12 -86 -26.5t-47.5 -29t-19.5 -27.5t-4 -22q0 -20 18 -33
t48 -13q29 0 59.5 6.5t69.5 19.5v-123q-25 -9 -54.5 -14.5t-63.5 -5.5q-74 0 -114.5 35t-40.5 81q0 43 30.5 85t100.5 68l8 149q-17 -43 -43.5 -74t-57 -51t-63 -29t-60.5 -9q-75 0 -135 49t-76 130z" />
    <glyph glyph-name="uogonek" unicode="&#x173;" horiz-adv-x="535" 
d="M33 100q0 51 6.5 100.5t6.5 103.5l-11 273l161 16l-19 -416q10 -40 28 -70.5t37 -30.5q45 0 68 58t25 162l-6 281l161 16q-2 -29 -8 -74t-6 -98q0 -28 2 -74.5t6.5 -101.5t11 -115.5t14.5 -116.5l-59 -12q-44 -9 -70.5 -18.5t-40.5 -19t-18.5 -19t-4.5 -18.5
q0 -17 12.5 -24t34.5 -7q31 0 67.5 14.5t67.5 53.5v-121q-25 -19 -60 -29.5t-66 -10.5q-60 0 -95 28.5t-35 69.5q0 31 23.5 61t77.5 51l-5 76v17q-39 -55 -85.5 -86.5t-89.5 -31.5q-22 0 -45 12t-42 29.5t-31.5 37t-12.5 34.5z" />
    <glyph glyph-name="Wcircumflex" unicode="&#x174;" horiz-adv-x="1131" 
d="M665 94l-43 181q-52 -81 -118 -147.5t-151 -127.5h-55v74q0 85 -11.5 149t-37.5 125t-69.5 131t-106.5 168l-48 -30l-17 44l137 83l33 20q28 -45 54 -86.5t48 -78.5q41 81 96 122.5t118 41.5q66 0 119 -44.5t79 -116.5q42 86 99.5 123.5t127.5 37.5q38 0 72 -14t59 -41
t40 -67.5t15 -93.5q0 -84 -27 -158.5t-74.5 -141.5t-115 -130t-148.5 -125l-53 -5zM829 614q-41 0 -72 -17.5t-48 -53.5l84 -339q99 12 158 60t59 130q0 101 -52.5 160.5t-128.5 59.5zM409 614q-34 0 -61.5 -13t-46.5 -38q60 -101 96.5 -184.5t49.5 -167.5q47 12 77.5 33.5
t48.5 47.5t25 53.5t7 51.5q0 104 -53.5 160.5t-142.5 56.5zM531 797h-25l98 213h138l98 -213h-25l-142 130z" />
    <glyph glyph-name="wcircumflex" unicode="&#x175;" horiz-adv-x="898" 
d="M185 -5l-6 109l-14 85q-20 69 -43.5 151t-55.5 151l-28 46l-59 -8v52l193 22q16 -33 29 -66t24 -67q40 69 79 99.5t90 30.5q52 0 97 -32t57 -106q40 73 80 105.5t93 32.5q30 0 58.5 -10t50 -31.5t35 -56.5t13.5 -85q0 -75 -23.5 -137.5t-65.5 -114t-100 -93.5t-127 -77
h-50l-5 92l-17 102q-1 3 -1.5 5.5t-1.5 5.5q-46 -69 -114.5 -118.5t-137.5 -86.5h-50zM314 463q-28 0 -47 -7.5t-29 -22.5q22 -72 40.5 -145t37.5 -145q74 25 118.5 62.5t44.5 92.5q0 36 -15 66.5t-38.5 52.5t-53 34t-58.5 12zM641 463q-30 0 -49.5 -8.5t-29.5 -24.5
q25 -64 45.5 -136.5t36.5 -150.5q73 25 117.5 62.5t44.5 92.5q0 36 -15 66.5t-38.5 52.5t-53 34t-58.5 12zM405 655h-25l98 213h138l98 -213h-25l-142 130z" />
    <glyph glyph-name="Ycircumflex" unicode="&#x176;" horiz-adv-x="708" 
d="M678 218q0 -49 -21 -91t-60.5 -73t-97 -49t-131.5 -18q-124 0 -196 51.5t-72 143.5q0 52 29.5 87t83.5 51l-10 56q-12 66 -36 128t-61 125l-20 35l-61 -10l-18 51l80 11l146 21q16 -38 31.5 -74.5t28.5 -71.5q11 73 58.5 122.5t116.5 49.5q43 0 78 -16t60 -43.5t39 -64.5
t14 -78q0 -52 -14.5 -110t-64.5 -110q42 -17 70 -48.5t28 -74.5zM413 611q-35 0 -63 -18t-38 -55q18 -51 34 -102.5t30 -103.5h19q89 1 130.5 33t41.5 92q0 38 -14 67t-36 48t-50 29t-54 10zM198 96q0 -18 15 -28.5t46 -10.5q50 0 103.5 15.5t97 43t71.5 67t28 86.5
q0 11 -1.5 22.5t-5.5 23.5q-27 -22 -63.5 -43t-84.5 -39q-71 -27 -112.5 -47.5t-62 -37t-26 -29t-5.5 -23.5zM212 797h-25l98 213h138l98 -213h-25l-142 130z" />
    <glyph glyph-name="ycircumflex" unicode="&#x177;" horiz-adv-x="531" 
d="M486 -44q0 -60 -52 -101t-139 -41q-52 0 -99.5 11.5t-83 33t-57 52.5t-21.5 69q0 55 33 96.5t86 72.5l-10 57q-20 72 -41.5 141t-52.5 144l-20 31l-89 -28v52l205 57q15 -31 28 -62.5t25 -62.5q32 58 70.5 90t89.5 32q65 0 111 -51t46 -144q0 -124 -65.5 -200.5
t-143.5 -125t-143.5 -81t-65.5 -70.5q0 -12 10 -17.5t27 -5.5q52 0 104.5 10t93.5 26t67 35.5t26 38.5q0 10 -8.5 22.5t-27.5 27.5l21 18q33 -22 54.5 -53.5t21.5 -73.5zM268 459q-19 0 -33.5 -4.5t-24.5 -11.5q25 -69 45 -139t39 -141q60 13 101.5 43.5t41.5 86.5
q0 41 -16 72t-40 52t-54.5 31.5t-58.5 10.5zM124 655h-25l98 213h138l98 -213h-25l-142 130z" />
    <glyph glyph-name="Ydieresis" unicode="&#x178;" horiz-adv-x="708" 
d="M678 218q0 -49 -21 -91t-60.5 -73t-97 -49t-131.5 -18q-124 0 -196 51.5t-72 143.5q0 52 29.5 87t83.5 51l-10 56q-12 66 -36 128t-61 125l-20 35l-61 -10l-18 51l80 11l146 21q16 -38 31.5 -74.5t28.5 -71.5q11 73 58.5 122.5t116.5 49.5q43 0 78 -16t60 -43.5t39 -64.5
t14 -78q0 -52 -14.5 -110t-64.5 -110q42 -17 70 -48.5t28 -74.5zM413 611q-35 0 -63 -18t-38 -55q18 -51 34 -102.5t30 -103.5h19q89 1 130.5 33t41.5 92q0 38 -14 67t-36 48t-50 29t-54 10zM198 96q0 -18 15 -28.5t46 -10.5q50 0 103.5 15.5t97 43t71.5 67t28 86.5
q0 11 -1.5 22.5t-5.5 23.5q-27 -22 -63.5 -43t-84.5 -39q-71 -27 -112.5 -47.5t-62 -37t-26 -29t-5.5 -23.5zM188 909l89 89l77 -77l77 77l89 -89l-89 -89l-77 77l-77 -77z" />
    <glyph glyph-name="Zacute" unicode="&#x179;" horiz-adv-x="681" 
d="M9 12l415 665l-268 -74l-49 -89l-37 14q28 54 53 113t47 122l156 -26q81 -13 132.5 -16.5t83 0t48.5 14t30 25.5l28 -15l-403 -644q176 -36 266 44.5t68 299.5l37 21q34 -163 25.5 -258.5t-37 -144.5t-68 -62.5t-67.5 -13.5q-47 0 -97.5 12.5t-96 28t-82.5 28t-57 12.5
q-25 0 -46 -15.5t-52 -58.5zM424 797h-25l83 213h151z" />
    <glyph glyph-name="zacute" unicode="&#x17a;" horiz-adv-x="539" 
d="M10 18l303 482q-76 -20 -129 -40t-84 -36l-16 -89l-46 7q19 70 30 127t19 122l149 -24q46 -7 81.5 -11t60.5 -4q46 0 69.5 11t39.5 30l28 -15l-307 -497q7 -1 18 -1.5t18 -0.5q84 0 139.5 37t55.5 118q0 22 -6.5 47.5t-19.5 52.5l27 14q38 -43 61 -92.5t23 -94.5
q0 -80 -49.5 -127t-118.5 -47q-37 0 -74 8.5t-70 19t-61.5 19t-48.5 8.5q-21 0 -35.5 -10.5t-27.5 -31.5zM288 655h-25l83 213h151z" />
    <glyph glyph-name="Zdotaccent" unicode="&#x17b;" horiz-adv-x="681" 
d="M9 12l415 665l-268 -74l-49 -89l-37 14q28 54 53 113t47 122l156 -26q81 -13 132.5 -16.5t83 0t48.5 14t30 25.5l28 -15l-403 -644q176 -36 266 44.5t68 299.5l37 21q34 -163 25.5 -258.5t-37 -144.5t-68 -62.5t-67.5 -13.5q-47 0 -97.5 12.5t-96 28t-82.5 28t-57 12.5
q-25 0 -46 -15.5t-52 -58.5zM284 936l104 103l104 -103l-104 -105z" />
    <glyph glyph-name="zdotaccent" unicode="&#x17c;" horiz-adv-x="539" 
d="M10 18l303 482q-76 -20 -129 -40t-84 -36l-16 -89l-46 7q19 70 30 127t19 122l149 -24q46 -7 81.5 -11t60.5 -4q46 0 69.5 11t39.5 30l28 -15l-307 -497q7 -1 18 -1.5t18 -0.5q84 0 139.5 37t55.5 118q0 22 -6.5 47.5t-19.5 52.5l27 14q38 -43 61 -92.5t23 -94.5
q0 -80 -49.5 -127t-118.5 -47q-37 0 -74 8.5t-70 19t-61.5 19t-48.5 8.5q-21 0 -35.5 -10.5t-27.5 -31.5zM191 794l104 103l104 -103l-104 -105z" />
    <glyph glyph-name="Zcaron" unicode="&#x17d;" horiz-adv-x="681" 
d="M9 12l415 665l-268 -74l-49 -89l-37 14q28 54 53 113t47 122l156 -26q81 -13 132.5 -16.5t83 0t48.5 14t30 25.5l28 -15l-403 -644q176 -36 266 44.5t68 299.5l37 21q34 -163 25.5 -258.5t-37 -144.5t-68 -62.5t-67.5 -13.5q-47 0 -97.5 12.5t-96 28t-82.5 28t-57 12.5
q-25 0 -46 -15.5t-52 -58.5zM533 1010h25l-98 -213h-138l-98 213h25l142 -130z" />
    <glyph glyph-name="zcaron" unicode="&#x17e;" horiz-adv-x="539" 
d="M10 18l303 482q-76 -20 -129 -40t-84 -36l-16 -89l-46 7q19 70 30 127t19 122l149 -24q46 -7 81.5 -11t60.5 -4q46 0 69.5 11t39.5 30l28 -15l-307 -497q7 -1 18 -1.5t18 -0.5q84 0 139.5 37t55.5 118q0 22 -6.5 47.5t-19.5 52.5l27 14q38 -43 61 -92.5t23 -94.5
q0 -80 -49.5 -127t-118.5 -47q-37 0 -74 8.5t-70 19t-61.5 19t-48.5 8.5q-21 0 -35.5 -10.5t-27.5 -31.5zM437 868h25l-98 -213h-138l-98 213h25l142 -130z" />
    <glyph glyph-name="florin" unicode="&#x192;" horiz-adv-x="505" 
d="M181 117l27 229h-105v48h110l15 127q5 40 21 86t43 84.5t67 64t93 25.5q46 0 79.5 -24t33.5 -67q0 -39 -20 -70t-33 -62q-8 -19 -11 -37t-4 -35h-24v61q0 29 -10.5 53t-26.5 41t-35 26t-35 9q-28 0 -43 -17.5t-15 -42.5q0 -28 11.5 -63.5t51.5 -62.5l-12 -96h137v-48
h-143l-29 -223q-9 -74 -23.5 -131.5t-39 -96.5t-61.5 -59.5t-91 -20.5q-22 0 -47 7t-45.5 20.5t-34 33.5t-13.5 45q0 18 7 33.5t16.5 30t20 28.5t16.5 28q16 37 15 74.5t0 72.5h24v-136q0 -30 11 -55t28 -42.5t37 -27t38 -9.5q31 0 48 19.5t17 47.5t-13 60.5t-53 71.5z" />
    <glyph glyph-name="uni0218" unicode="&#x218;" horiz-adv-x="616" 
d="M588 206q0 -113 -76.5 -166t-202.5 -53q-134 0 -212.5 44t-78.5 120q0 56 36 108t111 101q-43 33 -71 79.5t-28 112.5q0 41 16 79t48 67.5t80.5 47t112.5 17.5q47 0 90.5 -12t77 -34t53.5 -52.5t20 -67.5q0 -29 -10.5 -58t-23.5 -56.5t-26 -54t-18 -51.5q44 -33 73 -75
t29 -96zM139 615q0 -32 31 -58.5t77.5 -51t102.5 -50.5t105 -57q2 68 -15 120.5t-48.5 87.5t-75.5 53.5t-97 18.5q-43 0 -61.5 -18t-18.5 -45zM106 229q0 -27 29.5 -56t73.5 -53t97 -39.5t100 -15.5q48 0 72.5 15t24.5 46q0 32 -22 56t-56.5 44t-78.5 38t-88 40
q-85 -7 -118.5 -28t-33.5 -47zM407 -204q0 -24 -11 -48.5t-36.5 -45t-69 -35.5t-108.5 -19l-25 68q81 4 134 19t83 47l-178 53l33 103q100 -20 139 -55t39 -87z" />
    <glyph glyph-name="uni0219" unicode="&#x219;" horiz-adv-x="488" 
d="M463 168q0 -40 -20.5 -73.5t-55.5 -57t-80.5 -37t-94.5 -13.5q-106 0 -151.5 35.5t-45.5 77.5q0 51 34 89t87 72q-39 28 -65 66t-26 94q0 34 15.5 65.5t43 55t64.5 37.5t79 14q40 0 74 -11.5t59 -30.5t39 -43t14 -49q0 -26 -7 -46.5t-17.5 -38t-21.5 -33t-20 -32.5
q40 -27 68 -61t28 -80zM116 481q0 -23 20.5 -42.5t52.5 -37t71.5 -35.5t76.5 -39q-1 43 -16 79t-38.5 61t-53 38.5t-58.5 13.5q-34 0 -44.5 -11t-10.5 -27zM101 172q0 -18 23.5 -37.5t59 -35.5t76.5 -26t76 -10q18 0 27 7t9 20q0 21 -12.5 37t-33.5 30t-48.5 27.5
t-56.5 27.5q-39 0 -62.5 -2.5t-36.5 -8t-17 -13t-4 -16.5zM343 -204q0 -24 -11 -48.5t-36.5 -45t-69 -35.5t-108.5 -19l-25 68q81 4 134 19t83 47l-178 53l33 103q100 -20 139 -55t39 -87z" />
    <glyph glyph-name="uni021A" unicode="&#x21a;" horiz-adv-x="709" 
d="M260 0l19 378l-3 67l-246 -111l20 176h224l-7 171l-237 -107l20 176h607l22 -176l-239 109v-32l-7 -141h224l22 -176l-249 114l-4 -70l12 -378h-178zM453 -204q0 -24 -11 -48.5t-36.5 -45t-69 -35.5t-108.5 -19l-25 68q81 4 134 19t83 47l-178 53l33 103q100 -20 139 -55
t39 -87z" />
    <glyph glyph-name="uni021B" unicode="&#x21b;" horiz-adv-x="463" 
d="M456 154q-57 -96 -105 -131.5t-104 -35.5q-29 0 -59.5 11.5t-54.5 33.5t-37 53.5t-8 70.5l18 141l-11 184l-83 22v19l209 183l18 -3l2 -129h206q-2 -17 -8 -44.5t-13 -52.5h-185l-5 -270q-1 -54 24.5 -78.5t62.5 -24.5q25 0 51 14.5t57 55.5zM352 -204q0 -24 -11 -48.5
t-36.5 -45t-69 -35.5t-108.5 -19l-25 68q81 4 134 19t83 47l-178 53l33 103q100 -20 139 -55t39 -87z" />
    <glyph glyph-name="dotlessj" unicode="&#x237;" horiz-adv-x="240" 
d="M34 -184q6 74 14 191.5t8 254.5q0 54 -7.5 121.5t-17.5 141.5l157 28q-2 -55 0 -111.5t6.5 -108t9.5 -95.5t9 -74q0 -53 -20 -105.5t-45 -98.5q-23 -42 -47.5 -80.5t-37.5 -67.5z" />
    <glyph glyph-name="circumflex" unicode="&#x2c6;" 
d="M108 655h-25l98 213h138l98 -213h-25l-142 130z" />
    <glyph glyph-name="caron" unicode="&#x2c7;" 
d="M392 868h25l-98 -213h-138l-98 213h25l142 -130z" />
    <glyph glyph-name="breve" unicode="&#x2d8;" 
d="M262 706q30 0 41.5 28.5t24.5 97.5h117q-19 -81 -69 -119.5t-114 -38.5t-114 38.5t-69 119.5h117q13 -69 24.5 -97.5t41.5 -28.5z" />
    <glyph glyph-name="dotaccent" unicode="&#x2d9;" 
d="M146 794l104 103l104 -103l-104 -105z" />
    <glyph glyph-name="ring" unicode="&#x2da;" 
d="M249 652q-51 0 -87.5 35.5t-36.5 85.5q0 49 36.5 84.5t87.5 35.5t88 -35.5t37 -84.5q0 -50 -37 -85.5t-88 -35.5zM249 700q31 0 52 22t21 52q0 31 -21 53t-52 22t-53 -22t-22 -53q0 -30 22 -52t53 -22z" />
    <glyph glyph-name="ogonek" unicode="&#x2db;" 
d="M258 -268q-74 0 -114.5 35t-40.5 81q0 28 12.5 56t39.5 52t71.5 42t107.5 27l4 -25q-54 -12 -86 -26.5t-47.5 -29t-19.5 -27.5t-4 -22q0 -20 18 -33t48 -13q29 0 59.5 6.5t69.5 19.5v-123q-25 -9 -54.5 -14.5t-63.5 -5.5z" />
    <glyph glyph-name="tilde" unicode="&#x2dc;" 
d="M345 787q25 0 44.5 15t26.5 46l32 -9q-26 -81 -55.5 -113.5t-72.5 -32.5q-21 0 -43.5 7t-45.5 15t-45.5 15t-43.5 7q-22 0 -39.5 -12.5t-31.5 -48.5l-28 10q33 86 60.5 116t67.5 30q21 0 43 -7t44 -15.5t44 -15.5t43 -7z" />
    <glyph glyph-name="hungarumlaut" unicode="&#x2dd;" 
d="M333 655h-25l33 213h141zM133 655h-25l33 213h141z" />
    <glyph glyph-name="uni0394" unicode="&#x394;" horiz-adv-x="695" 
d="M685 2q-66 -7 -123.5 -11t-101.5 -4q-131 0 -239 22t-201 77v6q81 51 148 116t110 134q-56 6 -103.5 26.5t-81.5 51t-53.5 70t-19.5 83.5q0 85 54.5 137t143.5 52q25 0 48.5 -6t45.5 -16l109 42zM57 568q0 -74 63 -130.5t173 -70.5q25 44 38 87.5t13 83.5q0 75 -42 120
t-108 45q-54 0 -95.5 -37.5t-41.5 -97.5zM128 140q50 -13 138.5 -21t206.5 -7l-81 280q-34 -85 -102 -145.5t-162 -106.5z" />
    <glyph glyph-name="uni03A9" unicode="&#x3a9;" horiz-adv-x="724" 
d="M300 0h-287v170l223 -124v67q-59 24 -96 54t-57 60.5t-27 61t-7 56.5q0 57 30 110t94 96q15 46 46 102t77 110q104 -22 175.5 -61.5t114.5 -87.5t62 -99.5t19 -97.5q0 -69 -44 -133.5t-135 -115.5v-122l223 124v-170h-287v188q75 30 111 69.5t36 88.5q0 103 -86.5 166
t-240.5 102q-4 -14 -5.5 -28.5t-1.5 -29.5q0 -34 21.5 -83.5t73.5 -102.5l-119 -61q-18 31 -36 72.5t-18 98.5q-14 -20 -20.5 -40t-6.5 -42q0 -41 15 -70.5t38.5 -48.5t53.5 -29.5t61 -14.5v-235z" />
    <glyph glyph-name="pi" unicode="&#x3c0;" horiz-adv-x="664" 
d="M380 0q0 114 3.5 230t12.5 229l-173 -15q16 -60 26 -117t10 -101q0 -109 -36 -174t-93 -65q-47 0 -70 35.5t-23 86.5q0 15 1.5 32t5.5 36l10 3q12 -24 31 -36t45 -12q32 0 56.5 24t24.5 95q0 36 -6 84.5t-20 105.5l-144 -13l92 152h513l-112 -157l-18 -121l20 -314z" />
    <glyph glyph-name="Wgrave" unicode="&#x1e80;" horiz-adv-x="1131" 
d="M665 94l-43 181q-52 -81 -118 -147.5t-151 -127.5h-55v74q0 85 -11.5 149t-37.5 125t-69.5 131t-106.5 168l-48 -30l-17 44l137 83l33 20q28 -45 54 -86.5t48 -78.5q41 81 96 122.5t118 41.5q66 0 119 -44.5t79 -116.5q42 86 99.5 123.5t127.5 37.5q38 0 72 -14t59 -41
t40 -67.5t15 -93.5q0 -84 -27 -158.5t-74.5 -141.5t-115 -130t-148.5 -125l-53 -5zM829 614q-41 0 -72 -17.5t-48 -53.5l84 -339q99 12 158 60t59 130q0 101 -52.5 160.5t-128.5 59.5zM409 614q-34 0 -61.5 -13t-46.5 -38q60 -101 96.5 -184.5t49.5 -167.5q47 12 77.5 33.5
t48.5 47.5t25 53.5t7 51.5q0 104 -53.5 160.5t-142.5 56.5zM633 797l-209 213h151l83 -213h-25z" />
    <glyph glyph-name="wgrave" unicode="&#x1e81;" horiz-adv-x="898" 
d="M185 -5l-6 109l-14 85q-20 69 -43.5 151t-55.5 151l-28 46l-59 -8v52l193 22q16 -33 29 -66t24 -67q40 69 79 99.5t90 30.5q52 0 97 -32t57 -106q40 73 80 105.5t93 32.5q30 0 58.5 -10t50 -31.5t35 -56.5t13.5 -85q0 -75 -23.5 -137.5t-65.5 -114t-100 -93.5t-127 -77
h-50l-5 92l-17 102q-1 3 -1.5 5.5t-1.5 5.5q-46 -69 -114.5 -118.5t-137.5 -86.5h-50zM314 463q-28 0 -47 -7.5t-29 -22.5q22 -72 40.5 -145t37.5 -145q74 25 118.5 62.5t44.5 92.5q0 36 -15 66.5t-38.5 52.5t-53 34t-58.5 12zM641 463q-30 0 -49.5 -8.5t-29.5 -24.5
q25 -64 45.5 -136.5t36.5 -150.5q73 25 117.5 62.5t44.5 92.5q0 36 -15 66.5t-38.5 52.5t-53 34t-58.5 12zM506 655l-209 213h151l83 -213h-25z" />
    <glyph glyph-name="Wacute" unicode="&#x1e82;" horiz-adv-x="1131" 
d="M665 94l-43 181q-52 -81 -118 -147.5t-151 -127.5h-55v74q0 85 -11.5 149t-37.5 125t-69.5 131t-106.5 168l-48 -30l-17 44l137 83l33 20q28 -45 54 -86.5t48 -78.5q41 81 96 122.5t118 41.5q66 0 119 -44.5t79 -116.5q42 86 99.5 123.5t127.5 37.5q38 0 72 -14t59 -41
t40 -67.5t15 -93.5q0 -84 -27 -158.5t-74.5 -141.5t-115 -130t-148.5 -125l-53 -5zM829 614q-41 0 -72 -17.5t-48 -53.5l84 -339q99 12 158 60t59 130q0 101 -52.5 160.5t-128.5 59.5zM409 614q-34 0 -61.5 -13t-46.5 -38q60 -101 96.5 -184.5t49.5 -167.5q47 12 77.5 33.5
t48.5 47.5t25 53.5t7 51.5q0 104 -53.5 160.5t-142.5 56.5zM649 797h-25l83 213h151z" />
    <glyph glyph-name="wacute" unicode="&#x1e83;" horiz-adv-x="898" 
d="M185 -5l-6 109l-14 85q-20 69 -43.5 151t-55.5 151l-28 46l-59 -8v52l193 22q16 -33 29 -66t24 -67q40 69 79 99.5t90 30.5q52 0 97 -32t57 -106q40 73 80 105.5t93 32.5q30 0 58.5 -10t50 -31.5t35 -56.5t13.5 -85q0 -75 -23.5 -137.5t-65.5 -114t-100 -93.5t-127 -77
h-50l-5 92l-17 102q-1 3 -1.5 5.5t-1.5 5.5q-46 -69 -114.5 -118.5t-137.5 -86.5h-50zM314 463q-28 0 -47 -7.5t-29 -22.5q22 -72 40.5 -145t37.5 -145q74 25 118.5 62.5t44.5 92.5q0 36 -15 66.5t-38.5 52.5t-53 34t-58.5 12zM641 463q-30 0 -49.5 -8.5t-29.5 -24.5
q25 -64 45.5 -136.5t36.5 -150.5q73 25 117.5 62.5t44.5 92.5q0 36 -15 66.5t-38.5 52.5t-53 34t-58.5 12zM497 655h-25l83 213h151z" />
    <glyph glyph-name="Wdieresis" unicode="&#x1e84;" horiz-adv-x="1131" 
d="M665 94l-43 181q-52 -81 -118 -147.5t-151 -127.5h-55v74q0 85 -11.5 149t-37.5 125t-69.5 131t-106.5 168l-48 -30l-17 44l137 83l33 20q28 -45 54 -86.5t48 -78.5q41 81 96 122.5t118 41.5q66 0 119 -44.5t79 -116.5q42 86 99.5 123.5t127.5 37.5q38 0 72 -14t59 -41
t40 -67.5t15 -93.5q0 -84 -27 -158.5t-74.5 -141.5t-115 -130t-148.5 -125l-53 -5zM829 614q-41 0 -72 -17.5t-48 -53.5l84 -339q99 12 158 60t59 130q0 101 -52.5 160.5t-128.5 59.5zM409 614q-34 0 -61.5 -13t-46.5 -38q60 -101 96.5 -184.5t49.5 -167.5q47 12 77.5 33.5
t48.5 47.5t25 53.5t7 51.5q0 104 -53.5 160.5t-142.5 56.5zM513 909l89 89l77 -77l77 77l89 -89l-89 -89l-77 77l-77 -77z" />
    <glyph glyph-name="wdieresis" unicode="&#x1e85;" horiz-adv-x="898" 
d="M185 -5l-6 109l-14 85q-20 69 -43.5 151t-55.5 151l-28 46l-59 -8v52l193 22q16 -33 29 -66t24 -67q40 69 79 99.5t90 30.5q52 0 97 -32t57 -106q40 73 80 105.5t93 32.5q30 0 58.5 -10t50 -31.5t35 -56.5t13.5 -85q0 -75 -23.5 -137.5t-65.5 -114t-100 -93.5t-127 -77
h-50l-5 92l-17 102q-1 3 -1.5 5.5t-1.5 5.5q-46 -69 -114.5 -118.5t-137.5 -86.5h-50zM314 463q-28 0 -47 -7.5t-29 -22.5q22 -72 40.5 -145t37.5 -145q74 25 118.5 62.5t44.5 92.5q0 36 -15 66.5t-38.5 52.5t-53 34t-58.5 12zM641 463q-30 0 -49.5 -8.5t-29.5 -24.5
q25 -64 45.5 -136.5t36.5 -150.5q73 25 117.5 62.5t44.5 92.5q0 36 -15 66.5t-38.5 52.5t-53 34t-58.5 12zM378 767l89 89l77 -77l77 77l89 -89l-89 -89l-77 77l-77 -77z" />
    <glyph glyph-name="Ygrave" unicode="&#x1ef2;" horiz-adv-x="708" 
d="M678 218q0 -49 -21 -91t-60.5 -73t-97 -49t-131.5 -18q-124 0 -196 51.5t-72 143.5q0 52 29.5 87t83.5 51l-10 56q-12 66 -36 128t-61 125l-20 35l-61 -10l-18 51l80 11l146 21q16 -38 31.5 -74.5t28.5 -71.5q11 73 58.5 122.5t116.5 49.5q43 0 78 -16t60 -43.5t39 -64.5
t14 -78q0 -52 -14.5 -110t-64.5 -110q42 -17 70 -48.5t28 -74.5zM413 611q-35 0 -63 -18t-38 -55q18 -51 34 -102.5t30 -103.5h19q89 1 130.5 33t41.5 92q0 38 -14 67t-36 48t-50 29t-54 10zM198 96q0 -18 15 -28.5t46 -10.5q50 0 103.5 15.5t97 43t71.5 67t28 86.5
q0 11 -1.5 22.5t-5.5 23.5q-27 -22 -63.5 -43t-84.5 -39q-71 -27 -112.5 -47.5t-62 -37t-26 -29t-5.5 -23.5zM421 797l-209 213h151l83 -213h-25z" />
    <glyph glyph-name="ygrave" unicode="&#x1ef3;" horiz-adv-x="531" 
d="M486 -44q0 -60 -52 -101t-139 -41q-52 0 -99.5 11.5t-83 33t-57 52.5t-21.5 69q0 55 33 96.5t86 72.5l-10 57q-20 72 -41.5 141t-52.5 144l-20 31l-89 -28v52l205 57q15 -31 28 -62.5t25 -62.5q32 58 70.5 90t89.5 32q65 0 111 -51t46 -144q0 -124 -65.5 -200.5
t-143.5 -125t-143.5 -81t-65.5 -70.5q0 -12 10 -17.5t27 -5.5q52 0 104.5 10t93.5 26t67 35.5t26 38.5q0 10 -8.5 22.5t-27.5 27.5l21 18q33 -22 54.5 -53.5t21.5 -73.5zM268 459q-19 0 -33.5 -4.5t-24.5 -11.5q25 -69 45 -139t39 -141q60 13 101.5 43.5t41.5 86.5
q0 41 -16 72t-40 52t-54.5 31.5t-58.5 10.5zM328 655l-209 213h151l83 -213h-25z" />
    <glyph glyph-name="endash" unicode="&#x2013;" horiz-adv-x="540" 
d="M20 370h500v-70h-500v70z" />
    <glyph glyph-name="emdash" unicode="&#x2014;" horiz-adv-x="840" 
d="M20 370h800v-70h-800v70z" />
    <glyph glyph-name="quoteleft" unicode="&#x2018;" horiz-adv-x="253" 
d="M36 557q0 31 7.5 61.5t27 57t55 49t91.5 39.5l23 -73q-64 -16 -104.5 -37t-44.5 -46l4 -8q54 -8 86 -34t32 -62q0 -32 -21.5 -51t-50.5 -19q-43 0 -74 36t-31 87z" />
    <glyph glyph-name="quoteright" unicode="&#x2019;" horiz-adv-x="253" 
d="M220 641q0 -31 -7.5 -61.5t-27 -57t-55 -49t-91.5 -39.5l-23 73q64 16 104.5 37t44.5 46l-4 8q-54 8 -86 34t-32 62q0 32 21.5 51t50.5 19q43 0 74 -36t31 -87z" />
    <glyph glyph-name="quotesinglbase" unicode="&#x201a;" horiz-adv-x="253" 
d="M209 30q0 -31 -7.5 -61.5t-27 -57t-55 -49t-91.5 -39.5l-23 73q64 16 104.5 37t44.5 46l-4 8q-54 8 -86 34t-32 62q0 32 21.5 51t50.5 19q43 0 74 -36t31 -87z" />
    <glyph glyph-name="quotedblleft" unicode="&#x201c;" horiz-adv-x="462" 
d="M245 557q0 31 7.5 61.5t27 57t55 49t91.5 39.5l23 -73q-64 -16 -104.5 -37t-44.5 -46l4 -8q54 -8 86 -34t32 -62q0 -32 -21.5 -51t-50.5 -19q-43 0 -74 36t-31 87zM36 557q0 31 7.5 61.5t27 57t55 49t91.5 39.5l23 -73q-64 -16 -104.5 -37t-44.5 -46l4 -8q54 -8 86 -34
t32 -62q0 -32 -21.5 -51t-50.5 -19q-43 0 -74 36t-31 87z" />
    <glyph glyph-name="quotedblright" unicode="&#x201d;" horiz-adv-x="462" 
d="M220 641q0 -31 -7.5 -61.5t-27 -57t-55 -49t-91.5 -39.5l-23 73q64 16 104.5 37t44.5 46l-4 8q-54 8 -86 34t-32 62q0 32 21.5 51t50.5 19q43 0 74 -36t31 -87zM429 641q0 -31 -7.5 -61.5t-27 -57t-55 -49t-91.5 -39.5l-23 73q64 16 104.5 37t44.5 46l-4 8q-54 8 -86 34
t-32 62q0 32 21.5 51t50.5 19q43 0 74 -36t31 -87z" />
    <glyph glyph-name="quotedblbase" unicode="&#x201e;" horiz-adv-x="462" 
d="M209 28q0 -31 -7.5 -61.5t-27 -57t-55 -49t-91.5 -39.5l-23 73q64 16 104.5 37t44.5 46l-4 8q-54 8 -86 34t-32 62q0 32 21.5 51t50.5 19q43 0 74 -36t31 -87zM418 28q0 -31 -7.5 -61.5t-27 -57t-55 -49t-91.5 -39.5l-23 73q64 16 104.5 37t44.5 46l-4 8q-54 8 -86 34
t-32 62q0 32 21.5 51t50.5 19q43 0 74 -36t31 -87z" />
    <glyph glyph-name="dagger" unicode="&#x2020;" horiz-adv-x="525" 
d="M50 115v67h173v628h79v-628h173v-67h-173v-160h-79v160h-173z" />
    <glyph glyph-name="daggerdbl" unicode="&#x2021;" horiz-adv-x="525" 
d="M50 100v67h173v78h-173v67h173v498h79v-498h173v-67h-173v-78h173v-67h-173v-145h-79v145h-173z" />
    <glyph glyph-name="bullet" unicode="&#x2022;" horiz-adv-x="521" 
d="M260 119q-49 0 -93 19t-76.5 52t-51.5 77t-19 93t19 93t51.5 76.5t76.5 51.5t93 19t93 -19t77 -51.5t52 -76.5t19 -93t-19 -93t-52 -77t-77 -52t-93 -19z" />
    <glyph glyph-name="ellipsis" unicode="&#x2026;" horiz-adv-x="982" 
d="M25 99l116 115l116 -115l-116 -117zM375 99l116 115l116 -115l-116 -117zM725 99l116 115l116 -115l-116 -117z" />
    <glyph glyph-name="perthousand" unicode="&#x2030;" horiz-adv-x="807" 
d="M217 500q-54 0 -93 39t-39 93t39 92.5t93 38.5t92.5 -38.5t38.5 -92.5t-38.5 -93t-92.5 -39zM25 0l482 750h101l-482 -750h-101zM417 -13q-54 0 -93 39t-39 93t39 92.5t93 38.5q41 0 74.5 -23.5t47.5 -59.5q14 36 47.5 59.5t75.5 23.5q54 0 92.5 -38.5t38.5 -92.5
t-38.5 -93t-92.5 -39q-42 0 -75.5 23.5t-47.5 60.5q-14 -37 -47.5 -60.5t-74.5 -23.5z" />
    <glyph glyph-name="guilsinglleft" unicode="&#x2039;" horiz-adv-x="341" 
d="M297 534l19 -19l-151 -210l151 -210l-19 -19l-257 224v10z" />
    <glyph glyph-name="guilsinglright" unicode="&#x203a;" horiz-adv-x="341" 
d="M44 76l-19 19l151 210l-151 210l19 19l257 -224v-10z" />
    <glyph glyph-name="fraction" unicode="&#x2044;" horiz-adv-x="633" 
d="M25 0l482 750h101l-482 -750h-101z" />
    <glyph glyph-name="Euro" unicode="&#x20ac;" horiz-adv-x="652" 
d="M4 343l10 47h101v11q0 10 1 21t2 21h-89l10 47h88q17 62 57 113.5t98 88t132.5 55.5t159.5 16v-469l-50 -14v63h-336q22 -36 62 -65t94.5 -50t123 -35t144.5 -21l-28 -182q-94 5 -174.5 32.5t-141 73.5t-99.5 109t-50 138h-115zM401 593q-90 0 -148 -24.5t-78 -78.5h349
v90q-29 6 -62.5 9.5t-60.5 3.5zM165 427q0 -10 1 -19t3 -18h355v53h-358q-1 -4 -1 -8v-8z" />
    <glyph glyph-name="uni2113" unicode="&#x2113;" 
d="M479 599q0 -84 -54.5 -169t-185.5 -166q4 -66 11.5 -103.5t19 -55.5t25 -22.5t29.5 -4.5q31 0 70.5 32.5t83.5 99.5l31 -24q-60 -97 -125.5 -148t-135.5 -51q-65 0 -99.5 48.5t-46.5 159.5l-74 -43l-11 36l81 49q-2 29 -3 62t-1 70q0 110 16 185.5t44 121.5t68 66t87 20
q77 0 123.5 -43.5t46.5 -119.5zM236 389v-40.5t1 -36.5q52 40 78 104t26 160q0 90 -11 119.5t-33 29.5q-15 0 -26.5 -13t-19 -50t-11.5 -103t-4 -170z" />
    <glyph glyph-name="trademark" unicode="&#x2122;" horiz-adv-x="978" 
d="M489 368l9 204l-18 185l13 2l211 -154l210 154l13 -2l-18 -185l10 -204h-106l61 266l-134 -100l12 -166h-96l10 166l-139 101l67 -267h-105zM172 368l11 194l-2 34l-151 -57l13 90h137l-4 88l-146 -55l13 90h372l14 -90l-147 56v-17l-4 -72h137l14 -90l-153 58l-2 -35
l7 -194h-109z" />
    <glyph glyph-name="Omega" unicode="&#x2126;" horiz-adv-x="724" 
d="M300 0h-287v170l223 -124v67q-59 24 -96 54t-57 60.5t-27 61t-7 56.5q0 57 30 110t94 96q15 46 46 102t77 110q104 -22 175.5 -61.5t114.5 -87.5t62 -99.5t19 -97.5q0 -69 -44 -133.5t-135 -115.5v-122l223 124v-170h-287v188q75 30 111 69.5t36 88.5q0 103 -86.5 166
t-240.5 102q-4 -14 -5.5 -28.5t-1.5 -29.5q0 -34 21.5 -83.5t73.5 -102.5l-119 -61q-18 31 -36 72.5t-18 98.5q-14 -20 -20.5 -40t-6.5 -42q0 -41 15 -70.5t38.5 -48.5t53.5 -29.5t61 -14.5v-235z" />
    <glyph glyph-name="estimated" unicode="&#x212e;" horiz-adv-x="716" 
d="M634 134q-54 -77 -124 -112t-151 -35q-64 0 -120.5 23t-98 64.5t-66 100t-24.5 129.5q0 57 23 111.5t64 96t97.5 67t122.5 25.5q67 0 123.5 -24.5t97 -66.5t63.5 -100t25 -124h-476v-179q29 -34 72.5 -52t96.5 -18q66 0 127.5 28.5t107.5 93.5zM190 341h334v143
q-30 33 -73.5 50t-93.5 17t-93.5 -17t-73.5 -50v-143z" />
    <glyph glyph-name="partialdiff" unicode="&#x2202;" horiz-adv-x="581" 
d="M77 743l14 20q153 -40 247 -90.5t144 -103t66 -104.5t16 -96q0 -74 -29.5 -132.5t-80 -104.5t-118.5 -82t-145 -65q-35 13 -66 36t-53 52.5t-34.5 63t-12.5 67.5q0 96 75 186.5t235 162.5q-37 47 -99.5 94t-158.5 96zM170 289q0 -67 40 -118t98 -88q50 55 73.5 126
t23.5 143q0 43 -10.5 84.5t-35.5 82.5q-88 -37 -138.5 -100.5t-50.5 -129.5z" />
    <glyph glyph-name="Delta" unicode="&#x2206;" horiz-adv-x="695" 
d="M685 2q-66 -7 -123.5 -11t-101.5 -4q-131 0 -239 22t-201 77v6q81 51 148 116t110 134q-56 6 -103.5 26.5t-81.5 51t-53.5 70t-19.5 83.5q0 85 54.5 137t143.5 52q25 0 48.5 -6t45.5 -16l109 42zM57 568q0 -74 63 -130.5t173 -70.5q25 44 38 87.5t13 83.5q0 75 -42 120
t-108 45q-54 0 -95.5 -37.5t-41.5 -97.5zM128 140q50 -13 138.5 -21t206.5 -7l-81 280q-34 -85 -102 -145.5t-162 -106.5z" />
    <glyph glyph-name="product" unicode="&#x220f;" horiz-adv-x="843" 
d="M351 -100h-168l12 478l-13 259l-142 -63l20 176h721l22 -176l-142 62l-13 -258l12 -478h-168l19 478l-12 284h-155l-12 -284z" />
    <glyph glyph-name="summation" unicode="&#x2211;" horiz-adv-x="615" 
d="M20 -39l86 67l257 287l-219 280v-1l-139 169h547l36 -97l-370 46l266 -331l-309 -343h418l-65 -148q-155 2 -278 21t-230 50z" />
    <glyph glyph-name="minus" unicode="&#x2212;" horiz-adv-x="550" 
d="M28 360h494v-55h-494v55z" />
    <glyph glyph-name="radical" unicode="&#x221a;" horiz-adv-x="661" 
d="M-21 529v52l193 22q49 -105 79 -215.5t59 -217.5l196 773h412v-44h-255l-341 -771v-1l-1 -1l-58 -131h-78l4 10l-24 184q-20 69 -43.5 151t-55.5 151l-28 46z" />
    <glyph glyph-name="infinity" unicode="&#x221e;" horiz-adv-x="701" 
d="M519 164q-61 -1 -101 37t-67 100q-37 -72 -68.5 -105t-86.5 -33q-34 0 -64.5 14t-53 40.5t-35.5 64.5t-13 85q0 98 43.5 154t110.5 55q61 1 101 -37t67 -100q37 72 68.5 105t86.5 33q34 0 64.5 -14t53 -40.5t35.5 -64.5t13 -85q0 -98 -43.5 -154t-110.5 -55zM586 371
q0 49 -21.5 78t-60.5 29q-37 0 -60 -20.5t-55 -78.5l-23 -42q21 -35 51.5 -53.5t76.5 -18.5q42 0 67 28.5t25 77.5zM117 369q1 -49 22 -78t60 -29q37 0 60 20.5t55 78.5l23 42q-21 35 -51.5 53.5t-76.5 18.5q-42 0 -66.5 -28.5t-25.5 -77.5z" />
    <glyph glyph-name="integral" unicode="&#x222b;" horiz-adv-x="367" 
d="M43 117l47 404q5 40 21 86t43 84.5t67 64t93 25.5q46 0 79.5 -24t33.5 -67q0 -39 -20 -70t-33 -62q-8 -19 -11 -37t-4 -35h-24v61q0 29 -10.5 53t-26.5 41t-35 26t-35 9q-28 0 -43 -17.5t-15 -42.5q0 -28 11.5 -63.5t51.5 -62.5l-47 -367q-9 -74 -23.5 -131.5t-39 -96.5
t-61.5 -59.5t-91 -20.5q-22 0 -47 7t-45.5 20.5t-34 33.5t-13.5 45q0 18 7 33.5t16.5 30t20 28.5t16.5 28q16 37 15 74.5t0 72.5h24v-136q0 -30 11 -55t28 -42.5t37 -27t38 -9.5q31 0 48 19.5t17 47.5t-13 60.5t-53 71.5z" />
    <glyph glyph-name="approxequal" unicode="&#x2248;" horiz-adv-x="550" 
d="M392 419q35 0 51.5 34t36.5 101l49 -20q-31 -93 -62 -131.5t-80 -38.5q-31 0 -61 19t-58 42t-55.5 42t-53.5 19q-34 0 -51 -33t-37 -102l-50 21q31 93 62.5 131t81.5 38q31 0 60.5 -19t57.5 -42t55.5 -42t53.5 -19zM392 219q35 0 51.5 34t36.5 101l49 -20
q-31 -93 -62 -131.5t-80 -38.5q-31 0 -61 19t-58 42t-55.5 42t-53.5 19q-34 0 -51 -33t-37 -102l-50 21q31 93 62.5 131t81.5 38q31 0 60.5 -19t57.5 -42t55.5 -42t53.5 -19z" />
    <glyph glyph-name="notequal" unicode="&#x2260;" horiz-adv-x="550" 
d="M80 12l91 173h-143v55h173l97 185h-270v55h300l91 173h51l-91 -173h143v-55h-173l-97 -185h270v-55h-300l-91 -173h-51z" />
    <glyph glyph-name="lessequal" unicode="&#x2264;" horiz-adv-x="550" 
d="M28 390l489 155v-60l-424 -127l424 -128v-60l-489 155v65zM28 135h494v-55h-494v55z" />
    <glyph glyph-name="greaterequal" unicode="&#x2265;" horiz-adv-x="550" 
d="M522 390v-65l-489 -155v60l424 128l-424 127v60zM522 135v-55h-494v55h494z" />
    <glyph glyph-name="lozenge" unicode="&#x25ca;" horiz-adv-x="550" 
d="M247 0l-219 339l219 339h56l219 -339l-219 -339h-56zM275 614l-175 -275l175 -275l175 275z" />
    <glyph glyph-name="commaaccent" unicode="&#xf6c3;" 
d="M349 -204q0 -24 -11 -48.5t-36.5 -45t-69 -35.5t-108.5 -19l-25 68q81 4 134 19t83 47l-178 53l33 103q100 -20 139 -55t39 -87z" />
    <glyph glyph-name="u1F4A3" unicode="&#x1f4a3;" horiz-adv-x="1185" 
d="M884 864v113h32v-113h-32zM954 857l44 103l29 -13l-43 -104zM812 843l-57 97l28 16l57 -98zM1008 814l91 66l19 -25l-91 -67zM466 -13q-72 0 -136 28t-111.5 75.5t-75.5 112t-28 136.5t28 136t75.5 111.5t111.5 75.5t136 28q49 0 94 -13t84 -36l85 85l45 -44l104 104
l62 -63l-104 -104l45 -45l-93 -93q14 -33 22 -69t8 -73q0 -72 -28 -136.5t-75.5 -112t-112 -75.5t-136.5 -28zM1034 738l111 19l6 -31l-111 -20zM1032 671l107 -38l-10 -30l-107 37zM509 554q22 0 37.5 12t15.5 29t-15.5 29t-37.5 12t-37.5 -12t-15.5 -29t15.5 -29t37.5 -12
zM366 102q14 13 4.5 44t-37.5 62q-28 30 -58.5 41.5t-44.5 -1.5q-15 -13 -5 -44t38 -62q28 -30 58 -42t45 2z" />
    <glyph glyph-name="S.alt" horiz-adv-x="664" 
d="M649 177q0 -41 -24.5 -75.5t-68 -59t-105 -38.5t-134.5 -14q-76 0 -129.5 12.5t-87.5 33t-49.5 46.5t-15.5 53q0 32 13 56t38 49q-23 24 -34.5 52.5t-11.5 60.5q0 47 24 87t82 53q-28 14 -47 41t-19 70q0 37 22.5 66.5t60 50t87.5 31.5t103 11q45 0 84 -7.5t67 -22
t44 -35t16 -46.5q0 -13 -4 -24t-12 -20q40 -12 60 -49t20 -94q0 -24 -5.5 -50.5t-16 -51t-25.5 -45.5t-34 -35q58 -4 80 -36.5t22 -69.5zM123 607q0 -20 20 -29t51 -5l278 38l-241 29q-62 7 -85 -2.5t-23 -30.5zM519 480l-252 -7q26 -11 58 -24.5t66 -24.5t68 -18.5t64 -7.5
q26 0 43 12t17 37q0 19 -18 26.5t-46 6.5zM107 311q0 -39 42 -56t149 -2l128 18q-39 8 -76.5 22.5t-71 28.5t-62 24.5t-50.5 10.5q-31 0 -45 -12t-14 -34zM507 135q-140 0 -237.5 20.5t-152.5 58.5q8 -34 45.5 -60t90 -43.5t114 -26.5t117.5 -9q53 0 70 7.5t17 23.5
q0 13 -12 21t-52 8z" />
    <glyph glyph-name="a.ss04" horiz-adv-x="518" 
d="M325 -12v105q-21 -54 -57 -80t-82 -26q-44 0 -76 16t-51.5 41.5t-29 59.5t-9.5 70q25 16 47 31.5t42 31.5q-40 63 -61 139.5t-30 157.5q40 15 88.5 26t98 18.5t97.5 11t88 3.5q24 0 44 -1.5t35 -3.5q4 -43 6.5 -97.5t2.5 -111.5q0 -54 -2.5 -115t-3.5 -101l19 -164z
M74 446q16 -38 42.5 -74t61.5 -73q55 56 90 113t54 114q-55 -12 -123 -34t-125 -46zM331 376v81q-29 -66 -74 -123.5t-96 -108.5q7 -69 39 -109t67 -40q18 0 30.5 22t19.5 61t10.5 94.5t3.5 122.5z" />
    <glyph glyph-name="c.ss02" horiz-adv-x="382" 
d="M61 352q0 -66 69.5 -106t231.5 -80l-14 -72t-14 -74q-9 -51 -13 -112t-4 -125h-26v58q0 31 -2 77t-6 84q-139 59 -202.5 149.5t-63.5 200.5q0 62 24 107.5t66.5 75t101 44t127.5 14.5l-14 -115q-7 -56 -10.5 -99.5t-7.5 -93.5h-24q-1 40 -3 70t-6 70q-29 6 -52.5 8.5
t-42.5 2.5q-57 0 -86 -22t-29 -62z" />
    <glyph glyph-name="e.ss02" horiz-adv-x="439" 
d="M71 -104q0 81 -8 146.5t-17.5 117.5t-17.5 93.5t-8 75.5q0 57 22 105.5t60 83.5t90 55t112 20l43 33l24 -27q-20 -13 -30.5 -32.5t-10.5 -38.5q0 -25 17 -56.5t57 -68.5l27 7v-46l-337 -88q36 -34 111 -61t194 -49q-12 -59 -20.5 -108.5t-14 -94.5t-8.5 -90t-3 -95h-26
l-3 71q-1 40 -3 77t-6 77q-59 19 -108 45t-86 57q-4 -18 -8 -46t-7 -62.5t-5 -73.5t-2 -77h-28v50zM59 350q0 -9 1.5 -18t5.5 -18l180 47q-13 21 -20 42.5t-8 46.5l-18 2t-17 1q-63 0 -93.5 -31.5t-30.5 -71.5z" />
    <glyph glyph-name="e.swsh" horiz-adv-x="473" 
d="M414 166l-26 -179q-104 21 -175 57.5t-113.5 82.5t-61 98.5t-18.5 103.5q0 54 20.5 102t56.5 84t86.5 58.5t109.5 26.5q22 21 48 39.5t56 33.5l21 -28q-34 -25 -53.5 -49.5t-19.5 -66.5q0 -27 13.5 -59.5t44.5 -64.5l56 15l8 -43l-380 -103q31 -37 108 -65t219 -43z
M59 349q0 -9 1.5 -18t3.5 -17l181 48q-13 20 -21 40.5t-12 40.5q-9 4 -21.5 6t-26.5 2q-51 0 -78 -31.5t-27 -70.5z" />
    <glyph glyph-name="e.swsh.alt" horiz-adv-x="640" 
d="M378 149q37 0 73.5 11t65 32.5t46.5 53t18 71.5q0 37 -17.5 81t-58.5 94l19 15q51 -58 74.5 -119t23.5 -117q0 -59 -22 -111t-58 -90t-84 -60.5t-100 -22.5q-63 0 -122 26.5t-105 72t-73.5 108.5t-27.5 135q0 57 21.5 105.5t59.5 83.5t92.5 55t120.5 20l43 33l24 -27
q-20 -13 -30.5 -32.5t-10.5 -38.5q0 -25 17 -56.5t57 -68.5l27 7v-46l-353 -90q34 -48 105 -86.5t175 -38.5zM69 355q0 -10 2 -20t6 -21l188 48q-12 21 -19 42.5t-8 45.5q-10 1 -20.5 2t-19.5 1q-66 0 -97.5 -30t-31.5 -68z" />
    <glyph glyph-name="f.ss01" horiz-adv-x="367" 
d="M82 -18l17 192v277h-84v48h69q-6 7 -8.5 16t-2.5 19q0 36 24 80.5t61.5 83t85 65t94.5 26.5q22 0 47 -8t46 -23.5t34.5 -37.5t13.5 -50q0 -31 -21 -56.5t-32 -50.5q-8 -19 -11 -37t-4 -35h-24v61q0 30 -17 55t-42 42.5t-54.5 27t-55.5 9.5q-28 0 -43 -17.5t-15 -42.5
q0 -27 15.5 -60t61.5 -67h121v-48h-114v-451z" />
    <glyph glyph-name="f.ss02" horiz-adv-x="361" 
d="M132 176q0 -24 30.5 -38t67.5 -31t67.5 -42t30.5 -69q0 -22 -14 -45t-47 -46t-88.5 -46t-137.5 -45l-5 17q71 20 116.5 41t71 40.5t35 37t9.5 29.5q0 32 -38 50.5t-82.5 36t-82.5 40.5t-38 64q0 29 20 53.5t43.5 46.5t43.5 44t20 45q0 18 -20.5 35t-45 35.5t-46.5 40.5
t-25 50h-124v48h131q11 37 40.5 76.5t71 71.5t94 52.5t109.5 20.5q58 0 101 -21t43 -55q0 -31 -21 -56.5t-32 -50.5q-8 -19 -10 -37t-3 -35h-25l-3 48q-1 25 -16 45t-38 34.5t-52 22.5t-58 8q-49 0 -76 -18.5t-27 -47.5q0 -13 9 -28t23 -30h188v-48h-135q38 -32 72 -65
t34 -64q0 -36 -28.5 -66t-62 -56t-62 -49t-28.5 -44z" />
    <glyph glyph-name="g.ss02" horiz-adv-x="459" 
d="M99 -308q-2 58 -18 86t-50 56q-20 16 -31.5 31.5t-11.5 37.5q0 45 35 83.5t91 81.5q-23 16 -37.5 32.5t-14.5 31.5q0 23 28 46.5t81 48.5q-22 6 -49 18.5t-50 33t-38.5 49t-15.5 65.5q0 43 17 80t45.5 63.5t66.5 41.5t81 15q44 0 82 -13t65.5 -35t43 -52.5t15.5 -65.5
q0 -28 -9.5 -48.5t-21 -44.5t-21.5 -57t-10 -84l-1 -103q41 -22 71 -49.5t30 -59.5t-28 -61.5t-74 -51.5l-1 -116h-21l-1 106q-36 -16 -78.5 -27t-88.5 -16q-10 -6 -19 -22.5t-16 -47.5t-12 -81t-8 -123h-21zM110 495q0 -31 15 -63t43 -60t69 -49t92 -30q-7 45 -23.5 88
t-41 75.5t-55.5 52.5t-66 20q-17 0 -25 -10.5t-8 -23.5zM202 200q0 -10 12 -21t31.5 -22.5t44.5 -24l51 -25.5q-2 49 -4 91t-5 69q-51 -19 -90.5 -33t-39.5 -34zM63 -20q0 -18 18.5 -35.5t49.5 -30.5t71.5 -21t84.5 -8q40 0 49 7t9 15q0 14 -17.5 30t-44.5 32.5t-60 34.5
t-64 36q-54 -18 -75 -31t-21 -29z" />
    <glyph glyph-name="k.ss01" horiz-adv-x="522" 
d="M35 0l10 378l-19 402l21 3l28 -94l106 99l9 -4v-155l-6 -263l1 -76h54q39 0 66 13.5t27 41.5q0 20 -12.5 35.5t-28 31t-28 33.5t-12.5 42q0 14 5.5 26.5t20 25.5t42 27t70.5 30l11 -26q-13 -9 -19.5 -16.5t-6.5 -14.5q0 -14 14 -28.5t30 -31.5t30 -38t14 -47
q0 -25 -25 -52.5t-81 -56.5l156 -285h-180l-101 245h-45v-27l6 -218h-157z" />
    <glyph glyph-name="k.swash" 
d="M35 0l10 378l-19 402l21 3l28 -94l106 99l9 -4v-155l-6 -263l1 -81h54q39 0 66 13.5t27 41.5q0 20 -12.5 35.5t-28 31t-28 33.5t-12.5 42q0 19 10.5 37t37 36.5t72.5 36.5t116 37l7 -19q-74 -24 -97 -40.5t-23 -35.5q0 -14 14 -28.5t30 -31.5t30 -38t14 -47
q0 -25 -23 -50.5t-74 -53.5l142 -285h-175l-99 240h-47v-22l6 -218h-157z" />
    <glyph glyph-name="o.ss02" horiz-adv-x="547" 
d="M532 225q0 -38 -16 -66t-40.5 -50.5t-53 -42.5t-53.5 -42q-41 -35 -60.5 -79.5t-26.5 -100t-6 -123t1 -147.5h-26l-3 156q-1 70 -3 118.5t-8.5 82t-19 54t-34.5 35.5q-68 45 -115.5 93.5t-47.5 125.5q0 68 47 138.5t111 133.5q33 33 61 58.5t59 51.5l27 -28
q-16 -14 -25 -24t-9 -23q0 -20 38 -50.5t82.5 -70t82.5 -90t38 -110.5zM151 355q0 -96 52.5 -161t169.5 -122q6 13 10.5 31.5t4.5 43.5q0 73 -62 150.5t-161 148.5q-8 -22 -11 -45.5t-3 -45.5z" />
    <glyph glyph-name="r.ss02" horiz-adv-x="440" 
d="M268 488q-20 0 -34 -28.5t-22.5 -81t-12.5 -127t-4 -165.5v-85l-154 -18l11 191l-42 411l152 25l8 -238q18 85 42.5 138.5t51 82t53.5 38.5t49 10q17 0 36 -8.5t35.5 -22.5t27 -32t10.5 -37q0 -22 -11 -50t-25.5 -60t-28 -67.5t-19.5 -71.5q-7 -46 -8.5 -84.5t-1.5 -84.5
h-26v167q0 109 -29 153.5t-58 44.5z" />
    <glyph glyph-name="r.calt" horiz-adv-x="399" 
d="M43 -10l17 185l-50 407l159 34l7 -109l5 -106q30 128 66 184t94 56q16 0 34.5 -8t33 -21.5t24.5 -31.5t10 -39t-8 -39t-18 -45.5t-18 -72t-8 -118.5h-29q0 71 -7.5 115t-19 67.5t-24.5 31.5t-23 8q-43 0 -66 -102t-23 -328l3 -58z" />
    <glyph glyph-name="s.ss04" horiz-adv-x="480" 
d="M473 157q0 -40 -21.5 -71.5t-57 -53.5t-82 -33.5t-96.5 -11.5q-108 0 -155 35.5t-47 77.5q9 25 18.5 44t22.5 38q-22 21 -29 45.5t-7 47.5q0 36 20 59.5t58 27.5q-22 13 -37 37t-15 59q0 32 19 57t48.5 42.5t66.5 26.5t73 9q62 0 103 -25t41 -68q0 -12 -3.5 -23t-9.5 -21
q29 -12 47.5 -39.5t18.5 -66.5q0 -36 -13 -63t-36 -43q38 -4 55.5 -29.5t17.5 -57.5zM88 461q0 -18 20 -29t51 -11q19 0 40.5 6t44.5 13t45.5 14t43.5 9q-14 5 -37.5 10t-50.5 8.5t-55 6t-51 2.5q-27 0 -39 -7.5t-12 -21.5zM343 345q-26 0 -61 -3.5t-87 -4.5
q39 -18 81.5 -36.5t77.5 -18.5q22 0 35.5 7.5t13.5 22.5q0 19 -16.5 26t-43.5 7zM98 228q0 -22 16 -32.5t45 -10.5q32 0 72 13.5t77 26.5q-22 3 -43.5 10.5t-41.5 15.5t-38 14t-33 6q-24 0 -39 -9t-15 -34zM346 115q-100 0 -162.5 12.5t-98.5 31.5q6 -24 32 -42.5t61 -31
t74 -19t70 -6.5q43 0 58 6.5t15 20.5q0 13 -10.5 20.5t-38.5 7.5z" />
    <glyph glyph-name="s.ss02" horiz-adv-x="480" 
d="M131 -5q-11 0 -20.5 -9t-16 -34t-10 -70t-3.5 -116v-73h-21v93q0 69 -7 118.5t-16 84.5t-16 59.5t-7 45.5q0 26 14 47.5t27 40.5q-22 21 -29 45.5t-7 47.5q0 36 20 59.5t57 27.5q-21 13 -36 37t-15 59q0 32 19 57t48.5 42.5t66.5 26.5t73 9q62 0 103 -25t41 -68
q0 -12 -4 -22.5t-11 -20.5q31 -11 49.5 -39t18.5 -68q0 -36 -13 -63t-36 -43q38 -4 55.5 -29.5t17.5 -57.5t-11.5 -75t-15.5 -84q-6 -49 -10 -111.5t-4 -127.5h-21v156q0 37 -1.5 67.5t-4.5 58.5q-19 -11 -40 -16.5t-41 -9.5l-46 -9q-46 -9 -63.5 -37t-17.5 -105v-75h-21v49
q0 51 -4.5 82t-11 47.5t-14.5 22t-15 5.5zM88 461q0 -18 18 -29t39 -11q24 0 48.5 6t48.5 13t47 14t44 9q-14 5 -37.5 10t-50.5 8.5t-55 6t-51 2.5q-27 0 -39 -7.5t-12 -21.5zM343 345q-26 0 -61 -3.5t-87 -4.5q39 -18 81.5 -36.5t77.5 -18.5q22 0 35.5 7.5t13.5 22.5
q0 19 -16.5 26t-43.5 7zM98 228q0 -22 16 -32.5t45 -10.5q32 0 72 13.5t77 26.5q-22 3 -43.5 10.5t-41.5 15.5t-38 14t-33 6q-24 0 -39 -9t-15 -34zM346 115q-100 0 -162.5 12.5t-98.5 31.5q6 -24 32 -42.5t61 -31t74 -19t70 -6.5q43 0 58 6.5t15 20.5q0 13 -10.5 20.5
t-38.5 7.5z" />
    <glyph glyph-name="t.swsh" horiz-adv-x="419" 
d="M418 132q-47 -66 -95.5 -105.5t-95.5 -39.5q-29 0 -54.5 12.5t-44.5 44t-30.5 87t-14.5 139.5l-7 215l-83 25v19l194 192l13 -3v-143l69 3v16q0 196 47.5 291.5t113.5 95.5q49 0 83 -47.5t34 -131.5q0 -73 -15 -134.5t-45.5 -105.5t-77 -69.5t-108.5 -26.5
q10 -63 33.5 -121t64.5 -109l-21 -17q-37 50 -63 111t-37 136q-17 1 -36 3t-38 6v-17q0 -100 9 -169.5t24 -112t34 -61t39 -18.5q21 0 41.5 13.5t43.5 39.5zM292 596v-17q38 3 73.5 18t62 43.5t42.5 72t16 104.5q0 70 -19 101.5t-51 31.5q-51 0 -87.5 -90.5t-36.5 -263.5z
" />
    <glyph glyph-name="y.swsh" horiz-adv-x="598" 
d="M0 506l-11 56l194 22q12 -23 22.5 -47t20.5 -49q37 50 80.5 77.5t98.5 27.5q38 0 70.5 -16.5t55.5 -46t36 -70t13 -87.5q0 -53 -15 -114t-50.5 -122.5t-95.5 -120t-149 -106.5q-107 -57 -272 -79.5t-389 -22.5h-54q-7 -18 -13.5 -42t-13.5 -55l-45 17q16 60 35 119
t44 113l2 9q151 -28 301 -41t327 -9q-25 196 -58 345.5t-82 249.5zM305 470q-21 0 -37.5 -3.5t-29.5 -10.5q35 -101 55 -216.5t34 -251.5q68 66 93.5 135.5t25.5 149.5q0 94 -40 145.5t-101 51.5z" />
    <glyph glyph-name="i.dot" horiz-adv-x="237" 
d="M212 865q-7 -25 -16.5 -59.5t-19.5 -71.5t-19.5 -72.5t-16.5 -61.5q-28 0 -52 14t-39.5 38t-22 54.5t-0.5 63.5q37 18 71 20.5t61 2.5l18 83q10 1 20.5 -2t15.5 -9zM200 0h-161l20 302l-33 219l159 26q7 -135 11 -272.5t4 -274.5z" />
    <glyph glyph-name="caron.alt" 
d="M233 550h-25l33 213h141z" />
    <glyph glyph-name="revcommaaccent" 
d="M147 798q0 24 11 48.5t36.5 45t69 35.5t108.5 19l25 -68q-81 -4 -134 -19t-83 -47l178 -53l-33 -103q-100 20 -139 55t-39 87z" />
    <glyph glyph-name="ampersand.alt" horiz-adv-x="670" 
d="M531 700v-99l-12 -179q27 10 56 22.5t60 27.5l32 -133q-42 -13 -78.5 -23t-68.5 -16l4 -102q-16 -40 -44.5 -78t-63.5 -67.5t-74 -47.5t-77 -18q-42 0 -81.5 12.5t-70.5 36t-53 59.5t-29 82q40 40 75 74.5t62 65.5q-54 28 -85.5 77t-31.5 115q0 35 10 75t29 86l39 93
q110 0 164 -43.5t54 -116.5q0 -55 -21.5 -111t-57.5 -113q5 -1 11.5 -1h12.5q50 0 94 7t88 21l-4 119l-83 178zM87 533q0 -49 30.5 -90.5t101.5 -57.5q12 21 18.5 41t6.5 40q0 50 -30.5 83t-112.5 52q-7 -18 -10.5 -35t-3.5 -33zM338 281q-34 0 -65.5 4.5t-59.5 13.5
q-9 -11 -18 -23t-19 -24q18 -84 66 -127.5t98 -43.5q57 0 90.5 47.5t41.5 162.5q-37 -6 -70 -8t-64 -2z" />
    <glyph glyph-name="zero.alt" horiz-adv-x="680" 
d="M43 293q0 78 46 142.5t130 125.5l40 104q114 -18 187.5 -53.5t115 -79t57.5 -91.5t16 -89q0 -66 -36 -132t-109 -121l-30 -116q-68 9 -142 29.5t-135 56.5t-100.5 91t-39.5 133zM114 337q0 -48 29.5 -81.5t77 -56.5t109.5 -38t126 -25q57 37 82.5 80t25.5 88
q0 28 -15 58.5t-51.5 59.5t-99 54.5t-156.5 41.5q-64 -42 -96 -84t-32 -97zM223 323l116 115l116 -115l-116 -117z" />
    <glyph glyph-name="one.alt" horiz-adv-x="414" 
d="M164 0l28 351l-11 214l-156 -106v159l298 37h10v-99l-18 -195l16 -361h-167z" />
    <glyph glyph-name="two.alt" horiz-adv-x="672" 
d="M75 0l-21 93h-1l144 76q15 8 29 16t27 16q-86 22 -136.5 79.5t-50.5 149.5q0 49 19.5 91.5t52.5 74t78.5 49.5t97.5 18q56 0 104.5 -15t83.5 -41.5t55 -65t20 -84.5q0 -43 -16 -79.5t-54.5 -72.5t-103.5 -73.5t-161 -81.5l-31 -14l238 11h196l-20 -147h-550zM121 422
q0 -80 47 -124t137 -63q61 46 84.5 91.5t23.5 99.5q0 74 -41.5 111.5t-103.5 37.5q-63 0 -105 -42t-42 -111z" />
    <glyph glyph-name="three.alt" horiz-adv-x="534" 
d="M408 207q0 22 -10.5 41t-40.5 33.5t-85.5 24t-144.5 12.5v38l232 166l-100 -5h-232v138h455v-96l-296 -211q140 -1 223 -48.5t83 -134.5q0 -46 -20 -83.5t-68 -69t-128.5 -61t-199.5 -60.5l-43 147q108 26 180.5 48.5t115.5 42.5t61 39.5t18 38.5z" />
    <glyph glyph-name="four.alt" horiz-adv-x="620" 
d="M57 40l1 3l-2 -3l-19 27l156 588h207l-320 -572h242l2 35l-15 246h165v-113l-14 -133l2 -35h150v-43h-149l9 -190h-167l13 190h-261z" />
    <glyph glyph-name="five.alt" horiz-adv-x="575" 
d="M37 -149l-9 35q161 48 247 118t86 184q0 57 -31 87t-88 30q-31 0 -68 -14t-89 -48h-35l35 412h391v-148h-361l-20 -208v-1q57 37 108 56t109 19q46 0 86.5 -11.5t69.5 -34t46 -58t17 -82.5q0 -120 -127 -199.5t-367 -136.5z" />
    <glyph glyph-name="six.alt" horiz-adv-x="651" 
d="M515 726l6 -25q-100 -53 -162.5 -104t-97 -98.5t-47.5 -93.5t-15 -90q45 71 102 107t115 36q81 0 135 -54t54 -161q0 -59 -19.5 -106.5t-53 -80.5t-79.5 -51t-98 -18q-68 0 -124.5 22.5t-96 61.5t-61.5 92t-22 114q0 66 26 131t82 123.5t144 108.5t212 86zM392 321
q-51 0 -97 -12.5t-94 -40.5q8 -69 63.5 -118t141.5 -49q61 0 103 33t42 86q0 49 -42.5 75t-116.5 26z" />
    <glyph glyph-name="seven.alt" horiz-adv-x="542" 
d="M285 -100h-198l356 607h-425v148h499v-98l-1 -1h1z" />
    <glyph glyph-name="eight.alt" horiz-adv-x="649" 
d="M327 -21q-146 45 -214 103t-68 127q0 56 49 105t136 71q-76 14 -115 48.5t-39 85.5q0 31 11 59.5t38.5 57.5t75 61.5t119.5 71.5q135 -47 194 -103.5t59 -121.5q0 -54 -40 -92.5t-98 -57.5q81 -12 125 -47t44 -89q0 -65 -65 -134.5t-212 -144.5zM177 540q0 -57 46 -94
t119 -43q63 5 94.5 34t31.5 69q0 20 -8.5 39.5t-34 38t-73 37t-124.5 35.5q-26 -28 -38.5 -58t-12.5 -58zM181 255q0 -23 11.5 -44t41 -39.5t80 -35.5t127.5 -33q30 28 44 61t14 66q0 30 -13.5 55t-36.5 43.5t-54 30t-66 15.5q-78 -6 -113 -41t-35 -78z" />
    <glyph glyph-name="nine.alt" horiz-adv-x="651" 
d="M136 -71l-6 25q100 53 162.5 104t97 98.5t47.5 93.5t15 90q-45 -71 -102 -107t-115 -36q-81 0 -135 54t-54 161q0 57 19 104t53 81t81 52.5t103 18.5q66 0 121 -23t94 -62t61 -92t22 -113q0 -66 -26 -131t-82 -123.5t-144 -108.5t-212 -86zM259 334q51 0 97 12.5t94 40.5
q-8 69 -61.5 118t-136.5 49q-64 0 -108 -33t-44 -86q0 -49 42.5 -75t116.5 -26z" />
    </font>
</defs>
</svg>
